<svg width="295" height="230" viewBox="0 0 295 230" fill="none" xmlns="http://www.w3.org/2000/svg">
<g filter="url(#filter0_b_12_348)">
<g filter="url(#filter1_di_12_348)">
<path d="M115 97C115 93.6863 117.686 91 121 91H270.607C274.069 91 277.308 92.7062 279.266 95.5608L292.631 115.046C294.054 117.121 294.031 119.863 292.574 121.915L278.603 141.581C276.634 144.353 273.444 146 270.043 146H121C117.686 146 115 143.314 115 140L115 97Z" fill="url(#paint0_linear_12_348)" fill-opacity="0.7" shape-rendering="crispEdges"/>
</g>
<path d="M184.423 115.686C184.018 114.332 182.964 113.506 181.417 113.506C179.36 113.506 177.884 115.105 177.884 117.971C177.884 120.871 179.343 122.471 181.469 122.471C183.385 122.471 184.616 121.311 184.651 119.5H181.698L181.698 117.689H186.866L186.866 119.219C186.866 122.488 184.616 124.527 181.469 124.527C177.954 124.527 175.581 122.031 175.581 117.988C175.581 113.91 178.059 111.449 181.399 111.449C184.212 111.449 186.374 113.189 186.76 115.686H184.423ZM193.181 124.545C190.403 124.545 188.61 122.576 188.61 119.623C188.61 116.652 190.403 114.684 193.181 114.684C195.976 114.684 197.751 116.652 197.751 119.623C197.751 122.576 195.976 124.545 193.181 124.545ZM193.198 122.752C194.728 122.752 195.483 121.363 195.483 119.605C195.483 117.865 194.728 116.459 193.198 116.459C191.634 116.459 190.878 117.865 190.878 119.605C190.878 121.363 191.634 122.752 193.198 122.752ZM204.228 124.352L204.228 111.625H209.097C211.857 111.625 213.228 113.031 213.228 114.93C213.228 116.477 212.244 117.338 210.996 117.637L210.996 117.76C212.349 117.83 213.72 118.955 213.72 120.889C213.72 122.875 212.297 124.352 209.379 124.352H204.228ZM209.027 122.436C210.697 122.436 211.4 121.715 211.4 120.713C211.4 119.57 210.504 118.691 209.08 118.691H206.513L206.513 122.436H209.027ZM208.816 117.039C210.029 117.039 210.943 116.336 210.943 115.211C210.943 114.227 210.24 113.523 208.869 113.523H206.513L206.513 117.039H208.816ZM215.219 121.662C215.219 119.518 216.994 118.885 218.77 118.779C219.429 118.735 220.8 118.656 221.213 118.639L221.213 117.883C221.213 116.934 220.598 116.389 219.49 116.389C218.488 116.389 217.873 116.846 217.697 117.531H215.535C215.693 115.914 217.152 114.684 219.543 114.684C221.354 114.684 223.445 115.422 223.445 117.971L223.445 124.352H221.301L221.301 123.033H221.23C220.809 123.842 219.912 124.545 218.418 124.545C216.59 124.545 215.219 123.543 215.219 121.662ZM217.381 121.645C217.381 122.471 218.049 122.893 218.998 122.893C220.352 122.893 221.23 121.996 221.23 120.924L221.23 120.133L219.121 120.273C218.049 120.361 217.381 120.801 217.381 121.645ZM229.901 124.545C227.053 124.545 225.33 122.506 225.33 119.623C225.33 116.705 227.106 114.684 229.901 114.684C232.221 114.684 233.838 116.037 233.996 118.094H231.852C231.676 117.18 231.008 116.477 229.918 116.477C228.53 116.477 227.598 117.654 227.598 119.57C227.598 121.539 228.512 122.717 229.918 122.717C230.92 122.717 231.659 122.137 231.852 121.1H233.996C233.821 123.121 232.291 124.545 229.901 124.545ZM235.864 124.352L235.864 111.625H238.114L238.114 118.639H238.272L241.7 114.807H244.319L240.628 118.92L244.548 124.352H241.876L238.94 120.256L238.114 121.135L238.114 124.352H235.864Z" fill="#424242"/>
</g>
<g filter="url(#filter2_b_12_348)">
<g filter="url(#filter3_di_12_348)">
<path d="M136.229 56.2349C136.229 52.9212 133.635 49.5396 130.434 48.6819L21.0956 19.3848C17.4351 18.404 14.0587 19.5413 12.2609 22.3607L2.63324 37.4593C1.6217 39.0456 1.63832 41.3237 2.67694 43.4434L12.7409 63.9822C14.559 67.6928 17.8936 70.568 21.4991 71.5341L130.434 100.723C133.635 101.581 136.229 99.5897 136.229 96.276L136.229 56.2349Z" fill="url(#paint1_linear_12_348)" fill-opacity="0.7" shape-rendering="crispEdges"/>
</g>
<path d="M39.9189 55.7057L39.9189 42.9791L42.1261 43.5706L42.1261 48.9671L47.8481 50.5003L47.8481 45.1038L50.0724 45.6998L50.0724 58.4263L47.8481 57.8303L47.8481 52.4163L42.1261 50.8831L42.1261 56.2971L39.9189 55.7057ZM56.4437 60.3269C53.7609 59.608 52.0291 57.1752 52.0291 54.2221C52.0291 51.2514 53.7609 49.7467 56.4437 50.4655C59.1433 51.1889 60.8582 53.6172 60.8582 56.5879C60.8582 59.541 59.1433 61.0502 56.4437 60.3269ZM56.4606 58.5384C57.9378 58.9343 58.6679 57.7412 58.6679 55.9834C58.6679 54.2432 57.9378 52.6413 56.4606 52.2455C54.9495 51.8406 54.2194 53.0512 54.2194 54.7914C54.2194 56.5492 54.9495 58.1335 56.4606 58.5384ZM62.713 61.8134L62.713 52.2685L64.7845 52.8235L64.7845 54.4407L64.9034 54.4725C65.2769 53.4828 66.2108 53.0826 67.4333 53.4102C68.6897 53.7469 69.5726 54.6338 69.9292 55.8192L70.0311 55.8465C70.4386 54.901 71.4573 54.4884 72.7987 54.8478C74.4796 55.2983 75.6681 56.7417 75.6681 58.8687L75.6681 65.2847L73.5118 64.7069L73.5118 58.6424C73.5118 57.4471 72.8156 56.7333 71.9327 56.4967C70.863 56.2101 70.2518 56.8021 70.2518 57.8744L70.2518 63.8334L68.1464 63.2692L68.1464 57.1169C68.1464 56.1325 67.5012 55.3092 66.5843 55.0636C65.6504 54.8133 64.8864 55.3996 64.8864 56.5949L64.8864 62.3957L62.713 61.8134ZM82.0054 67.1761C79.2209 66.43 77.523 64.059 77.523 61.0707C77.523 58.1176 79.2548 56.5778 81.8866 57.283C84.1448 57.888 86.0974 59.8702 86.0974 63.2276L86.0974 63.9308L79.6623 62.2065C79.6878 63.8393 80.6132 65.0453 82.0224 65.4229C82.9733 65.6776 83.6185 65.4286 83.8901 64.9389L86.0125 65.5076C85.622 67.0553 84.1448 67.7494 82.0054 67.1761ZM79.6793 60.6817L84.026 61.8464C84.009 60.5411 83.177 59.369 81.9206 59.0323C80.6132 58.682 79.7472 59.4783 79.6793 60.6817Z" fill="#424242"/>
</g>
<path d="M114.463 15.375C114.463 6.88362 121.347 0 129.838 0C138.329 0 145.213 6.88362 145.213 15.375V230H114.463V15.375Z" fill="url(#paint2_linear_12_348)"/>
<defs>
<filter id="filter0_b_12_348" x="109.375" y="85.375" width="189.933" height="66.25" filterUnits="userSpaceOnUse" color-interpolation-filters="sRGB">
<feFlood flood-opacity="0" result="BackgroundImageFix"/>
<feGaussianBlur in="BackgroundImageFix" stdDeviation="2.8125"/>
<feComposite in2="SourceAlpha" operator="in" result="effect1_backgroundBlur_12_348"/>
<feBlend mode="normal" in="SourceGraphic" in2="effect1_backgroundBlur_12_348" result="shape"/>
</filter>
<filter id="filter1_di_12_348" x="115" y="91" width="179.808" height="57.25" filterUnits="userSpaceOnUse" color-interpolation-filters="sRGB">
<feFlood flood-opacity="0" result="BackgroundImageFix"/>
<feColorMatrix in="SourceAlpha" type="matrix" values="0 0 0 0 0 0 0 0 0 0 0 0 0 0 0 0 0 0 127 0" result="hardAlpha"/>
<feOffset dx="1.125" dy="2.25"/>
<feComposite in2="hardAlpha" operator="out"/>
<feColorMatrix type="matrix" values="0 0 0 0 0.496197 0 0 0 0 0.793441 0 0 0 0 0.720781 0 0 0 1 0"/>
<feBlend mode="normal" in2="BackgroundImageFix" result="effect1_dropShadow_12_348"/>
<feBlend mode="normal" in="SourceGraphic" in2="effect1_dropShadow_12_348" result="shape"/>
<feColorMatrix in="SourceAlpha" type="matrix" values="0 0 0 0 0 0 0 0 0 0 0 0 0 0 0 0 0 0 127 0" result="hardAlpha"/>
<feOffset dy="1.125"/>
<feGaussianBlur stdDeviation="1.6875"/>
<feComposite in2="hardAlpha" operator="arithmetic" k2="-1" k3="1"/>
<feColorMatrix type="matrix" values="0 0 0 0 0.784041 0 0 0 0 0.974382 0 0 0 0 0.914107 0 0 0 0.42 0"/>
<feBlend mode="normal" in2="shape" result="effect2_innerShadow_12_348"/>
</filter>
<filter id="filter2_b_12_348" x="-3.73877" y="13.4136" width="145.593" height="93.1338" filterUnits="userSpaceOnUse" color-interpolation-filters="sRGB">
<feFlood flood-opacity="0" result="BackgroundImageFix"/>
<feGaussianBlur in="BackgroundImageFix" stdDeviation="2.8125"/>
<feComposite in2="SourceAlpha" operator="in" result="effect1_backgroundBlur_12_348"/>
<feBlend mode="normal" in="SourceGraphic" in2="effect1_backgroundBlur_12_348" result="shape"/>
</filter>
<filter id="filter3_di_12_348" x="0.38623" y="19.0386" width="135.843" height="84.1338" filterUnits="userSpaceOnUse" color-interpolation-filters="sRGB">
<feFlood flood-opacity="0" result="BackgroundImageFix"/>
<feColorMatrix in="SourceAlpha" type="matrix" values="0 0 0 0 0 0 0 0 0 0 0 0 0 0 0 0 0 0 127 0" result="hardAlpha"/>
<feOffset dx="-1.5" dy="2.25"/>
<feComposite in2="hardAlpha" operator="out"/>
<feColorMatrix type="matrix" values="0 0 0 0 0.494711 0 0 0 0 0.716602 0 0 0 0 0.812419 0 0 0 1 0"/>
<feBlend mode="normal" in2="BackgroundImageFix" result="effect1_dropShadow_12_348"/>
<feBlend mode="normal" in="SourceGraphic" in2="effect1_dropShadow_12_348" result="shape"/>
<feColorMatrix in="SourceAlpha" type="matrix" values="0 0 0 0 0 0 0 0 0 0 0 0 0 0 0 0 0 0 127 0" result="hardAlpha"/>
<feOffset dy="1.125"/>
<feGaussianBlur stdDeviation="1.6875"/>
<feComposite in2="hardAlpha" operator="arithmetic" k2="-1" k3="1"/>
<feColorMatrix type="matrix" values="0 0 0 0 0.897266 0 0 0 0 0.96918 0 0 0 0 1 0 0 0 0.68 0"/>
<feBlend mode="normal" in2="shape" result="effect2_innerShadow_12_348"/>
</filter>
<linearGradient id="paint0_linear_12_348" x1="344.888" y1="132.622" x2="44.1169" y2="121" gradientUnits="userSpaceOnUse">
<stop stop-color="#00B488"/>
<stop offset="1" stop-color="#D0FCF1"/>
</linearGradient>
<linearGradient id="paint1_linear_12_348" x1="-36.4795" y1="43.3401" x2="187.767" y2="36.5162" gradientUnits="userSpaceOnUse">
<stop stop-color="#7ED5FB"/>
<stop offset="1" stop-color="#C1EAFB"/>
</linearGradient>
<linearGradient id="paint2_linear_12_348" x1="80.4363" y1="103.363" x2="166.134" y2="103.734" gradientUnits="userSpaceOnUse">
<stop stop-color="#BEBEBE"/>
<stop offset="0.463098" stop-color="#D9D9D9"/>
<stop offset="1" stop-color="#9F9F9F"/>
</linearGradient>
</defs>
</svg>
