<svg width="32" height="40" viewBox="0 0 32 40" fill="none" xmlns="http://www.w3.org/2000/svg">
<path d="M14.039 19.1699L8.82678 24.1848L23.9255 38.7194C23.9255 38.7194 24.3806 38.8894 24.546 38.7194L29.4686 33.9595L14.039 19.1699Z" fill="#00B488"/>
<path d="M23.0982 34.2145C25.2906 24.9073 38.3624 27.8822 27.3589 38.4644C27.028 38.7194 26.6971 38.9319 26.4075 39.1019C22.6845 40.5469 22.4363 34.427 23.0982 34.2145Z" fill="#00B488"/>
<path fill-rule="evenodd" clip-rule="evenodd" d="M12.8545 21.7275L17.2545 25.9568L13.8661 29.0029L9.3563 24.6681L12.8545 21.7275ZM1.21567 31.5109L8.42113 25.4542L12.9603 29.8172L8.9187 33.4503C12.6385 37.6706 9.14812 44.651 0.837586 35.53C0.589388 35.19 0.382555 34.85 0.21709 34.5525C-0.196575 33.4051 0.0102575 32.5976 0.589388 32.0026C0.769034 31.8121 0.981965 31.6491 1.21567 31.5109Z" fill="#00B488"/>
<path d="M0.595703 31.999L3.16042 29.874L1.42303 34.3789L0.595703 31.999Z" fill="#00B488"/>
<path d="M32 13.9814C32 21.7031 25.7934 27.9628 18.1371 27.9628C10.9078 27.9628 4.27417 21.7031 4.27417 13.9814C4.27417 6.2597 10.4808 0 18.1371 0C25.7934 0 32 6.2597 32 13.9814Z" fill="#00B488"/>
<g style="mix-blend-mode:multiply" filter="url(#filter0_f_1075_6898)">
<ellipse cx="16.3539" cy="12.9833" rx="2.47552" ry="2.99602" fill="url(#paint0_radial_1075_6898)"/>
</g>
<g style="mix-blend-mode:multiply" filter="url(#filter1_f_1075_6898)">
<ellipse cx="28.7316" cy="12.9833" rx="1.98042" ry="2.99602" fill="url(#paint1_radial_1075_6898)"/>
</g>
<rect x="19.8042" y="9.9873" width="1.48531" height="1.99735" rx="0.742657" fill="#111111"/>
<rect x="24.4246" y="9.9873" width="1.48531" height="1.99735" rx="0.742657" fill="#111111"/>
<path d="M20.7944 13.9814H24.7553" stroke="#111111" stroke-width="0.5"/>
<defs>
<filter id="filter0_f_1075_6898" x="12.8784" y="8.9873" width="6.95105" height="7.99219" filterUnits="userSpaceOnUse" color-interpolation-filters="sRGB">
<feFlood flood-opacity="0" result="BackgroundImageFix"/>
<feBlend mode="normal" in="SourceGraphic" in2="BackgroundImageFix" result="shape"/>
<feGaussianBlur stdDeviation="0.5" result="effect1_foregroundBlur_1075_6898"/>
</filter>
<filter id="filter1_f_1075_6898" x="25.7512" y="8.9873" width="5.96082" height="7.99219" filterUnits="userSpaceOnUse" color-interpolation-filters="sRGB">
<feFlood flood-opacity="0" result="BackgroundImageFix"/>
<feBlend mode="normal" in="SourceGraphic" in2="BackgroundImageFix" result="shape"/>
<feGaussianBlur stdDeviation="0.5" result="effect1_foregroundBlur_1075_6898"/>
</filter>
<radialGradient id="paint0_radial_1075_6898" cx="0" cy="0" r="1" gradientUnits="userSpaceOnUse" gradientTransform="translate(16.3385 12.9833) rotate(80.6165) scale(3.03665 2.51024)">
<stop stop-color="#06E1AC"/>
<stop offset="1" stop-color="#FFF6E7"/>
</radialGradient>
<radialGradient id="paint1_radial_1075_6898" cx="0" cy="0" r="1" gradientUnits="userSpaceOnUse" gradientTransform="translate(28.7193 12.9833) rotate(82.469) scale(3.02209 2.01787)">
<stop stop-color="#06E1AC"/>
<stop offset="1" stop-color="#FFF6E7"/>
</radialGradient>
</defs>
</svg>
