<svg width="108" height="108" viewBox="0 0 108 108" fill="none" xmlns="http://www.w3.org/2000/svg">
<rect x="0.5" y="0.5" width="107" height="107" rx="53.5" fill="#F2FAF7" stroke="#CEF6E7"/>
<g clip-path="url(#clip0_3149_14113)">
<path d="M51.0135 45.186L42.46 53.3456L67.238 76.9945C67.238 76.9945 67.9848 77.2711 68.2563 76.9945L76.3346 69.2499L51.0135 45.186Z" fill="#00B488"/>
<path d="M65.8803 69.6648C69.4782 54.5211 90.9299 59.3616 72.8725 76.5797C72.3294 76.9945 71.7863 77.3403 71.3111 77.6169C65.2015 79.9679 64.7942 70.0105 65.8803 69.6648Z" fill="#00B488"/>
<path fill-rule="evenodd" clip-rule="evenodd" d="M49.0692 49.3545L56.29 56.236L50.7345 61.1875L43.3337 54.1345L49.0692 49.3545ZM29.9735 65.2691L41.7991 55.4135L49.248 62.5124L42.6147 68.4246C48.7191 75.2913 42.9912 86.6489 29.3531 71.8084C28.9457 71.2552 28.6063 70.7021 28.3348 70.218C27.6559 68.351 27.9953 67.0372 28.9457 66.0691C29.2406 65.7591 29.59 65.4939 29.9735 65.2691Z" fill="#00B488"/>
<path d="M28.9482 66.0683L33.1571 62.6108L30.3059 69.9406L28.9482 66.0683Z" fill="#00B488"/>
<path fill-rule="evenodd" clip-rule="evenodd" d="M61.9228 52.8606C65.1668 50.131 67.5084 46.2421 67.5084 41.9367H67.4405C67.4405 33.6388 60.4484 27.0005 51.8269 27.0005C43.2055 27.0005 36.2812 33.6388 36.2812 41.9367C36.2812 50.2345 44.8348 56.8728 51.8948 56.8728C54.6745 56.8728 57.6857 55.8331 60.3153 54.07L53.76 47.8154L53.2508 47.3313L52.2326 46.3632L52.2294 46.3549L51.0785 45.2568L51.0827 45.2527L49.7887 44.0121C48.1594 42.4217 47.9558 39.8632 49.4493 38.2036C50.3318 37.1664 51.4858 36.4749 53.1829 36.4749C56.102 36.4749 58.1386 39.3792 57.4597 41.8685C57.0706 43.2778 55.7727 44.8554 54.6886 45.9582L61.9228 52.8606Z" fill="#00B488"/>
</g>
<defs>
<clipPath id="clip0_3149_14113">
<rect width="52" height="52" fill="white" transform="translate(28 27)"/>
</clipPath>
</defs>
</svg>
