<svg width="16" height="16" viewBox="0 0 16 16" fill="none" xmlns="http://www.w3.org/2000/svg">
<path d="M4.96124 2.49902L4.96126 2.49902C5.88121 2.54666 6.81415 2.93752 7.55111 3.65817L7.55156 3.65861L7.71764 3.82061L8.06677 4.16116L8.4159 3.82061L8.58198 3.65861L8.5822 3.65839C10.0681 2.20723 12.3385 2.1133 13.6501 3.39438L13.6502 3.39449C14.9543 4.66734 14.8658 6.8664 13.3836 8.31398L12.8579 8.82676L12.8577 8.82699L8.08136 13.492C8.08106 13.4922 8.08015 13.4928 8.07842 13.4935C8.07539 13.4947 8.07119 13.4956 8.06641 13.4956C8.06195 13.4956 8.05911 13.4948 8.05758 13.4942C8.05616 13.4936 8.05528 13.493 8.05455 13.4923C8.05453 13.4923 8.0545 13.4922 8.05447 13.4922L3.27579 8.82691L3.27564 8.82677L2.74994 8.31398C1.26773 6.86637 1.17825 4.66727 2.48127 3.39347C3.13946 2.75153 4.04306 2.45141 4.96124 2.49902Z" stroke="#A3A3A3"/>
</svg>
