<svg width="60" height="60" viewBox="0 0 60 60" fill="none" xmlns="http://www.w3.org/2000/svg">
<rect x="0.24375" y="0.78623" width="59.5125" height="58.9698" rx="29.4849" fill="#F2FAF7" stroke="#B8EDD9" stroke-width="0.4875"/>
<mask id="mask0_3208_14046" style="mask-type:alpha" maskUnits="userSpaceOnUse" x="0" y="0" width="60" height="60">
<path d="M30 59.2136C13.713 59.2136 0.24375 46.0099 0.24375 29.7287C0.24375 13.4475 13.713 0.24375 30 0.24375C46.2869 0.24375 59.7562 13.4475 59.7562 29.7287C59.7562 46.0099 46.2869 59.2136 30 59.2136Z" fill="#F2FAF7" stroke="#B8EDD9" stroke-width="0.4875"/>
</mask>
<g mask="url(#mask0_3208_14046)">
<path d="M44.6825 25.7259C40.4864 40.3674 29.9972 41.413 29.9972 41.413C29.9972 41.413 17.9493 39.3215 15.3119 25.7259C13.7057 17.4462 19.8363 7.51022 28.5002 9.57023C29.4778 9.80269 30.5112 9.79267 31.4805 9.52725C40.1665 7.14872 46.441 16.3509 44.6825 25.7259Z" fill="#163028"/>
<path d="M43.6348 30.8128C43.6348 29.7358 42.7617 28.8628 41.6848 28.8628H39.439V34.0918H41.6848C42.7617 34.0918 43.6348 33.2188 43.6348 32.1418V30.8128Z" fill="url(#paint0_linear_3208_14046)"/>
<path d="M25.8058 34.0913H34.1974L35.2463 44.5494C34.1974 50.8242 25.8058 50.8242 24.7568 44.5494L25.8058 34.0913Z" fill="url(#paint1_linear_3208_14046)"/>
<mask id="mask1_3208_14046" style="mask-type:alpha" maskUnits="userSpaceOnUse" x="24" y="34" width="12" height="16">
<path d="M25.8038 34.0928H34.1954L35.2444 44.5508C34.1954 50.8257 25.8038 50.8257 24.7549 44.5508L25.8038 34.0928Z" fill="url(#paint2_linear_3208_14046)"/>
</mask>
<g mask="url(#mask1_3208_14046)">
<path d="M25.2794 46.1181C25.2794 45.6997 32.185 43.1549 35.2444 41.1505L34.9822 39.3203C34.3528 39.5295 28.164 39.4946 25.2794 39.3203C25.1046 40.8019 24.7578 43.8696 24.7549 44.2879C24.7502 44.9937 25.0113 45.9485 25.2794 46.1181Z" fill="#FBD4CE"/>
</g>
<path d="M16.3682 30.8128C16.3682 29.7358 17.2412 28.8628 18.3182 28.8628H20.564V34.0918H18.3182C17.2412 34.0918 16.3682 33.2188 16.3682 32.1418V30.8128Z" fill="url(#paint3_linear_3208_14046)"/>
<path d="M41.417 29.91C41.417 34.7493 34.8047 41.4138 30.0033 41.4138C25.2019 41.4138 18.5897 34.7493 18.5897 29.91C17.5521 21.9331 23.1267 16.3145 30.0033 16.3145C36.8799 16.3145 42.4546 21.9331 41.417 29.91Z" fill="#FAE0DC"/>
<path d="M6.92383 62.5097C6.92383 54.2425 11.3638 46.326 19.545 45.1373C21.2582 44.8884 22.9999 44.7061 24.756 44.5513C26.0778 51.0277 33.5153 50.5568 35.2455 44.5513C36.711 44.7155 38.1666 44.9014 39.6039 45.1244C48.1924 46.4569 53.0777 54.6149 53.0777 63.3061V64.7047C53.0777 66.8586 51.3316 68.6047 49.1777 68.6047H10.8238C8.66992 68.6047 6.92383 66.8586 6.92383 64.7047V62.5097Z" fill="#26B888"/>
<path d="M27.9043 35.1387C28.9532 36.5902 31.2613 36.4747 32.1001 35.1387" stroke="#F1A99E" stroke-width="0.975" stroke-linecap="round"/>
<g filter="url(#filter0_f_3208_14046)">
<ellipse cx="23.1819" cy="33.0481" rx="2.62238" ry="3.13742" fill="#F5CFBF"/>
</g>
<g filter="url(#filter1_f_3208_14046)">
<ellipse cx="2.62238" cy="3.13742" rx="2.62238" ry="3.13742" transform="matrix(-1 0 0 1 39.4434 29.9106)" fill="#F5CFBF"/>
</g>
<rect x="24.7549" y="27.8184" width="2.0979" height="3.13742" rx="1.04895" fill="#163028"/>
<path d="M17.7087 29.908L17.704 29.9231C17.5841 30.3098 17.8341 30.6763 17.9214 31.0716C17.9445 31.1762 17.9524 31.3105 17.9524 31.5L17.9315 32.3624L18.2295 31.6879C18.1406 31.5683 18.0152 31.4744 17.8949 31.4744C17.6284 31.4744 17.4141 31.7647 17.4141 32.2258C17.4141 32.7295 17.6179 33.0454 17.8949 33.0454C18.2817 33.0454 18.463 33.0539 18.463 32.2258C18.463 31.2866 18.2993 30.3776 17.7087 29.908Z" fill="#F1A99E"/>
<path d="M42.2923 29.908L42.297 29.9231C42.4169 30.3098 42.1668 30.6763 42.0796 31.0716C42.0565 31.1762 42.0485 31.3105 42.0485 31.5L42.0695 32.3624L41.7715 31.6879C41.8604 31.5683 41.9858 31.4744 42.106 31.4744C42.3726 31.4744 42.5869 31.7647 42.5869 32.2258C42.5869 32.7295 42.3831 33.0454 42.106 33.0454C41.7192 33.0454 41.538 33.0539 41.538 32.2258C41.538 31.2866 41.7017 30.3776 42.2923 29.908Z" fill="#F1A99E"/>
<rect x="33.1445" y="27.8184" width="2.0979" height="3.13742" rx="1.04895" fill="#163028"/>
<path d="M30.0021 30.9551C29.4537 30.9551 28.5214 31.1642 29.1795 32.0009" stroke="#F1A99E" stroke-width="0.39" stroke-linecap="round"/>
<path d="M29.3291 19.9909C29.0752 17.6244 29.3291 17.6214 30.7099 17.1098C25.7723 3.09251 18.3746 17.829 16.2218 26.4149C16.022 27.2118 16.8576 27.7923 17.5857 27.4117C19.0926 26.624 20.9754 25.8698 24.0466 25.4574C26.5789 25.1174 29.6464 22.9489 29.3291 19.9909Z" fill="#163028"/>
<path d="M31.0254 19.8242C31.2793 17.4108 31.0254 17.4077 29.6446 16.886C33.4917 1.11224 41.6595 17.2138 44.0867 26.3554C44.3005 27.1606 43.4528 27.7542 42.7165 27.3644C41.2183 26.5712 39.3437 25.8149 36.3079 25.3992C33.7756 25.0524 30.7081 22.8409 31.0254 19.8242Z" fill="#163028"/>
</g>
<defs>
<filter id="filter0_f_3208_14046" x="19.5846" y="28.9356" width="7.19512" height="8.2249" filterUnits="userSpaceOnUse" color-interpolation-filters="sRGB">
<feFlood flood-opacity="0" result="BackgroundImageFix"/>
<feBlend mode="normal" in="SourceGraphic" in2="BackgroundImageFix" result="shape"/>
<feGaussianBlur stdDeviation="0.4875" result="effect1_foregroundBlur_3208_14046"/>
</filter>
<filter id="filter1_f_3208_14046" x="33.2232" y="28.9356" width="7.19512" height="8.2249" filterUnits="userSpaceOnUse" color-interpolation-filters="sRGB">
<feFlood flood-opacity="0" result="BackgroundImageFix"/>
<feBlend mode="normal" in="SourceGraphic" in2="BackgroundImageFix" result="shape"/>
<feGaussianBlur stdDeviation="0.4875" result="effect1_foregroundBlur_3208_14046"/>
</filter>
<linearGradient id="paint0_linear_3208_14046" x1="43.6348" y1="32.0002" x2="40.4879" y2="32.0002" gradientUnits="userSpaceOnUse">
<stop stop-color="#FAE0DC"/>
<stop offset="1" stop-color="#FBD4CE"/>
</linearGradient>
<linearGradient id="paint1_linear_3208_14046" x1="30.0016" y1="33.5684" x2="30.0016" y2="46.641" gradientUnits="userSpaceOnUse">
<stop stop-color="#FBD4CE"/>
<stop offset="1" stop-color="#FAE0DC"/>
</linearGradient>
<linearGradient id="paint2_linear_3208_14046" x1="29.9996" y1="33.5699" x2="29.9996" y2="46.6425" gradientUnits="userSpaceOnUse">
<stop stop-color="#FBD4CE"/>
<stop offset="1" stop-color="#FAE0DC"/>
</linearGradient>
<linearGradient id="paint3_linear_3208_14046" x1="16.3682" y1="32.0002" x2="19.515" y2="32.0002" gradientUnits="userSpaceOnUse">
<stop stop-color="#FAE0DC"/>
<stop offset="1" stop-color="#FBD4CE"/>
</linearGradient>
</defs>
</svg>
