<svg width="25" height="25" viewBox="0 0 25 25" fill="none" xmlns="http://www.w3.org/2000/svg">
<path fill-rule="evenodd" clip-rule="evenodd" d="M19.2499 9.79789V9.2998H17.9539H13.72C13.3224 9.2998 13 9.62216 13 10.0198V12.3298C13 12.7275 13.3224 13.0498 13.72 13.0498H15.9027L17.2367 11.7538H14.296V10.5958H17.9539V11.057L19.2499 9.79789Z" fill="#111111"/>
<path d="M21.2237 9.95932C21.4701 9.69983 21.8697 9.69983 22.1162 9.95932L24.1609 12.112C24.4073 12.3715 24.4073 12.7922 24.1609 13.0516L17.9743 19.5649C17.8725 19.6721 17.7389 19.7395 17.5957 19.7557L14.7842 20.0751C14.6507 20.0903 14.5381 19.9717 14.5525 19.8312L14.8559 16.8712C14.8713 16.7204 14.9353 16.5798 15.0371 16.4726L21.2237 9.95932Z" stroke="#111111" stroke-width="1.296"/>
<rect x="0.255817" width="1.85728" height="0.371456" rx="0.185728" transform="matrix(0.688686 0.725059 0.688686 -0.725059 20.6539 11.9288)" fill="#111111" stroke="#111111" stroke-width="0.371456"/>
<path fill-rule="evenodd" clip-rule="evenodd" d="M3.38 1.94H16.3698C17.1651 1.94 17.8098 2.58471 17.8098 3.38V9.50017H19.2498V3.38C19.2498 1.78942 17.9604 0.5 16.3698 0.5H3.38C1.78942 0.5 0.5 1.78942 0.5 3.38V21.62C0.5 23.2106 1.78942 24.5 3.37999 24.5H16.3698C17.9604 24.5 19.2498 23.2106 19.2498 21.62V20.7502H17.8098V21.62C17.8098 22.4153 17.1651 23.06 16.3698 23.06H3.37999C2.58471 23.06 1.94 22.4153 1.94 21.62V3.38C1.94 2.58471 2.58471 1.94 3.38 1.94Z" fill="#111111"/>
</svg>
