<svg width="146" height="139" viewBox="0 0 146 139" fill="none" xmlns="http://www.w3.org/2000/svg">
<path d="M0 16.05C0 7.18584 7.18583 0 16.05 0H93.4498C102.314 0 109.5 7.18583 109.5 16.05V122.95C109.5 131.814 102.314 139 93.4498 139H16.05C7.18584 139 0 131.814 0 122.95V16.05Z" fill="white"/>
<path d="M73 54.9764C73 52.7603 74.7965 50.9639 77.0125 50.9639H109.5V69.4972H77.0125C74.7965 69.4972 73 67.7007 73 65.4847V54.9764Z" fill="#CCECE2"/>
<path d="M118.638 51.8381C121.397 48.9574 125.87 48.9574 128.63 51.8381L141.004 64.758C143.763 67.6388 143.763 72.3094 141.004 75.1901L104.581 113.219C103.441 114.409 101.946 115.156 100.343 115.337L83.5641 117.227C80.5753 117.564 78.0534 114.931 78.3759 111.81L80.1866 94.2915C80.3596 92.6183 81.0753 91.057 82.2151 89.867L118.638 51.8381Z" fill="#00B488"/>
<rect x="1.56895" width="13.8992" height="2.26828" rx="1.13414" transform="matrix(0.691693 0.722191 0.691693 -0.722191 116.207 66.1296)" fill="#CCECE2" stroke="#CCECE2" stroke-width="2.26828"/>
</svg>
