<svg width="16" height="16" viewBox="0 0 16 16" fill="none" xmlns="http://www.w3.org/2000/svg">
<path d="M1 3.16699C1 2.61471 1.44772 2.16699 2 2.16699H13.9985C14.5508 2.16699 14.9985 2.61471 14.9985 3.16699V14.0003C14.9985 14.5526 14.5508 15.0003 13.9985 15.0003H2C1.44772 15.0003 1 14.5526 1 14.0003V3.16699Z" fill="#D9D9D9"/>
<path d="M1 3.16699C1 2.61471 1.44772 2.16699 2 2.16699H13.9985C14.5508 2.16699 14.9985 2.61471 14.9985 3.16699V6.83366H1V3.16699Z" fill="#A3A3A3"/>
<rect x="3.33398" y="1" width="1.16667" height="2.33333" rx="0.583333" fill="#A3A3A3"/>
<path d="M11.498 1.58333C11.498 1.26117 11.7592 1 12.0814 1C12.4035 1 12.6647 1.26117 12.6647 1.58333V2.16667H11.498V1.58333Z" fill="#A3A3A3"/>
<path d="M5.66602 9.94477L7.53268 11.5003L10.3327 9.16699" stroke="#A3A3A3" stroke-width="0.8" stroke-linecap="round" stroke-linejoin="round"/>
</svg>
