<svg width="423" height="281" viewBox="0 0 423 281" fill="none" xmlns="http://www.w3.org/2000/svg">
<g clip-path="url(#clip0_2124_8985)">
<path d="M221.229 129.384C214.695 128.986 209.225 135.52 209.335 142.317L211.065 249.698C228.766 251.221 232.766 249.698 247.122 237.485L240.765 144.439C240.138 138.811 240.746 133.401 235.529 131.985C230.18 130.534 225.785 129.662 221.229 129.384Z" fill="url(#paint0_linear_2124_8985)"/>
<path d="M201.374 130.481C207.918 130.677 212.772 137.681 212.047 144.439L200.584 251.221C182.766 247 177.266 244.5 166.012 232.723L179.765 141C180.899 135.451 181.574 132.711 186.897 131.775C192.356 130.814 196.812 130.345 201.374 130.481Z" fill="url(#paint1_linear_2124_8985)"/>
<mask id="mask0_2124_8985" style="mask-type:alpha" maskUnits="userSpaceOnUse" x="166" y="129" width="82" height="123">
<path d="M221.229 129.384C214.695 128.986 209.225 135.52 209.335 142.316L211.065 249.698C228.766 251.221 232.766 249.698 247.122 237.485L240.765 144.439C240.138 138.811 240.746 133.401 235.529 131.985C230.18 130.533 225.785 129.662 221.229 129.384Z" fill="url(#paint2_linear_2124_8985)"/>
<path d="M201.374 130.481C207.918 130.677 212.772 137.681 212.047 144.439L200.584 251.221C182.766 247 177.266 244.5 166.012 232.723L179.765 141C180.899 135.451 181.574 132.711 186.897 131.774C192.356 130.814 196.812 130.344 201.374 130.481Z" fill="url(#paint3_linear_2124_8985)"/>
</mask>
<g mask="url(#mask0_2124_8985)">
<path d="M179.766 141C199.599 142.333 241.066 145.2 242.266 146" stroke="white" stroke-width="2"/>
</g>
<path d="M209.266 166.5C209.766 186 210.766 225.7 210.766 228.5" stroke="white"/>
<path d="M100.894 63.4565C105.197 66.1989 106.569 69.6677 106.785 71.4598C106.824 71.7803 106.895 72.099 107.045 72.385L110.068 78.1665C110.481 78.956 110.28 79.8786 109.493 80.2954C108.553 80.7925 107.062 81.4821 104.843 82.3306C99.9069 84.2179 93.9839 80.4432 91.0225 80.4432C88.061 80.4432 80.1637 82.3306 77.2023 82.3306C74.8331 82.3306 74.5698 81.0723 76.2151 80.4432C77.8604 79.8141 80.1637 79.4995 82.1381 78.5559C83.3867 77.959 84.1124 77.6122 83.1252 76.6685C82.1381 75.7248 76.2151 75.7248 71.2793 74.7812C67.8504 74.1256 68.3178 71.9502 71.2793 71.9495C72.2665 71.9493 82.1381 72.8938 83.1252 71.9502C84.1124 71.0065 76.2151 68.1755 71.2793 66.2881C67.3307 64.7783 68.3178 62.0045 72.2665 63.4565C76.5442 65.0295 85.0995 67.798 85.0995 66.2881C85.0995 64.4008 79.7052 62.0751 76.2151 58.7388C74.2408 56.8514 76.2151 54.9634 78.1894 55.9077C82.1381 58.424 90.2327 63.6454 91.0225 64.4008C91.6722 65.0223 92.5892 64.6211 92.8939 63.9335C93.0247 63.6384 92.9182 63.3088 92.7732 63.0203C91.4471 60.382 89.5294 55.6771 91.0225 54.9634C92.9968 54.0198 94.9711 59.6818 100.894 63.4565Z" fill="#F8E5DD"/>
<path d="M315.983 35.2256C311.602 37.8417 310.129 41.2692 309.861 43.0542C309.813 43.3734 309.733 43.6899 309.575 43.9715L306.385 49.6626C305.949 50.4398 306.123 51.3679 306.898 51.8073C307.823 52.3316 309.294 53.0642 311.487 53.9768C316.366 56.0069 322.396 52.406 325.356 52.4921C328.316 52.5782 336.156 54.6943 339.116 54.7804C341.484 54.8493 341.784 53.5992 340.157 52.9226C338.531 52.2459 336.238 51.8645 334.292 50.8638C333.061 50.2309 332.346 49.8632 333.36 48.9486C334.374 48.034 340.295 48.2062 345.256 47.4064C348.702 46.8508 348.298 44.6627 345.338 44.576C344.351 44.5471 334.456 45.2042 333.497 44.2322C332.538 43.2602 340.514 40.66 345.503 38.917C349.493 37.5225 348.587 34.7212 344.598 36.0578C340.277 37.5058 331.644 40.0244 331.688 38.5152C331.743 36.6286 337.203 34.4608 340.788 31.2273C342.817 29.3981 340.898 27.4536 338.897 28.3401C334.877 30.7405 326.634 35.7243 325.823 36.4564C325.155 37.0588 324.25 36.6312 323.966 35.935C323.843 35.6362 323.959 35.3098 324.113 35.0256C325.515 32.427 327.569 27.7798 326.097 27.0231C324.151 26.0224 322.013 31.6247 315.983 35.2256Z" fill="#F8E5DD"/>
<path d="M142.063 141.188C148.577 139.957 154.882 145.788 155.55 152.617L165.997 259.535C149.516 266.313 139.227 265.007 120.464 252.277L117.635 158.674C117.524 153.012 121.447 148.083 126.454 146.037C132.077 143.74 136.99 142.146 142.063 141.188Z" fill="url(#paint4_linear_2124_8985)"/>
<path d="M151.166 133.088C144.836 134.756 141.688 142.675 143.92 149.095L179.191 250.533C196.981 249.487 212.12 256.612 223.5 237L178.089 139.111C175.731 133.962 170.959 130.791 165.562 131.08C160.027 131.377 155.58 131.925 151.166 133.088Z" fill="url(#paint5_linear_2124_8985)"/>
<path d="M158.155 184C157.312 187.768 159.502 203.443 175 236" stroke="white"/>
<path d="M20.7551 30.813C24.8521 29.7143 35.3962 48.8885 38.4703 54.8973C37.0921 57.9507 34.2625 63.7842 33.9697 62.6914C33.6037 61.3254 28.1395 62.7895 22.0774 59.2895C16.0152 55.7895 10.3513 49.301 6.75686 45.8254C3.79233 42.9588 6.15817 40.8609 10.4889 43.3613C11.3549 43.8613 14.8189 45.8615 15.6851 46.3613C16.5501 46.8604 17.05 45.9958 17.5501 45.1309L17.5511 45.1292C18.352 43.7441 13.8338 34.8993 12.1585 30.468C11.0409 27.5124 11.2948 25.8726 12.9263 25.1389C13.8885 24.7063 14.3362 26.6962 15.0249 27.5047C16.518 26.5186 17.719 28.0716 18.0847 29.4381C19.0469 29.0058 19.523 28.9469 20.7551 30.813Z" fill="#F7DACE"/>
<path d="M14.6201 27.4382L16.5842 32.0363" stroke="#F6D0C0" stroke-width="0.8"/>
<path d="M18.085 29.4382L20.0491 34.0363" stroke="#F6D0C0" stroke-width="0.8"/>
<path d="M20.6826 30.9382L22.6467 35.5363" stroke="#F6D0C0" stroke-width="0.8"/>
<path d="M100.089 81.4019L35.2906 49.6358L29.1795 60.2205L81.0889 90.4544L100.089 81.4019Z" fill="#F7DACE"/>
<path d="M149.152 65.4911L220.038 51.958L223.138 63.7805L154.732 86.7717L149.152 65.4911Z" fill="#F7DACE"/>
<path d="M86.8106 78.3372C121.651 72.3228 140.692 70.6861 157.769 95.2418C169.271 111.782 175.943 121.425 182.601 137.688C154.129 144.995 140.44 151.879 117.797 165.043C117.224 165.376 116.479 165.052 116.312 164.411C105.743 123.912 104.577 119.564 86.8106 78.3372Z" fill="url(#paint6_linear_2124_8985)"/>
<path d="M66.7656 67.1588C66.7656 65.9439 67.8398 65.0097 69.0429 65.1781L116.766 71.8593L98.7656 99.8593L68.0129 87.366C67.2588 87.0597 66.7656 86.3269 66.7656 85.513V67.1588Z" fill="url(#paint7_linear_2124_8985)"/>
<path d="M157.247 63.182L111.193 73.5517L119.933 100.153L164.076 85.7477C165.178 85.3881 165.745 84.1701 165.31 83.0958L157.247 63.182Z" fill="url(#paint8_linear_2124_8985)"/>
<path d="M86.8106 78.3372C121.651 72.3228 140.692 70.6861 157.769 95.2418C169.271 111.782 175.943 121.425 182.601 137.688C154.129 144.995 140.44 151.879 117.797 165.043C117.224 165.376 116.479 165.052 116.312 164.411C105.743 123.912 104.577 119.564 86.8106 78.3372Z" fill="url(#paint9_linear_2124_8985)"/>
<path d="M66.7656 66.009C66.7656 65.4016 67.3027 64.9345 67.9043 65.0187L116.766 71.8593L98.7656 99.8593L68.0129 87.366C67.2588 87.0597 66.7656 86.3269 66.7656 85.513V66.009Z" fill="url(#paint10_linear_2124_8985)"/>
<path d="M157.247 63.182L111.193 73.5517L119.933 100.153L164.076 85.7477C165.178 85.3881 165.745 84.1701 165.31 83.0958L157.247 63.182Z" fill="url(#paint11_linear_2124_8985)"/>
<path d="M116.766 166C128.766 158.5 159.466 141.6 182.266 138" stroke="white"/>
<path fill-rule="evenodd" clip-rule="evenodd" d="M293.336 137.054C295.188 132.431 299.407 128.693 304.297 127.92C308.763 127.213 313.079 126.819 318.296 127.508C323.757 128.228 327.27 132.936 327.871 138.6L338.268 236.581C321.319 251.642 311.288 254.275 294.066 249.698L294.048 248.605C280.301 253.132 270.294 250.895 253.487 239.493L254.395 145.553C254.448 140.076 257.345 135.347 262.258 133.458C268.578 131.028 274.519 129.358 280.43 128.375C286.097 127.433 291.51 131.564 293.336 137.054Z" fill="url(#paint12_linear_2124_8985)"/>
<path d="M294.766 163C294.606 192.259 296.279 204.307 297.766 229.5" stroke="white"/>
<mask id="mask1_2124_8985" style="mask-type:alpha" maskUnits="userSpaceOnUse" x="253" y="127" width="86" height="125">
<path fill-rule="evenodd" clip-rule="evenodd" d="M293.336 137.054C295.188 132.431 299.407 128.693 304.297 127.92C308.763 127.213 313.079 126.819 318.296 127.508C323.757 128.228 327.27 132.936 327.871 138.6L338.268 236.581C321.319 251.642 311.288 254.275 294.066 249.698L294.048 248.605C280.301 253.132 270.294 250.895 253.487 239.493L254.395 145.553C254.448 140.076 257.345 135.347 262.258 133.458C268.578 131.028 274.519 129.358 280.43 128.375C286.097 127.433 291.51 131.564 293.336 137.054Z" fill="url(#paint13_linear_2124_8985)"/>
</mask>
<g mask="url(#mask1_2124_8985)">
<path d="M254.266 154.5C270.266 152.833 309.566 149.4 330.766 149" stroke="white"/>
</g>
<path d="M386.526 37.6197C383.079 41.3824 382.652 45.0882 382.907 46.875C382.953 47.1946 382.966 47.5209 382.896 47.8359L381.471 54.203C381.277 55.0724 381.71 55.9116 382.579 56.1103C383.615 56.3473 385.234 56.6274 387.597 56.8726C392.853 57.4182 397.905 54.2665 400.766 53.5C403.626 52.7335 411.435 50.4852 414.295 49.7188C416.584 49.1056 416.513 47.8221 414.761 47.6402C413.009 47.4584 410.702 47.7507 408.551 47.3502C407.19 47.0968 406.4 46.9496 407.109 45.7826C407.818 44.6156 413.539 43.0826 418.063 40.8936C421.205 39.3729 420.191 37.3926 417.33 38.1585C416.376 38.4138 407.085 41.8811 405.888 41.225C404.69 40.569 411.585 35.7905 415.865 32.69C419.288 30.2096 417.616 27.7858 414.178 30.2103C410.453 32.8369 402.906 37.7254 402.515 36.2669C402.027 34.4439 406.635 30.8013 409.143 26.6753C410.562 24.3413 408.166 23.0287 406.503 24.4518C403.34 27.9043 396.873 35.0428 396.306 35.9769C395.839 36.7454 394.849 36.5952 394.377 36.0099C394.174 35.7587 394.192 35.4127 394.257 35.0966C394.855 32.2049 395.49 27.164 393.863 26.8611C391.712 26.4606 391.27 32.4407 386.526 37.6197Z" fill="#F7DACE"/>
<path d="M314.766 56.0938L385.578 44.1811L388.741 55.9868L326.46 75.3441L314.766 56.0938Z" fill="#F7DACE"/>
<path d="M246.766 52L184.766 58.8889V71.1111L246.766 68V52Z" fill="#F7DACE"/>
<path d="M241.766 51.8594H284.143C285.089 51.8594 285.901 52.5282 286.127 53.4466C289.819 68.4369 296.566 61.2202 296.204 52.8303C296.142 51.4026 297.331 50.0846 298.748 50.2711C314.811 52.3852 325.483 52.0243 344.742 50.0675C345.854 49.9545 346.845 50.7722 346.942 51.8858L348.613 71.108C348.7 72.1096 348.032 73.0196 347.051 73.236C340.206 74.7443 331.113 76.803 323.555 78.4667C322.542 78.6897 321.864 79.619 322.001 80.6469C323.987 95.4953 331.634 148.859 328.766 148.859C312.245 148.859 274.414 151.266 255.354 154.406C254.046 154.622 252.885 153.548 253.005 152.227L259.618 79.4866C259.704 78.5397 259.111 77.6631 258.201 77.3899L241.191 72.287C240.345 72.0332 239.766 71.2545 239.766 70.3713V53.8594C239.766 52.7548 240.661 51.8594 241.766 51.8594Z" fill="url(#paint14_linear_2124_8985)"/>
<path d="M284.5 61C286.397 67.1619 293.535 66.1302 298 61.5C299.624 59.7196 300.697 56.9469 301 54.5" stroke="white"/>
<path d="M242.312 59.1653C269.535 49.1055 283.69 48.6978 310.658 43.6398L314.766 50.5C288.189 61.403 273.954 64.3722 249.064 77.0028L242.312 59.1653Z" fill="#F8E5DD"/>
<path d="M284.112 43.9954L298.758 41.0641L300.381 53.3384C300.977 57.8463 298.484 62.26 294.207 63.8068C293.418 64.0923 292.617 64.3712 291.791 64.6451C288.136 65.8574 284.493 63.0574 284.416 59.2071L284.112 43.9954Z" fill="#F7DACE"/>
<mask id="mask2_2124_8985" style="mask-type:alpha" maskUnits="userSpaceOnUse" x="284" y="44" width="17" height="24">
<path d="M284.112 46.9954L298.758 44.0641L300.318 55.8595C300.943 60.5868 298.143 65.0978 293.63 66.6359L292.337 67.0766C288.492 68.3868 284.484 65.5783 284.403 61.5174L284.112 46.9954Z" fill="#F7DACE"/>
</mask>
<g mask="url(#mask2_2124_8985)">
<path d="M285.766 58.5C290.681 57.6808 298.675 50.241 299.729 42.0463C298.127 42.9216 287.243 46.8891 284.096 50.577C284.52 53.6919 282.766 59 285.766 58.5Z" fill="#F9D3C3"/>
</g>
<path d="M299.764 43.1149C298.327 47.2555 296.591 48.9914 292.251 51.5952C288.779 53.6782 286.176 54.199 282.704 51.5952C279.232 48.9914 275.444 40.0566 278.363 34.2361C280.1 23.8211 283.347 19.5707 295.065 23.6042C301.537 25.8318 302.79 34.3972 299.764 43.1149Z" fill="#F7DACE"/>
<path d="M284.208 20.118C282.487 21.003 279.906 21.2242 278.83 21.2242C279.906 24.5432 279.906 26.7544 286.36 27.8605C292.814 28.9667 299.268 24.5426 297.116 26.7544C294.965 28.9661 296.041 32.2851 298.192 33.3913C299.913 34.2762 299.626 37.4472 299.268 38.922H301.419C303.864 41.3143 312.252 30.3384 304.646 24.5426C297.116 11.5851 286.36 19.0119 284.208 20.118Z" fill="#63382E"/>
<ellipse cx="300.721" cy="41.3589" rx="3.47175" ry="5.20762" transform="rotate(35.9934 300.721 41.3589)" fill="#F7DACE"/>
<path d="M291.023 41.835C292.253 41.8929 292.709 43.5261 291.688 44.2136C289.538 45.6607 288.025 46.5241 285.575 46.8194C282.989 47.1312 280.781 45.1396 280.149 42.6124V42.6124C279.987 41.9622 280.497 41.3391 281.166 41.3706L291.023 41.835Z" fill="#FBBCBC"/>
<g filter="url(#filter0_f_2124_8985)">
<ellipse cx="294.266" cy="40" rx="2.5" ry="3" fill="#F6CAB8"/>
</g>
<g filter="url(#filter1_f_2124_8985)">
<ellipse cx="279.266" cy="40" rx="1.5" ry="3" fill="#F6CAB8"/>
</g>
<rect width="0.983772" height="1.98588" rx="0.491886" transform="matrix(0.992185 0.124777 -0.131082 0.991371 281.764 32.0139)" fill="#36210C"/>
<path d="M302.204 38V38C302.422 38.4692 302.105 38.9168 301.85 39.3667C301.765 39.5152 301.739 39.7113 301.739 40.0297L301.779 41.1292L301.211 40.2692C301.38 40.1168 301.62 39.9971 301.849 39.9971C302.357 39.9971 302.766 40.3672 302.766 40.955C302.766 41.5972 302.377 42 301.849 42C301.111 42 300.766 42.0109 300.766 40.955C300.766 39.7576 301.078 38.5987 302.204 38Z" fill="#F1A99E"/>
<rect width="0.983772" height="1.98588" rx="0.491886" transform="matrix(0.992185 0.124777 -0.131082 0.991371 288.764 33.0139)" fill="#36210C"/>
<path d="M284.766 36C282.556 37 282.2 37.4 283.585 39" stroke="#F1A99E" stroke-width="0.8" stroke-linecap="round"/>
<path d="M173.151 60.1859C144.018 60.0193 139.267 59.1857 121.43 61.5522L123.046 73.6671C144.766 73.6671 148.014 75.0669 176.06 77.9927L173.151 60.1859Z" fill="#F8E5DD"/>
<path d="M114.267 40.9993C117.028 39.8378 123.27 40.0352 126.876 45.2731C128.298 47.3378 129.455 51.897 129.267 54.4993C129.018 57.9382 126.816 59.4522 123.689 61.9996L114.267 40.9993Z" fill="#428BF9"/>
<path d="M104.346 38.0833C91.265 39.7387 96.4741 50.4995 101.197 55.6121C107.495 64.8146 118.867 60.1768 123.766 56.7076C122.716 46.6812 112.916 36.9989 104.346 38.0833Z" fill="#2659A6"/>
<path d="M109.632 67.5L121.158 58L128.591 72.6692C129.026 73.5275 129.146 74.5212 128.739 75.3929C128.211 76.521 127.338 78.0127 126.105 79.8777C123.72 83.4834 118.398 83.1045 116.281 79.3356L109.632 67.5Z" fill="#F7DACE"/>
<mask id="mask3_2124_8985" style="mask-type:alpha" maskUnits="userSpaceOnUse" x="109" y="58" width="20" height="25">
<path d="M109.632 67.5002L121.158 58.0002L128.591 72.6695C129.026 73.5278 129.146 74.5215 128.739 75.3931C128.211 76.5213 127.338 78.0129 126.105 79.878C123.72 83.4836 118.398 83.1048 116.281 79.3358L109.632 67.5002Z" fill="#F7DACE"/>
</mask>
<g mask="url(#mask3_2124_8985)">
<path d="M114.766 82.0002C117.384 81.7026 121.105 67.1376 121.766 61.5002C120.166 62.2764 113.766 70.1147 110.766 73.1868C111.432 75.6122 112.35 82.2749 114.766 82.0002Z" fill="#F9D3C3"/>
</g>
<path d="M112.5 73.5002L116.979 79.9698C116.993 79.9901 117.008 80.0089 117.025 80.0267C119.542 82.6802 125.912 84.6632 129.5 73.5002" stroke="white"/>
<path d="M121.766 57.6228C121.766 64.3403 118.972 69.9351 115.898 72.4946C113.788 74.2524 111.158 74.0531 110.766 73.911C104.899 71.7865 101.233 67.5374 99.7663 60.4555C99.7663 57.2326 99.6875 54.2743 101.232 51.9573C103.249 48.9319 107.326 47 110.766 47C116.841 47 121.766 50.1915 121.766 57.6228Z" fill="#F7DACE"/>
<path d="M123.767 57.9996C121.802 55.9591 120.371 54.7014 118.397 53C113.767 50.0573 104.266 50.0001 100.266 53.9998C100.241 44.5388 110.137 39.9029 114.266 41.0005C118.267 43.4996 124.803 51.9587 123.767 57.9996Z" fill="#111111"/>
<ellipse cx="120.875" cy="59.7978" rx="3.58843" ry="5.0238" transform="rotate(24.5434 120.875 59.7978)" fill="#F7DACE"/>
<path d="M114.062 62.3245C115.007 61.7871 116.133 62.6804 115.796 63.7134C115.011 66.1168 114.327 67.4188 112.615 68.7384C110.733 70.1892 108.067 69.7711 106.278 68.2064V68.2064C105.786 67.7757 105.865 66.9881 106.434 66.6646L114.062 62.3245Z" fill="#FBBCBC"/>
<g filter="url(#filter2_f_2124_8985)">
<ellipse cx="116.266" cy="59" rx="2.5" ry="3" fill="#F6CBB9"/>
</g>
<g filter="url(#filter3_f_2124_8985)">
<ellipse cx="103.965" cy="65.9141" rx="1.5" ry="2.5" transform="rotate(-18 103.965 65.9141)" fill="#F6CBB9"/>
</g>
<rect x="103.766" y="57.6211" width="1" height="2" rx="0.5" transform="rotate(-15 103.766 57.6211)" fill="#111111"/>
<path d="M123.485 57V57C123.602 57.3786 123.356 57.7395 123.279 58.1281C123.259 58.2258 123.252 58.3502 123.252 58.5223L123.272 59.3469L122.988 58.7019C123.073 58.5876 123.193 58.4978 123.307 58.4978C123.561 58.4978 123.766 58.7754 123.766 59.2163C123.766 59.6979 123.571 60 123.307 60C122.938 60 122.766 60.0082 122.766 59.2163C122.766 58.3182 122.922 57.449 123.485 57Z" fill="#F1A99E"/>
<rect x="109.234" y="56.6211" width="1" height="2" rx="0.5" transform="rotate(-15 109.234 56.6211)" fill="#111111"/>
<path d="M108.766 60C107.72 60 105.942 60.4 107.197 62" stroke="#F1A99E" stroke-width="0.8" stroke-linecap="round"/>
<path d="M202.817 65.852L198.96 60.796C198.632 60.3652 198.142 60.0862 197.604 60.0228L161.896 55.8148C160.637 55.6665 159.562 56.7114 159.623 57.9775C159.833 62.3177 159.635 68.2226 157.53 73.4411C157.109 74.4861 157.514 75.7154 158.558 76.141C165.04 78.7848 175.518 81.2694 182.765 83.8594C182.765 109.78 181.397 122.346 177.697 138.329C177.42 139.527 178.268 140.699 179.493 140.795L241.52 145.662C242.749 145.758 243.771 144.731 243.671 143.503C241.703 119.498 240.734 103.826 239.765 82.8594C247.238 80.1891 251.22 79.1405 261.517 74.2856C262.683 73.7358 263.017 72.2357 262.225 71.2184C257.29 64.8777 254.826 60.4835 251.603 55.2306C250.539 53.4965 248.334 52.8861 246.461 53.6797C234.796 58.6218 221.921 60.3762 215.925 60.5179C215.429 60.5296 214.956 60.7117 214.588 61.0447L208.682 66.3914C206.946 67.9629 204.237 67.7138 202.817 65.852Z" fill="url(#paint15_linear_2124_8985)"/>
<path d="M198.112 52.9955L212.758 50.0642L214.286 59.2998C214.925 63.1601 212.677 66.9159 208.974 68.178L206.302 69.0886C202.467 70.3953 198.467 67.6048 198.368 63.555L198.112 52.9955Z" fill="#F8E5DD"/>
<path d="M198 60C197.667 63.8333 197.5 69.5 204.5 69.5C211.973 69.5 213.667 63.8333 213.5 62" stroke="white"/>
<mask id="mask4_2124_8985" style="mask-type:alpha" maskUnits="userSpaceOnUse" x="198" y="50" width="17" height="20">
<path d="M198.112 52.9955L212.758 50.0642L214.286 59.2998C214.925 63.1601 212.677 66.9159 208.974 68.178L206.302 69.0886C202.467 70.3953 198.467 67.6048 198.368 63.555L198.112 52.9955Z" fill="#F8E5DD"/>
</mask>
<g mask="url(#mask4_2124_8985)">
<path d="M198.707 61.4397C202.736 58.8589 208.243 55.8088 209.239 48.4357C207.645 49.2129 199.829 52.2752 196.711 55.5749C197.156 58.3832 196.63 62.7699 198.707 61.4397Z" fill="#F9D3C3"/>
</g>
<path d="M188.844 42.0102C189.839 29.9477 198.465 29.4041 202.446 30.2735C203.442 39.2933 204.836 58.2457 202.446 61.8971C199.46 66.4613 187.516 62.2231 192.161 61.8971C196.806 61.571 187.848 54.0728 188.844 42.0102Z" fill="#36210C"/>
<path d="M210.167 45.3458C210.125 52.5461 203.474 59.3249 198.741 57.4613C194.007 55.5976 188.924 49.8434 192.655 43.034C193.511 36.0561 194.206 30.3994 203.577 31.5501C208.753 32.1855 211.024 38.3679 210.167 45.3458Z" fill="#F8E5DD"/>
<path d="M206.829 43.404C202.801 43.6647 199.108 35.908 197.766 31.9971C201.458 26.4567 210.522 27.4344 216.229 30.3676C221.936 33.3008 223.279 40.1449 222.607 54.159C221.936 68.1731 203.808 61.329 206.829 61.329C209.247 61.329 208.732 53.2899 208.172 49.2703C209.403 47.2062 210.858 43.1432 206.829 43.404Z" fill="#36210C"/>
<ellipse cx="209.113" cy="45.5859" rx="2.64491" ry="3.96736" transform="rotate(24 209.113 45.5859)" fill="#F8E5DD"/>
<g filter="url(#filter4_f_2124_8985)">
<ellipse cx="203.266" cy="47" rx="2.5" ry="3" fill="#F7D6C8"/>
</g>
<g filter="url(#filter5_f_2124_8985)">
<ellipse cx="192.766" cy="48.5" rx="1" ry="2.5" fill="#F7D6C8"/>
</g>
<path d="M201.23 47.9679C202.012 47.8262 202.566 48.7087 202.077 49.3356C200.498 51.3606 199.276 52.461 197.49 53.0292C195.798 53.5679 194.075 52.5266 193.202 50.9802V50.9802C192.812 50.2888 193.22 49.4187 194.001 49.2772L201.23 47.9679Z" fill="#FBBCBC"/>
<path d="M196.766 45C196.243 45 195.354 45.2 195.981 46" stroke="#F1A99E" stroke-width="0.8" stroke-linecap="round"/>
<rect width="0.983772" height="1.98588" rx="0.491886" transform="matrix(0.999894 -0.0145232 0.00816561 0.999967 193.766 42.0143)" fill="#36210C"/>
<path d="M210.485 43V43C210.602 43.3786 210.356 43.7395 210.279 44.1281C210.259 44.2258 210.252 44.3502 210.252 44.5223L210.272 45.3469L209.988 44.7019C210.073 44.5876 210.193 44.4978 210.307 44.4978C210.561 44.4978 210.766 44.7754 210.766 45.2163C210.766 45.6979 210.571 46 210.307 46C209.938 46 209.766 46.0082 209.766 45.2163C209.766 44.3182 209.922 43.449 210.485 43Z" fill="#F1A99E"/>
<rect width="0.983772" height="1.98588" rx="0.491886" transform="matrix(0.999894 -0.0145232 0.00816561 0.999967 198.766 42.0143)" fill="#36210C"/>
</g>
<defs>
<filter id="filter0_f_2124_8985" x="289.766" y="35" width="9" height="10" filterUnits="userSpaceOnUse" color-interpolation-filters="sRGB">
<feFlood flood-opacity="0" result="BackgroundImageFix"/>
<feBlend mode="normal" in="SourceGraphic" in2="BackgroundImageFix" result="shape"/>
<feGaussianBlur stdDeviation="1" result="effect1_foregroundBlur_2124_8985"/>
</filter>
<filter id="filter1_f_2124_8985" x="275.766" y="35" width="7" height="10" filterUnits="userSpaceOnUse" color-interpolation-filters="sRGB">
<feFlood flood-opacity="0" result="BackgroundImageFix"/>
<feBlend mode="normal" in="SourceGraphic" in2="BackgroundImageFix" result="shape"/>
<feGaussianBlur stdDeviation="1" result="effect1_foregroundBlur_2124_8985"/>
</filter>
<filter id="filter2_f_2124_8985" x="111.766" y="54" width="9" height="10" filterUnits="userSpaceOnUse" color-interpolation-filters="sRGB">
<feFlood flood-opacity="0" result="BackgroundImageFix"/>
<feBlend mode="normal" in="SourceGraphic" in2="BackgroundImageFix" result="shape"/>
<feGaussianBlur stdDeviation="1" result="effect1_foregroundBlur_2124_8985"/>
</filter>
<filter id="filter3_f_2124_8985" x="100.342" y="61.4912" width="7.24512" height="8.8457" filterUnits="userSpaceOnUse" color-interpolation-filters="sRGB">
<feFlood flood-opacity="0" result="BackgroundImageFix"/>
<feBlend mode="normal" in="SourceGraphic" in2="BackgroundImageFix" result="shape"/>
<feGaussianBlur stdDeviation="1" result="effect1_foregroundBlur_2124_8985"/>
</filter>
<filter id="filter4_f_2124_8985" x="198.766" y="42" width="9" height="10" filterUnits="userSpaceOnUse" color-interpolation-filters="sRGB">
<feFlood flood-opacity="0" result="BackgroundImageFix"/>
<feBlend mode="normal" in="SourceGraphic" in2="BackgroundImageFix" result="shape"/>
<feGaussianBlur stdDeviation="1" result="effect1_foregroundBlur_2124_8985"/>
</filter>
<filter id="filter5_f_2124_8985" x="189.766" y="44" width="6" height="9" filterUnits="userSpaceOnUse" color-interpolation-filters="sRGB">
<feFlood flood-opacity="0" result="BackgroundImageFix"/>
<feBlend mode="normal" in="SourceGraphic" in2="BackgroundImageFix" result="shape"/>
<feGaussianBlur stdDeviation="1" result="effect1_foregroundBlur_2124_8985"/>
</filter>
<linearGradient id="paint0_linear_2124_8985" x1="171.266" y1="176.5" x2="249.266" y2="176" gradientUnits="userSpaceOnUse">
<stop stop-color="#91D3ED"/>
<stop offset="1" stop-color="#74CBED"/>
</linearGradient>
<linearGradient id="paint1_linear_2124_8985" x1="171.266" y1="176.5" x2="249.266" y2="176" gradientUnits="userSpaceOnUse">
<stop stop-color="#91D3ED"/>
<stop offset="1" stop-color="#74CBED"/>
</linearGradient>
<linearGradient id="paint2_linear_2124_8985" x1="171.266" y1="176.5" x2="249.266" y2="176" gradientUnits="userSpaceOnUse">
<stop stop-color="#91D3ED"/>
<stop offset="1" stop-color="#74CBED"/>
</linearGradient>
<linearGradient id="paint3_linear_2124_8985" x1="171.266" y1="176.5" x2="249.266" y2="176" gradientUnits="userSpaceOnUse">
<stop stop-color="#91D3ED"/>
<stop offset="1" stop-color="#74CBED"/>
</linearGradient>
<linearGradient id="paint4_linear_2124_8985" x1="167.348" y1="131.062" x2="167.348" y2="263.578" gradientUnits="userSpaceOnUse">
<stop stop-color="#333333"/>
<stop offset="1" stop-color="#111111"/>
</linearGradient>
<linearGradient id="paint5_linear_2124_8985" x1="167.348" y1="131.062" x2="167.348" y2="263.578" gradientUnits="userSpaceOnUse">
<stop stop-color="#333333"/>
<stop offset="1" stop-color="#111111"/>
</linearGradient>
<linearGradient id="paint6_linear_2124_8985" x1="176.766" y1="166" x2="66.7656" y2="10.0004" gradientUnits="userSpaceOnUse">
<stop stop-color="#00B488"/>
<stop offset="1" stop-color="#BCF7E9"/>
</linearGradient>
<linearGradient id="paint7_linear_2124_8985" x1="176.766" y1="166" x2="66.7656" y2="10.0004" gradientUnits="userSpaceOnUse">
<stop stop-color="#00B488"/>
<stop offset="1" stop-color="#BCF7E9"/>
</linearGradient>
<linearGradient id="paint8_linear_2124_8985" x1="176.766" y1="166" x2="66.7656" y2="10.0004" gradientUnits="userSpaceOnUse">
<stop stop-color="#00B488"/>
<stop offset="1" stop-color="#BCF7E9"/>
</linearGradient>
<linearGradient id="paint9_linear_2124_8985" x1="176.766" y1="166" x2="66.7656" y2="10.0004" gradientUnits="userSpaceOnUse">
<stop stop-color="#00B488"/>
<stop offset="1" stop-color="#BCF7E9"/>
</linearGradient>
<linearGradient id="paint10_linear_2124_8985" x1="176.766" y1="166" x2="66.7656" y2="10.0004" gradientUnits="userSpaceOnUse">
<stop stop-color="#00B488"/>
<stop offset="1" stop-color="#BCF7E9"/>
</linearGradient>
<linearGradient id="paint11_linear_2124_8985" x1="176.766" y1="166" x2="66.7656" y2="10.0004" gradientUnits="userSpaceOnUse">
<stop stop-color="#00B488"/>
<stop offset="1" stop-color="#BCF7E9"/>
</linearGradient>
<linearGradient id="paint12_linear_2124_8985" x1="255.266" y1="188" x2="296.337" y2="173.277" gradientUnits="userSpaceOnUse">
<stop stop-color="#AEC1C9"/>
<stop offset="1" stop-color="#9DB2BB"/>
</linearGradient>
<linearGradient id="paint13_linear_2124_8985" x1="255.266" y1="188" x2="296.337" y2="173.277" gradientUnits="userSpaceOnUse">
<stop stop-color="#AEC1C9"/>
<stop offset="1" stop-color="#9DB2BB"/>
</linearGradient>
<linearGradient id="paint14_linear_2124_8985" x1="264.766" y1="43.5" x2="346.766" y2="168.5" gradientUnits="userSpaceOnUse">
<stop stop-color="#9DCCF8"/>
<stop offset="1" stop-color="#4F9DE3"/>
</linearGradient>
<linearGradient id="paint15_linear_2124_8985" x1="182.266" y1="59.0005" x2="253.766" y2="175" gradientUnits="userSpaceOnUse">
<stop stop-color="#FCFCFC"/>
<stop offset="1" stop-color="#F6EBE3"/>
</linearGradient>
<clipPath id="clip0_2124_8985">
<rect width="422.67" height="280.58" fill="white"/>
</clipPath>
</defs>
</svg>
