<svg width="24" height="25" viewBox="0 0 24 25" fill="none" xmlns="http://www.w3.org/2000/svg">
<path fill-rule="evenodd" clip-rule="evenodd" d="M8.5205 15.7722C6.85693 15.7722 6.09209 15.7722 4.35123 15.2268C2.74483 15.9733 1.56706 15.6192 0.861653 15.1577C0.546945 14.9518 0.638067 14.5147 0.96528 14.3293C1.90592 13.7964 2.28261 13.2201 1.76461 12.2522C1.13607 11.3695 0.5 9.78007 0.5 8.14138C0.5 3.91805 4.09436 0.5 8.5205 0.5C12.9466 0.5 16.5372 3.91805 16.5372 8.13434C16.5372 12.3506 12.9466 15.7687 8.5205 15.7687V15.7722Z" fill="#00B488"/>
<g style="mix-blend-mode:multiply">
<path fill-rule="evenodd" clip-rule="evenodd" d="M15.2687 24.4997C16.9323 24.4997 17.6971 24.4997 19.438 23.9543C21.0443 24.7009 22.2221 24.3468 22.9275 23.8852C23.2422 23.6793 23.1511 23.2423 22.8239 23.0569C21.8833 22.5239 21.5066 21.9477 22.0246 20.9797C22.6531 20.0971 23.2892 18.5076 23.2892 16.8689C23.2892 12.6456 19.6948 9.22754 15.2687 9.22754C10.8425 9.22754 7.25195 12.6456 7.25195 16.8619C7.25195 21.0782 10.8425 24.4962 15.2687 24.4962V24.4997Z" fill="#00B488"/>
</g>
</svg>
