<svg width="24" height="25" viewBox="0 0 24 25" fill="none" xmlns="http://www.w3.org/2000/svg">
<g style="mix-blend-mode:plus-darker">
<path d="M7.05469 3.8C7.05469 2.2536 8.30829 1 9.85469 1H21.2003C22.7467 1 24.0003 2.2536 24.0003 3.8V21.2C24.0003 22.7464 22.7467 24 21.2003 24H9.85469C8.30829 24 7.05469 22.7464 7.05469 21.2V3.8Z" fill="#00B488"/>
</g>
<path fill-rule="evenodd" clip-rule="evenodd" d="M4.30588 7.70523C4.57266 7.42543 5.01575 7.41488 5.29555 7.68167C5.57535 7.94845 5.5859 8.39154 5.31912 8.67133L2.33589 11.8001H14.4064C14.793 11.8001 15.1064 12.1135 15.1064 12.5001C15.1064 12.8867 14.793 13.2001 14.4064 13.2001H2.33459L5.31912 16.3302C5.5859 16.61 5.57535 17.0531 5.29555 17.3199C5.01575 17.5867 4.57266 17.5761 4.30588 17.2963L0.193982 12.9838C0.165723 12.9542 0.14056 12.9227 0.118495 12.8897C0.0437298 12.7784 0.000110626 12.6443 0.000110626 12.5001C0.000110626 12.3006 0.083602 12.1205 0.217555 11.993L4.30588 7.70523Z" fill="#007F49"/>
</svg>
