<svg width="24" height="25" viewBox="0 0 24 25" fill="none" xmlns="http://www.w3.org/2000/svg">
<g style="mix-blend-mode:plus-darker">
<path d="M7.05469 3.8C7.05469 2.2536 8.30829 1 9.85469 1H21.2003C22.7467 1 24.0003 2.2536 24.0003 3.8V21.2C24.0003 22.7464 22.7467 24 21.2003 24H9.85469C8.30829 24 7.05469 22.7464 7.05469 21.2V3.8Z" fill="#00B488"/>
</g>
<path fill-rule="evenodd" clip-rule="evenodd" d="M10.8006 7.70523C10.5338 7.42543 10.0907 7.41488 9.81089 7.68167C9.5311 7.94845 9.52055 8.39154 9.78733 8.67133L12.7706 11.8001H0.7C0.313401 11.8001 0 12.1135 0 12.5001C0 12.8867 0.313401 13.2001 0.7 13.2001H12.7719L9.78733 16.3302C9.52055 16.61 9.5311 17.0531 9.81089 17.3199C10.0907 17.5867 10.5338 17.5761 10.8006 17.2963L14.9125 12.9838C14.9404 12.9545 14.9654 12.9233 14.9873 12.8907C15.0625 12.7791 15.1063 12.6447 15.1063 12.5001C15.1063 12.3006 15.0228 12.1205 14.8889 11.993L10.8006 7.70523Z" fill="#007F49"/>
</svg>
