<svg width="178" height="177" viewBox="0 0 178 177" fill="none" xmlns="http://www.w3.org/2000/svg">
<path fill-rule="evenodd" clip-rule="evenodd" d="M171.717 77C175.425 77 178.245 80.3292 177.636 83.9864L176.8 89H176.762L164.616 167.799C164.165 170.725 161.647 172.885 158.686 172.885H23.9783C20.3003 172.885 17.4881 169.606 18.0484 165.97L29.1854 93.7191C29.6364 90.7929 32.1546 88.6331 35.1153 88.6331H110.759L110.886 88.6329C113.679 88.6329 115.816 88.0421 117.181 86.7112L117.964 82.0136C118.447 79.1205 120.95 77 123.883 77H171.717Z" fill="#D9D9D9"/>
<rect x="0.316429" y="0.160869" width="54.4947" height="24.4768" rx="12.2384" transform="matrix(0.952017 -0.306045 0.313699 0.949523 -0.0352813 86.9355)" fill="white"/>
<rect x="0.316429" y="0.160869" width="54.4947" height="24.4768" rx="12.2384" transform="matrix(0.952017 -0.306045 0.313699 0.949523 -0.0352813 86.9355)" stroke="#A9E5D2" stroke-width="0.5"/>
<path d="M18.8878 90.0233L23.6974 88.4772L25.2521 93.183L20.4425 94.7291L18.8878 90.0233ZM22.8218 89.8048L20.377 90.5908L21.303 93.3938L23.7478 92.6078L22.8218 89.8048ZM25.216 87.1445L26.4155 86.7589L28.693 93.6524L27.4934 94.038L25.216 87.1445ZM26.9877 89.6L28.7927 89.0198L29.1164 89.9997L27.3114 90.5799L26.9877 89.6ZM24.704 94.3928L25.7322 94.0622L25.83 94.3585C26.4587 96.2613 25.2691 98.1689 23.1046 99.3059L22.3237 98.5107C24.2594 97.5608 25.2385 96.0108 24.8019 94.689L24.704 94.3928ZM24.8753 94.3377L25.8921 94.0108L25.99 94.3071C26.4266 95.6288 28.1665 96.3048 30.275 95.9546L30.1305 97.0473C27.7024 97.3866 25.6019 96.5368 24.9732 94.6339L24.8753 94.3377ZM31.8529 86.0067L32.8354 85.6908L33.0763 86.4201C33.6861 88.2659 33.1202 90.2251 31.4575 91.4276L30.5396 90.6765C32.0191 89.6464 32.5342 88.069 32.0938 86.7359L31.8529 86.0067ZM32.0928 85.9296L33.0753 85.6137L33.3162 86.343C33.734 87.6077 35.0775 88.4993 36.8464 88.46L36.5611 89.5853C34.5335 89.6069 32.921 88.4363 32.3337 86.6588L32.0928 85.9296ZM29.512 86.4567L35.2127 84.6241L35.5289 85.5812L29.8282 87.4138L29.512 86.4567ZM36.2965 83.5824L37.4961 83.1968L39.3595 88.837L38.1599 89.2226L36.2965 83.5824ZM32.7011 91.5194L33.8778 91.1412L34.2429 92.2464L38.6984 90.8141L38.3332 89.7089L39.5213 89.3269L40.8953 93.4858L34.0751 95.6783L32.7011 91.5194ZM34.5516 93.1807L34.9318 94.3316L39.3872 92.8993L39.007 91.7484L34.5516 93.1807Z" fill="#111111"/>
<g filter="url(#filter0_i_768_3696)">
<path fill-rule="evenodd" clip-rule="evenodd" d="M109.876 113.311C104.422 112.479 99.2715 116.218 98.373 121.662C97.4744 127.105 101.167 132.192 106.622 133.024L117.511 134.684L117.197 136.588C117.124 137.028 117.62 137.329 117.983 137.066L120.615 135.157L127.401 136.191C132.855 137.022 138.005 133.284 138.904 127.84C139.802 122.396 136.109 117.309 130.655 116.478L109.876 113.311Z" fill="url(#paint0_linear_768_3696)" fill-opacity="0.76"/>
</g>
<path d="M109.406 120.586L110.042 120.682L109.989 121.007C109.789 122.216 108.52 122.985 107.021 122.998L106.834 122.368C108.144 122.383 109.215 121.739 109.352 120.91L109.406 120.586ZM109.537 120.606L110.167 120.701L110.113 121.026C109.979 121.841 110.794 122.786 112.045 123.161L111.664 123.705C110.243 123.248 109.285 122.132 109.483 120.93L109.537 120.606ZM108.787 124.329L109.507 124.438L109.116 126.8L108.397 126.691L108.787 124.329ZM106.385 123.496L112.101 124.366L112.003 124.96L106.287 124.09L106.385 123.496ZM114.741 121.525L115.336 121.616L115.236 122.224C115.031 123.46 114.236 124.408 113.047 124.652L112.761 124.02C113.815 123.82 114.489 123.052 114.64 122.133L114.741 121.525ZM114.879 121.546L115.467 121.636L115.357 122.306C115.222 123.121 115.636 123.963 116.533 124.418L116.059 124.926C115.049 124.383 114.584 123.335 114.769 122.216L114.879 121.546ZM117.536 121.611L118.263 121.722L117.637 125.506L116.911 125.396L117.536 121.611ZM117.805 123.245L118.899 123.412L118.799 124.012L117.706 123.846L117.805 123.245ZM115.576 125.355C116.877 125.554 117.608 126.111 117.485 126.857C117.362 127.603 116.487 127.916 115.186 127.717C113.878 127.518 113.147 126.961 113.271 126.215C113.394 125.469 114.268 125.156 115.576 125.355ZM115.483 125.922C114.604 125.788 114.056 125.924 113.99 126.325C113.924 126.725 114.401 127.017 115.28 127.151C116.159 127.285 116.699 127.148 116.765 126.747C116.831 126.347 116.362 126.056 115.483 125.922ZM119.188 126.167L119.624 126.234C120.392 126.351 121.087 126.435 121.941 126.417L121.907 127.013C121.03 127.036 120.314 126.948 119.525 126.828L119.089 126.761L119.188 126.167ZM119.758 122.629L122.007 122.972L121.628 125.265L120.099 125.032L119.855 126.51L119.149 126.402L119.489 124.344L121.025 124.578L121.212 123.445L119.662 123.209L119.758 122.629ZM124.393 122.655L125.085 122.761L124.042 129.073L123.35 128.968L124.393 122.655ZM122.035 124.562L123.039 124.715L122.94 125.309L121.937 125.156L122.035 124.562ZM123.09 122.598L123.762 122.701L122.794 128.557L122.123 128.455L123.09 122.598ZM130.581 123.59L131.307 123.701L130.262 130.027L129.535 129.917L130.581 123.59ZM128.962 125.659L130.401 125.878L130.304 126.465L128.865 126.246L128.962 125.659ZM127.442 124.082L128.023 124.171L127.894 124.951C127.657 126.388 126.74 127.685 125.57 128.067L125.236 127.428C126.289 127.107 127.124 126.002 127.313 124.863L127.442 124.082ZM127.601 124.107L128.175 124.194L128.046 124.974C127.868 126.052 128.307 127.301 129.208 127.905L128.692 128.408C127.692 127.717 127.244 126.268 127.472 124.887L127.601 124.107ZM126.123 123.563L129.597 124.092L129.5 124.679L126.026 124.15L126.123 123.563Z" fill="white"/>
<g clip-path="url(#clip0_768_3696)">
<rect width="54.9578" height="24.9938" rx="12.4969" transform="matrix(0.504021 -0.863691 0.871435 0.490511 123 122.794)" fill="white"/>
<path d="M145.812 116.667L150.82 108.085L151.72 108.592L146.712 117.173L145.812 116.667ZM145.679 111.635L146.308 110.557L148.849 111.988L148.22 113.065L145.679 111.635ZM139.634 111.923L143.499 105.3L148.09 107.884L144.225 114.507L139.634 111.923ZM143.761 106.852L141.136 111.35L143.97 112.945L146.595 108.447L143.761 106.852ZM147.879 96.1045L148.514 95.0162L153.942 98.0711L153.307 99.1594L147.879 96.1045ZM150.806 104.54L154.423 98.3419L157.947 100.326L154.33 106.523L150.806 104.54ZM154.668 99.898L152.297 103.961L154.074 104.961L156.445 100.899L154.668 99.898ZM146.003 100.391C146.85 98.9397 148.387 98.4005 149.726 99.1539C151.043 99.8956 151.367 101.483 150.521 102.934C149.674 104.385 148.11 104.922 146.792 104.181C145.454 103.427 145.156 101.842 146.003 100.391ZM146.913 100.903C146.423 101.742 146.593 102.664 147.409 103.123C148.225 103.583 149.11 103.255 149.6 102.416C150.09 101.576 149.924 100.67 149.109 100.211C148.293 99.752 147.403 100.063 146.913 100.903Z" fill="#111111"/>
</g>
<rect x="0.343864" y="-0.093295" width="54.4578" height="24.4938" rx="12.2469" transform="matrix(0.504021 -0.863691 0.871435 0.490511 123.252 123.043)" stroke="#A9E5D2" stroke-width="0.5"/>
<g filter="url(#filter1_i_768_3696)">
<path fill-rule="evenodd" clip-rule="evenodd" d="M31.6919 162.101C25.2346 163.564 18.7126 159.54 17.1245 153.112C15.5364 146.684 19.4837 140.287 25.9409 138.824L40.1963 135.593L40.0318 131.851C40.0118 131.396 40.5664 131.165 40.8897 131.493L44.0652 134.716L51.3181 133.073C57.7753 131.609 64.2974 135.634 65.8855 142.061C67.4736 148.489 63.5263 154.886 57.0691 156.35L31.6919 162.101Z" fill="url(#paint1_linear_768_3696)" fill-opacity="0.76"/>
</g>
<path d="M28.8219 153.358L28.6396 152.62L29.9036 152.334L28.9211 148.357L27.8834 148.592L27.7433 148.025C28.2665 147.809 28.6064 147.584 28.892 147.306L29.5708 147.152L30.8008 152.13L31.9243 151.876L32.1066 152.614L28.8219 153.358ZM36.4304 144.827L37.2496 144.641L38.5199 149.782L37.7007 149.968L36.4304 144.827ZM34.146 151.987L39.0068 150.886L39.1699 151.546L34.3091 152.647L34.146 151.987ZM33.7335 150.318L34.5527 150.132L35.0267 152.05L34.2074 152.236L33.7335 150.318ZM33.5202 145.986C34.5969 145.742 35.5887 146.289 35.8459 147.329C36.0991 148.354 35.4719 149.284 34.3952 149.528C33.3185 149.772 32.3151 149.212 32.0618 148.187C31.8047 147.146 32.4435 146.23 33.5202 145.986ZM33.6929 146.685C33.0688 146.827 32.6964 147.354 32.8576 148.006C33.015 148.643 33.5945 148.955 34.2187 148.813C34.8429 148.672 35.2074 148.146 35.05 147.51C34.8888 146.857 34.3171 146.544 33.6929 146.685ZM45.608 142.738L46.396 142.56L48.1498 149.658L47.3618 149.837L45.608 142.738ZM43.3319 146.231L45.0094 145.851L45.1705 146.504L43.4931 146.884L43.3319 146.231ZM44.16 143.247L44.9246 143.074L46.5518 149.66L45.7872 149.833L44.16 143.247ZM42.7956 144.294L43.5837 144.116C44.0615 146.05 43.7817 147.852 42.1054 149.437L41.4953 148.969C42.9056 147.607 43.2523 146.143 42.834 144.45L42.7956 144.294ZM40.8217 144.742L43.0765 144.231L43.2396 144.891L40.9848 145.402L40.8217 144.742ZM52.1924 141.246L53.0038 141.062L54.7576 148.161L53.9462 148.345L52.1924 141.246ZM53.5208 143.955L54.8159 143.662L54.9829 144.337L53.6877 144.631L53.5208 143.955ZM47.7114 143.418L51.8934 142.47L52.0546 143.123L47.8726 144.071L47.7114 143.418ZM50.1136 144.104C51.1279 143.874 52.0458 144.388 52.2856 145.359C52.5274 146.337 51.9473 147.19 50.933 147.42C49.9109 147.652 48.993 147.138 48.7513 146.16C48.5114 145.189 49.0915 144.336 50.1136 144.104ZM50.2786 144.772C49.7013 144.903 49.3837 145.385 49.5315 145.983C49.6792 146.581 50.1906 146.883 50.768 146.752C51.3375 146.623 51.6532 146.133 51.5054 145.535C51.3577 144.937 50.8482 144.643 50.2786 144.772ZM49.1589 142.04L49.9781 141.855L50.2909 143.121L49.4716 143.306L49.1589 142.04Z" fill="white"/>
<rect x="0.254451" y="0.245643" width="74.5" height="24.4743" rx="12.2371" transform="matrix(0.999851 -0.0172665 0.0179513 0.999839 53.9956 138.782)" fill="white"/>
<rect x="0.254451" y="0.245643" width="74.5" height="24.4743" rx="12.2371" transform="matrix(0.999851 -0.0172665 0.0179513 0.999839 53.9956 138.782)" stroke="#A9E5D2" stroke-width="0.5"/>
<path d="M72.2735 147.162C73.7132 147.137 74.7885 148.199 74.8163 149.747C74.8441 151.294 73.8074 152.381 72.3676 152.405C70.9158 152.43 69.8528 151.381 69.825 149.833C69.7972 148.285 70.8217 147.187 72.2735 147.162ZM72.2924 148.218C71.5005 148.232 70.9478 148.865 70.9648 149.813C70.9816 150.749 71.557 151.375 72.3489 151.362C73.1287 151.348 73.6932 150.702 73.6764 149.766C73.6594 148.819 73.0723 148.205 72.2924 148.218ZM77.7806 146.395L78.9684 146.375L79.0856 152.901L77.8978 152.922L77.7806 146.395ZM76.2579 149.158L78.1776 149.125L78.1959 150.144L76.2762 150.178L76.2579 149.158ZM75.4564 146.627L76.6322 146.607L76.7449 152.882L75.569 152.902L75.4564 146.627ZM71.6686 153.582L79.0955 153.453L79.1651 157.329L77.9173 157.35L77.866 154.495L71.6869 154.601L71.6686 153.582ZM81.6191 153.686L82.531 153.67C84.5227 153.636 85.9736 153.563 87.6486 153.27L87.7867 154.275C86.0761 154.593 84.5772 154.667 82.5495 154.702L81.6377 154.718L81.6191 153.686ZM81.5041 147.279L86.9273 147.185L86.9458 148.217L82.7704 148.289L82.8732 154.012L81.6254 154.034L81.5041 147.279ZM82.5189 150.322L86.5503 150.252L86.5682 151.248L82.5368 151.318L82.5189 150.322ZM88.6378 146.196L89.8976 146.174L90.0945 157.14L88.8347 157.162L88.6378 146.196ZM99.771 145.991L101.031 145.97L101.228 156.96L99.9683 156.982L99.771 145.991ZM92.6004 147.027L93.8482 147.006L93.8984 149.801L96.67 149.753L96.6198 146.958L97.8676 146.936L98.0018 154.411L92.7346 154.502L92.6004 147.027ZM93.9161 150.785L93.9641 153.461L96.7357 153.413L96.6877 150.737L93.9161 150.785ZM103.934 153.3L104.846 153.285C106.837 153.25 108.288 153.177 109.963 152.884L110.102 153.89C108.391 154.208 106.892 154.282 104.864 154.317L103.952 154.332L103.934 153.3ZM103.819 146.894L109.242 146.8L109.261 147.832L105.085 147.904L105.188 153.627L103.94 153.648L103.819 146.894ZM104.834 149.936L108.865 149.867L108.883 150.863L104.852 150.932L104.834 149.936ZM110.953 145.81L112.212 145.788L112.409 156.755L111.149 156.776L110.953 145.81Z" fill="#111111"/>
<rect x="0.180319" y="0.302356" width="54.4967" height="24.4759" rx="12.2379" transform="matrix(0.970529 0.240986 -0.249253 0.968438 27.0807 98.7844)" fill="white"/>
<rect x="0.180319" y="0.302356" width="54.4967" height="24.4759" rx="12.2379" transform="matrix(0.970529 0.240986 -0.249253 0.968438 27.0807 98.7844)" stroke="#A9E5D2" stroke-width="0.5"/>
<path d="M45.2097 111.747L46.2579 112.007L46.1532 112.414C45.6687 114.297 43.443 115.29 40.9278 115.048L40.7306 113.986C42.922 114.233 44.779 113.421 45.105 112.154L45.2097 111.747ZM45.4077 111.796L46.4559 112.057L46.3512 112.463C46.0312 113.707 47.2777 115.315 49.3139 116.117L48.6144 116.957C46.2964 115.998 44.8215 114.074 45.303 112.203L45.4077 111.796ZM43.777 117.314L44.9882 117.614L44.5426 119.346L43.3313 119.045L43.777 117.314ZM39.7787 115.517L49.3986 117.906L49.1474 118.882L39.5275 116.493L39.7787 115.517ZM40.2909 117.957L47.663 119.787L46.7627 123.285L45.5515 122.984L46.2035 120.451L40.0426 118.921L40.2909 117.957ZM58.9757 115.017L60.1986 115.321L58.5535 121.712L57.3307 121.409L58.9757 115.017ZM59.1729 117.91L61.013 118.367L60.7528 119.378L58.9127 118.921L59.1729 117.91ZM51.4195 120.497L58.4189 122.235L57.4648 125.942L56.2419 125.639L56.9448 122.908L51.1682 121.473L51.4195 120.497ZM52.097 114.014L53.3082 114.314L52.9104 115.86L55.5075 116.505L55.9053 114.959L57.1049 115.257L55.7948 120.347L50.7869 119.104L52.097 114.014ZM52.6651 116.813L52.2464 118.44L54.8435 119.085L55.2622 117.458L52.6651 116.813Z" fill="#111111"/>
<g filter="url(#filter2_i_768_3696)">
<ellipse cx="16.4527" cy="12.5235" rx="16.4527" ry="12.5235" transform="matrix(0.89357 0.454828 -0.484222 0.871897 68 87.8301)" fill="url(#paint2_linear_768_3696)" fill-opacity="0.76"/>
</g>
<path d="M70.056 103.73L75.9308 106.794L75.6075 107.363L69.7327 104.299L70.056 103.73ZM72.9902 104.424L73.7299 104.81L73.2253 105.698L72.4856 105.312L72.9902 104.424ZM69.6958 106.051L74.1766 108.388L73.8494 108.964L69.3685 106.627L69.6958 106.051ZM70.2634 105.052L71.0102 105.442L70.2494 106.781L69.5026 106.391L70.2634 105.052ZM72.1445 100.737L77.4006 103.478L77.0852 104.033L71.8291 101.292L72.1445 100.737ZM74.3377 102.897C75.6962 103.605 76.2783 104.349 75.9235 104.973C75.5647 105.605 74.5963 105.54 73.2378 104.832C71.8865 104.127 71.2973 103.379 71.656 102.748C72.0108 102.124 72.9864 102.192 74.3377 102.897ZM74.042 103.417C73.1316 102.942 72.5866 102.847 72.417 103.145C72.2475 103.443 72.6231 103.837 73.5335 104.312C74.4439 104.786 74.9929 104.875 75.1624 104.577C75.3319 104.278 74.9524 103.892 74.042 103.417ZM74.7563 101.316L75.496 101.702L74.9638 102.639L74.2241 102.253L74.7563 101.316ZM83.0355 105.697L83.7823 106.086L81.8032 109.568L81.0564 109.179L83.0355 105.697ZM82.7797 107.38L83.9034 107.966L83.5604 108.569L82.4367 107.983L82.7797 107.38ZM78.7574 103.879L79.4971 104.265L79.0122 105.118L80.5982 105.945L81.0831 105.092L81.8157 105.474L80.1639 108.381L77.1055 106.786L78.7574 103.879ZM78.6889 105.687L78.1764 106.589L79.7625 107.416L80.275 106.514L78.6889 105.687ZM77.4808 107.683L78.2205 108.069L77.8421 108.735L80.5234 110.133L80.9019 109.467L81.6416 109.853L80.2224 112.35L76.0616 110.18L77.4808 107.683ZM77.5188 109.303L77.1325 109.983L79.8138 111.381L80.2002 110.702L77.5188 109.303Z" fill="white"/>
<path d="M137.049 134.872C137.859 133.594 139.746 133.654 140.486 134.981L141.377 136.579C141.867 137.457 142.93 137.84 143.863 137.473L145.56 136.805C146.97 136.25 148.466 137.407 148.286 138.912L148.07 140.724C147.951 141.72 148.59 142.653 149.563 142.905L151.332 143.364C152.802 143.745 153.337 145.557 152.306 146.665L151.066 147.998C150.384 148.732 150.353 149.859 150.995 150.635L152.161 152.044C153.131 153.215 152.499 154.99 151.011 155.278L149.22 155.624C148.235 155.814 147.547 156.706 147.612 157.708L147.73 159.53C147.828 161.043 146.272 162.104 144.895 161.462L143.236 160.688C142.325 160.263 141.243 160.577 140.707 161.423L139.731 162.963C138.92 164.241 137.034 164.181 136.294 162.854L135.403 161.256C134.913 160.377 133.85 159.995 132.917 160.362L131.219 161.03C129.81 161.584 128.314 160.427 128.493 158.922L128.709 157.111C128.828 156.115 128.19 155.182 127.217 154.929L125.447 154.471C123.977 154.09 123.443 152.277 124.473 151.169L125.713 149.836C126.396 149.103 126.426 147.975 125.785 147.2L124.618 145.791C123.649 144.62 124.28 142.844 125.769 142.557L127.56 142.211C128.545 142.02 129.233 141.129 129.168 140.127L129.049 138.305C128.951 136.791 130.507 135.731 131.884 136.373L133.543 137.147C134.454 137.572 135.536 137.257 136.073 136.412L137.049 134.872Z" fill="url(#paint3_linear_768_3696)" fill-opacity="0.76"/>
<path d="M130.124 148.559L133.091 143.476L133.904 143.939L131.333 148.345L133.503 149.58L133.108 150.257L130.124 148.559ZM134.002 150.766L136.969 145.682L137.783 146.145L134.816 151.229L134.002 150.766ZM136.149 151.987L139.116 146.903L139.93 147.366L138.527 149.77L138.541 149.778L141.891 148.482L142.796 148.996L140.065 150.056L140.086 154.226L139.196 153.72L139.2 150.41L137.854 150.923L136.963 152.45L136.149 151.987ZM140.768 154.614L143.735 149.531L146.768 151.256L146.373 151.933L144.154 150.67L143.332 152.079L145.203 153.144L144.804 153.828L142.933 152.763L141.977 154.4L144.273 155.706L143.878 156.383L140.768 154.614Z" fill="white"/>
<g filter="url(#filter3_bi_768_3696)">
<path fill-rule="evenodd" clip-rule="evenodd" d="M95.3455 82.835C92.419 82.835 90.1181 85.3372 90.3631 88.2534L90.6033 91.1143C89.7351 94.5132 87.1123 94.7227 83.1275 94.7289H12.0718C8.36608 94.7289 5.54633 98.0548 6.15264 101.711L17.1491 168.015C17.6293 170.91 20.1335 173.033 23.0683 173.033H157.754C161.46 173.033 164.279 169.707 163.673 166.051L151.845 94.7293L151.844 94.7289L150.687 87.841C150.202 84.9514 147.701 82.835 144.77 82.835H95.3455Z" fill="#D9D9D9" fill-opacity="0.38"/>
</g>
<path d="M49.0939 140.942C47.7339 140.942 46.3707 140.697 45.0043 140.206C43.6356 139.699 42.3815 138.986 41.2418 138.067L42.8795 135.597C43.9782 136.452 45.0027 137.07 45.9532 137.45C46.9197 137.83 47.9069 138.02 48.9149 138.02C49.6189 138.02 50.2156 137.941 50.7049 137.782C51.1919 137.608 51.5487 137.363 51.7753 137.046C52.0179 136.729 52.1085 136.357 52.0472 135.929C51.9655 135.359 51.695 134.924 51.2359 134.623C50.7745 134.306 50.0273 134.06 48.9943 133.886L45.5766 133.316C44.1185 133.078 42.959 132.58 42.098 131.819C41.253 131.059 40.7442 130.077 40.5717 128.873C40.4241 127.844 40.5598 126.949 40.9788 126.189C41.4138 125.429 42.0909 124.851 43.0102 124.455C43.9431 124.043 45.0896 123.837 46.4496 123.837C47.6816 123.837 48.9351 124.043 50.2102 124.455C51.5012 124.866 52.671 125.437 53.7194 126.165L52.2152 128.731C50.2645 127.401 48.4011 126.735 46.6251 126.735C46.0011 126.735 45.4685 126.815 45.0272 126.973C44.5859 127.131 44.2577 127.353 44.0426 127.638C43.8412 127.907 43.7677 128.232 43.8222 128.612C43.8949 129.119 44.1356 129.515 44.5445 129.8C44.9511 130.069 45.5966 130.275 46.4811 130.418L49.724 130.94C51.4426 131.21 52.7747 131.74 53.7202 132.532C54.6634 133.308 55.227 134.338 55.4109 135.62C55.5653 136.697 55.4125 137.64 54.9523 138.448C54.4898 139.239 53.7543 139.857 52.7459 140.301C51.7512 140.728 50.5339 140.942 49.0939 140.942ZM64.3489 140.942C63.1009 140.942 61.932 140.657 60.8423 140.087C59.7525 139.517 58.8424 138.748 58.1119 137.782C57.3814 136.816 56.9298 135.731 56.7573 134.528C56.5847 133.324 56.7172 132.239 57.1547 131.273C57.6059 130.291 58.2946 129.515 59.2209 128.945C60.1631 128.375 61.2583 128.089 62.5063 128.089C63.7543 128.089 64.9231 128.375 66.0129 128.945C67.1186 129.515 68.0299 130.291 68.7467 131.273C69.4772 132.239 69.9287 133.324 70.1013 134.528C70.2738 135.731 70.1334 136.816 69.6799 137.782C69.2424 138.748 68.5605 139.517 67.6343 140.087C66.708 140.657 65.6129 140.942 64.3489 140.942ZM63.9436 138.115C64.5996 138.115 65.1609 137.957 65.6274 137.64C66.11 137.323 66.4647 136.895 66.6915 136.357C66.9321 135.803 67.0046 135.193 66.9093 134.528C66.8116 133.847 66.5642 133.237 66.167 132.698C65.7858 132.16 65.3085 131.732 64.7351 131.415C64.1754 131.083 63.5676 130.917 62.9116 130.917C62.2716 130.917 61.7114 131.083 61.2311 131.415C60.7485 131.732 60.3938 132.16 60.167 132.698C59.9402 133.237 59.8756 133.847 59.9733 134.528C60.0686 135.193 60.3081 135.803 60.6915 136.357C61.0727 136.895 61.55 137.323 62.1234 137.64C62.6969 137.957 63.3036 138.115 63.9436 138.115ZM73.0079 140.705L70.6237 124.075L73.8334 123.528L76.2959 140.705H73.0079ZM78.8672 140.705L77.0928 128.327H80.3808L82.1552 140.705H78.8672ZM78.5136 126.854C78.0016 126.854 77.5355 126.672 77.1153 126.308C76.695 125.943 76.4486 125.508 76.3759 125.001C76.301 124.478 76.4226 124.043 76.7406 123.694C77.0564 123.33 77.4703 123.148 77.9823 123.148C78.5103 123.148 78.9764 123.33 79.3806 123.694C79.7986 124.043 80.045 124.478 80.1199 125.001C80.1926 125.508 80.071 125.943 79.7553 126.308C79.4555 126.672 79.0416 126.854 78.5136 126.854ZM90.6819 140.895C89.2899 140.895 88.1896 140.586 87.381 139.968C86.5862 139.335 86.1025 138.416 85.93 137.212L85.0444 131.035H82.4764L82.0881 128.327H84.6561L84.2032 125.167L87.3856 124.431L87.9442 128.327H91.5202L91.9084 131.035H88.3324L89.1226 136.547C89.2043 137.117 89.3914 137.529 89.6837 137.782C89.9738 138.02 90.4388 138.139 91.0788 138.139C91.3988 138.139 91.6845 138.123 91.936 138.091C92.2012 138.044 92.4858 137.965 92.7899 137.854L93.1748 140.538C92.8547 140.649 92.4432 140.736 91.9402 140.8C91.4533 140.863 91.0339 140.895 90.6819 140.895ZM101.128 140.942C99.8799 140.942 98.7111 140.657 97.6213 140.087C96.5316 139.517 95.6215 138.748 94.8909 137.782C94.1604 136.816 93.7089 135.731 93.5363 134.528C93.3638 133.324 93.4962 132.239 93.9337 131.273C94.385 130.291 95.0737 129.515 96 128.945C96.9422 128.375 98.0373 128.089 99.2853 128.089C100.533 128.089 101.702 128.375 102.792 128.945C103.898 129.515 104.809 130.291 105.526 131.273C106.256 132.239 106.708 133.324 106.88 134.528C107.053 135.731 106.912 136.816 106.459 137.782C106.021 138.748 105.34 139.517 104.413 140.087C103.487 140.657 102.392 140.942 101.128 140.942ZM100.723 138.115C101.379 138.115 101.94 137.957 102.407 137.64C102.889 137.323 103.244 136.895 103.471 136.357C103.711 135.803 103.784 135.193 103.688 134.528C103.591 133.847 103.343 133.237 102.946 132.698C102.565 132.16 102.088 131.732 101.514 131.415C100.954 131.083 100.347 130.917 99.6906 130.917C99.0506 130.917 98.4905 131.083 98.0102 131.415C97.5276 131.732 97.1729 132.16 96.9461 132.698C96.7193 133.237 96.6547 133.847 96.7523 134.528C96.8477 135.193 97.0871 135.803 97.4706 136.357C97.8518 136.895 98.3291 137.323 98.9025 137.64C99.4759 137.957 100.083 138.115 100.723 138.115ZM115.629 140.942C114.669 140.942 113.783 140.736 112.972 140.324C112.175 139.897 111.507 139.311 110.968 138.566C110.446 137.822 110.115 136.967 109.977 136.001L108.876 128.327H112.164L113.196 135.525C113.31 136.317 113.633 136.951 114.165 137.426C114.713 137.901 115.387 138.139 116.187 138.139C116.731 138.139 117.204 138.036 117.607 137.83C118.023 137.608 118.347 137.299 118.578 136.903L117.348 128.327H120.636L122.411 140.705H119.123L118.98 139.707C118.138 140.53 117.021 140.942 115.629 140.942ZM124.973 140.705L123.199 128.327H126.487L126.685 129.705C127.007 129.166 127.428 128.755 127.947 128.47C128.467 128.185 129.078 128.042 129.782 128.042C130.392 128.058 130.862 128.153 131.191 128.327L131.6 131.178C131.344 131.067 131.068 130.988 130.774 130.94C130.477 130.877 130.176 130.845 129.872 130.845C129.232 130.845 128.671 131.004 128.188 131.32C127.706 131.637 127.346 132.089 127.11 132.675L128.261 140.705H124.973Z" fill="#111111"/>
<g filter="url(#filter4_i_768_3696)">
<path fill-rule="evenodd" clip-rule="evenodd" d="M46.9725 0C32.076 0 20 12.076 20 26.9726C20 41.8691 32.076 53.9451 46.9725 53.9451H89.7499L95.1963 61.1996C96.2523 62.6062 98.479 62.0628 98.7685 60.3279L99.8334 53.9451H130.027C144.924 53.9451 157 41.8691 157 26.9726C157 12.076 144.924 0 130.027 0H46.9725Z" fill="url(#paint4_linear_768_3696)"/>
</g>
<path d="M40.497 23.772H41.388V25.587C41.388 27.765 40.607 29.877 39.078 30.812L38.352 29.954C39.793 29.107 40.497 27.303 40.497 25.587V23.772ZM40.706 23.772H41.608V25.51C41.608 27.204 42.246 28.876 43.61 29.624L42.928 30.537C41.388 29.657 40.706 27.655 40.706 25.51V23.772ZM45.986 22.859H47.086V32.913H45.986V22.859ZM44.556 26.841H46.371V27.776H44.556V26.841ZM43.786 23.046H44.875V32.429H43.786V23.046ZM48.6251 30.79H57.7331V31.736H48.6251V30.79ZM52.5851 28.744H53.7291V31.175H52.5851V28.744ZM49.6921 23.563H56.6441V26.742H50.8581V28.612H49.7141V25.829H55.5001V24.487H49.6921V23.563ZM49.7141 28.139H56.8751V29.074H49.7141V28.139ZM58.7333 27.864H67.8413V28.788H58.7333V27.864ZM62.7813 28.458H63.9473V30.691H62.7813V28.458ZM59.8553 31.769H66.8403V32.715H59.8553V31.769ZM59.8553 29.745H61.0103V32.022H59.8553V29.745ZM63.2763 23.079C65.4213 23.079 66.8403 23.871 66.8403 25.136C66.8403 26.39 65.4213 27.182 63.2763 27.182C61.1313 27.182 59.7123 26.39 59.7123 25.136C59.7123 23.871 61.1313 23.079 63.2763 23.079ZM63.2763 24.003C61.8683 24.003 60.9443 24.421 60.9443 25.136C60.9443 25.84 61.8683 26.247 63.2763 26.247C64.6953 26.247 65.6083 25.84 65.6083 25.136C65.6083 24.421 64.6953 24.003 63.2763 24.003ZM78.8141 26.775H80.6291V27.732H78.8141V26.775ZM77.9671 22.848H79.1221V32.902H77.9671V22.848ZM71.6861 23.827H72.8301V30.064H71.6861V23.827ZM71.6861 29.437H72.5111C73.9741 29.437 75.5141 29.338 77.1531 29.008L77.2851 29.954C75.5911 30.306 74.0181 30.405 72.5111 30.405H71.6861V29.437ZM81.4423 27.457H90.5503V28.315H81.4423V27.457ZM82.4983 28.986H89.4393V31.241H83.6643V32.275H82.5203V30.482H88.3063V29.789H82.4983V28.986ZM82.5203 32H89.7473V32.803H82.5203V32ZM82.5863 23.101H89.4063V25.312H83.7413V26.28H82.5973V24.564H88.2733V23.893H82.5863V23.101ZM82.5973 26.027H89.5933V26.83H82.5973V26.027ZM96.4301 24.52H97.3651V24.927C97.3651 26.632 96.3311 28.073 94.5381 28.601L93.9991 27.699C95.5501 27.259 96.4301 26.137 96.4301 24.927V24.52ZM96.6391 24.52H97.5851V24.927C97.5851 26.038 98.4321 27.105 99.9721 27.523L99.4551 28.414C97.6511 27.908 96.6391 26.533 96.6391 24.927V24.52ZM94.3181 23.937H99.6971V24.85H94.3181V23.937ZM96.4301 22.815H97.5851V24.344H96.4301V22.815ZM100.731 22.859H101.886V28.645H100.731V22.859ZM101.567 25.235H103.305V26.192H101.567V25.235ZM98.1021 29.514H99.0811V29.767C99.0811 31.34 97.5741 32.55 95.4071 32.88L94.9781 32C96.8701 31.736 98.1021 30.779 98.1021 29.767V29.514ZM98.3441 29.514H99.3231V29.767C99.3231 30.757 100.577 31.736 102.436 32.011L102.018 32.891C99.8511 32.572 98.3441 31.307 98.3441 29.767V29.514ZM95.3851 29.14H102.04V30.053H95.3851V29.14ZM105.339 25.741H112.225V26.665H105.339V25.741ZM104.151 27.875H113.259V28.81H104.151V27.875ZM105.339 23.222H106.483V26.203H105.339V23.222ZM105.262 31.747H112.28V32.682H105.262V31.747ZM105.262 29.723H106.406V32H105.262V29.723ZM121.262 25.015H124.166V25.95H121.262V25.015ZM121.262 28.172H124.166V29.107H121.262V28.172ZM119.458 23.596C120.943 23.596 121.999 24.971 121.999 27.138C121.999 29.305 120.943 30.691 119.458 30.691C117.973 30.691 116.917 29.305 116.917 27.138C116.917 24.971 117.973 23.596 119.458 23.596ZM119.458 24.641C118.6 24.641 118.006 25.576 118.006 27.138C118.006 28.711 118.6 29.657 119.458 29.657C120.327 29.657 120.91 28.711 120.91 27.138C120.91 25.576 120.327 24.641 119.458 24.641ZM123.946 22.848H125.09V32.924H123.946V22.848ZM134.285 22.859H135.374V29.195L134.285 29.195V22.859ZM132.822 25.477H134.593V26.423H132.822V25.477ZM132.162 23.057H133.24V28.843H132.162V23.057ZM126.816 23.981H131.81V24.883H126.816V23.981ZM129.324 25.312C130.589 25.312 131.48 26.016 131.48 27.05C131.48 28.095 130.589 28.788 129.324 28.788C128.07 28.788 127.168 28.095 127.168 27.05C127.168 26.016 128.07 25.312 129.324 25.312ZM129.324 26.159C128.653 26.159 128.202 26.5 128.202 27.05C128.202 27.611 128.653 27.952 129.324 27.952C129.995 27.952 130.446 27.611 130.446 27.05C130.446 26.5 129.995 26.159 129.324 26.159ZM128.752 22.947H129.885V24.553H128.752V22.947ZM132.03 29.338C134.153 29.338 135.429 29.976 135.429 31.12C135.429 32.253 134.153 32.902 132.03 32.902C129.907 32.902 128.631 32.253 128.631 31.12C128.631 29.976 129.907 29.338 132.03 29.338ZM132.03 30.207C130.578 30.207 129.775 30.515 129.775 31.12C129.775 31.714 130.578 32.033 132.03 32.033C133.471 32.033 134.274 31.714 134.274 31.12C134.274 30.515 133.471 30.207 132.03 30.207Z" fill="white"/>
<defs>
<filter id="filter0_i_768_3696" x="98.2383" y="113.195" width="40.8002" height="24.9692" filterUnits="userSpaceOnUse" color-interpolation-filters="sRGB">
<feFlood flood-opacity="0" result="BackgroundImageFix"/>
<feBlend mode="normal" in="SourceGraphic" in2="BackgroundImageFix" result="shape"/>
<feColorMatrix in="SourceAlpha" type="matrix" values="0 0 0 0 0 0 0 0 0 0 0 0 0 0 0 0 0 0 127 0" result="hardAlpha"/>
<feOffset dy="1"/>
<feGaussianBlur stdDeviation="1"/>
<feComposite in2="hardAlpha" operator="arithmetic" k2="-1" k3="1"/>
<feColorMatrix type="matrix" values="0 0 0 0 0.865039 0 0 0 0 1 0 0 0 0 0.957262 0 0 0 0.5 0"/>
<feBlend mode="normal" in2="shape" result="effect1_innerShadow_768_3696"/>
</filter>
<filter id="filter1_i_768_3696" x="16.7733" y="131.338" width="49.4634" height="32.063" filterUnits="userSpaceOnUse" color-interpolation-filters="sRGB">
<feFlood flood-opacity="0" result="BackgroundImageFix"/>
<feBlend mode="normal" in="SourceGraphic" in2="BackgroundImageFix" result="shape"/>
<feColorMatrix in="SourceAlpha" type="matrix" values="0 0 0 0 0 0 0 0 0 0 0 0 0 0 0 0 0 0 127 0" result="hardAlpha"/>
<feOffset dy="1"/>
<feGaussianBlur stdDeviation="1"/>
<feComposite in2="hardAlpha" operator="arithmetic" k2="-1" k3="1"/>
<feColorMatrix type="matrix" values="0 0 0 0 0.865039 0 0 0 0 1 0 0 0 0 0.957262 0 0 0 0.5 0"/>
<feBlend mode="normal" in2="shape" result="effect1_innerShadow_768_3696"/>
</filter>
<filter id="filter2_i_768_3696" x="60.7301" y="92.9937" width="31.8147" height="27.4775" filterUnits="userSpaceOnUse" color-interpolation-filters="sRGB">
<feFlood flood-opacity="0" result="BackgroundImageFix"/>
<feBlend mode="normal" in="SourceGraphic" in2="BackgroundImageFix" result="shape"/>
<feColorMatrix in="SourceAlpha" type="matrix" values="0 0 0 0 0 0 0 0 0 0 0 0 0 0 0 0 0 0 127 0" result="hardAlpha"/>
<feOffset dy="1"/>
<feGaussianBlur stdDeviation="1"/>
<feComposite in2="hardAlpha" operator="arithmetic" k2="-1" k3="1"/>
<feColorMatrix type="matrix" values="0 0 0 0 0.865039 0 0 0 0 1 0 0 0 0 0.957262 0 0 0 0.5 0"/>
<feBlend mode="normal" in2="shape" result="effect1_innerShadow_768_3696"/>
</filter>
<filter id="filter3_bi_768_3696" x="4.07031" y="80.835" width="161.685" height="94.1982" filterUnits="userSpaceOnUse" color-interpolation-filters="sRGB">
<feFlood flood-opacity="0" result="BackgroundImageFix"/>
<feGaussianBlur in="BackgroundImageFix" stdDeviation="1"/>
<feComposite in2="SourceAlpha" operator="in" result="effect1_backgroundBlur_768_3696"/>
<feBlend mode="normal" in="SourceGraphic" in2="effect1_backgroundBlur_768_3696" result="shape"/>
<feColorMatrix in="SourceAlpha" type="matrix" values="0 0 0 0 0 0 0 0 0 0 0 0 0 0 0 0 0 0 127 0" result="hardAlpha"/>
<feOffset dy="1"/>
<feGaussianBlur stdDeviation="1"/>
<feComposite in2="hardAlpha" operator="arithmetic" k2="-1" k3="1"/>
<feColorMatrix type="matrix" values="0 0 0 0 0.954065 0 0 0 0 0.999365 0 0 0 0 0.988137 0 0 0 0.45 0"/>
<feBlend mode="normal" in2="shape" result="effect2_innerShadow_768_3696"/>
</filter>
<filter id="filter4_i_768_3696" x="20" y="0" width="137" height="63.0005" filterUnits="userSpaceOnUse" color-interpolation-filters="sRGB">
<feFlood flood-opacity="0" result="BackgroundImageFix"/>
<feBlend mode="normal" in="SourceGraphic" in2="BackgroundImageFix" result="shape"/>
<feColorMatrix in="SourceAlpha" type="matrix" values="0 0 0 0 0 0 0 0 0 0 0 0 0 0 0 0 0 0 127 0" result="hardAlpha"/>
<feOffset dy="1"/>
<feGaussianBlur stdDeviation="1"/>
<feComposite in2="hardAlpha" operator="arithmetic" k2="-1" k3="1"/>
<feColorMatrix type="matrix" values="0 0 0 0 0.865039 0 0 0 0 1 0 0 0 0 0.957262 0 0 0 0.5 0"/>
<feBlend mode="normal" in2="shape" result="effect1_innerShadow_768_3696"/>
</filter>
<linearGradient id="paint0_linear_768_3696" x1="71.9062" y1="91.599" x2="138.584" y2="124.644" gradientUnits="userSpaceOnUse">
<stop stop-color="#A9E5D2"/>
<stop offset="1" stop-color="#00B488"/>
</linearGradient>
<linearGradient id="paint1_linear_768_3696" x1="-11.9335" y1="193.143" x2="67.2027" y2="147.973" gradientUnits="userSpaceOnUse">
<stop stop-color="#A9E5D2"/>
<stop offset="1" stop-color="#00B488"/>
</linearGradient>
<linearGradient id="paint2_linear_768_3696" x1="-24.8899" y1="-18.3617" x2="35.1292" y2="-5.69473" gradientUnits="userSpaceOnUse">
<stop stop-color="#A9E5D2"/>
<stop offset="1" stop-color="#00B488"/>
</linearGradient>
<linearGradient id="paint3_linear_768_3696" x1="116.219" y1="132.775" x2="158.858" y2="141.296" gradientUnits="userSpaceOnUse">
<stop stop-color="#A9E5D2"/>
<stop offset="1" stop-color="#00B488"/>
</linearGradient>
<linearGradient id="paint4_linear_768_3696" x1="-5.5" y1="-21.5" x2="201.847" y2="62.2641" gradientUnits="userSpaceOnUse">
<stop stop-color="#A9E5D2"/>
<stop offset="1" stop-color="#00B488"/>
</linearGradient>
<clipPath id="clip0_768_3696">
<rect width="54.9578" height="24.9938" rx="12.4969" transform="matrix(0.504021 -0.863691 0.871435 0.490511 123 122.794)" fill="white"/>
</clipPath>
</defs>
</svg>
