<svg width="423" height="282" viewBox="0 0 423 282" fill="none" xmlns="http://www.w3.org/2000/svg">
<path d="M384 147.846C384 147.846 391.237 158.849 397.143 155.292C402.552 152.034 397.999 136.973 393.406 139.733C391.049 141.15 391.371 146.666 398.244 151.006C412.61 158.94 407.944 132 401.11 135.209C394.017 139.219 422.453 161.26 411.429 132" stroke="#FBADAD" stroke-width="2" stroke-linecap="round" stroke-linejoin="round"/>
<path d="M398.185 1C398.185 1 401.643 11.0878 394.311 7.38848C387.26 3.8325 390.142 11.5103 390.142 11.5103C390.142 11.5103 392.204 19.3669 385.759 15.7464C379.314 12.1256 381.376 19.9822 381.376 19.9822C381.376 19.9822 382.167 28.4615 375 23.3749" stroke="#8DD1F9" stroke-width="2" stroke-linecap="round" stroke-linejoin="round"/>
<path d="M51.9361 16.4995C51.9361 16.4995 48.6823 20.8495 53.2923 20.1699C57.7253 19.517 55.1078 22.7899 55.1078 22.7899C55.1078 22.7899 52.9293 26.2731 57.0292 25.4976C61.1295 24.7219 58.9509 28.205 58.9509 28.205C58.9509 28.205 57.4078 32.1808 62.1045 30.8063" stroke="#63BEFF" stroke-linecap="round" stroke-linejoin="round"/>
<path d="M20.0813 136.649C20.0813 136.649 18.9596 146.919 25.5111 141.523C31.8095 136.335 30.702 144.22 30.702 144.22C30.702 144.22 30.4674 152.049 36.1384 146.964C41.8086 141.88 41.5744 149.709 41.5744 149.709C41.5744 149.709 42.7723 157.773 48.8286 151.137" stroke="#9599FA" stroke-width="2" stroke-linecap="round" stroke-linejoin="round"/>
<path fill-rule="evenodd" clip-rule="evenodd" d="M348.232 10.1103C348.33 9.89253 348.658 10.0277 348.575 10.2515L346.686 15.3122L351.748 13.4116C351.971 13.3274 352.108 13.6545 351.89 13.7538L346.97 15.9999L351.89 18.2462C352.108 18.3455 351.971 18.6726 351.748 18.5884L346.686 16.6878L348.575 21.7485C348.658 21.9723 348.33 22.1075 348.232 21.8897L346 16.9727L343.768 21.8897C343.67 22.1075 343.342 21.9723 343.425 21.7485L345.314 16.6878L340.252 18.5884C340.029 18.6726 339.892 18.3455 340.11 18.2462L345.03 15.9999L340.11 13.7538C339.892 13.6545 340.029 13.3274 340.252 13.4116L345.314 15.3122L343.425 10.2515C343.342 10.0277 343.67 9.89253 343.768 10.1103L346 15.0273L348.232 10.1103Z" stroke="#FBADAD"/>
<path fill-rule="evenodd" clip-rule="evenodd" d="M104.232 10.1103C104.33 9.89253 104.658 10.0277 104.575 10.2515L102.686 15.3122L107.748 13.4116C107.971 13.3274 108.108 13.6545 107.89 13.7538L102.97 15.9999L107.89 18.2462C108.108 18.3455 107.971 18.6726 107.748 18.5884L102.686 16.6878L104.575 21.7485C104.658 21.9723 104.33 22.1075 104.232 21.8897L102 16.9727L99.7685 21.8897C99.6695 22.1075 99.3416 21.9723 99.4251 21.7485L101.314 16.6878L96.2525 18.5884C96.0286 18.6726 95.8923 18.3455 96.1097 18.2462L101.03 15.9999L96.1097 13.7538C95.8923 13.6545 96.0286 13.3274 96.2525 13.4116L101.314 15.3122L99.4251 10.2515C99.3416 10.0277 99.6695 9.89253 99.7685 10.1103L102 15.0273L104.232 10.1103Z" stroke="#EEC78B"/>
<path fill-rule="evenodd" clip-rule="evenodd" d="M86.2315 169.11C86.3305 168.893 86.6584 169.028 86.5749 169.251L84.6856 174.312L89.7475 172.412C89.9714 172.327 90.1077 172.654 89.8903 172.754L84.9698 175L89.8903 177.246C90.1077 177.346 89.9714 177.673 89.7475 177.588L84.6856 175.688L86.5749 180.749C86.6584 180.972 86.3305 181.107 86.2315 180.89L84 175.973L81.7685 180.89C81.6695 181.107 81.3416 180.972 81.4251 180.749L83.3144 175.688L78.2525 177.588C78.0286 177.673 77.8923 177.346 78.1097 177.246L83.0302 175L78.1097 172.754C77.8923 172.654 78.0286 172.327 78.2525 172.412L83.3144 174.312L81.4251 169.251C81.3416 169.028 81.6695 168.893 81.7685 169.11L84 174.027L86.2315 169.11Z" stroke="#EEC78B"/>
<path fill-rule="evenodd" clip-rule="evenodd" d="M66.2315 51.1103C66.3305 50.8925 66.6584 51.0277 66.5749 51.2515L64.6856 56.3122L69.7476 54.4116C69.9714 54.3274 70.1077 54.6545 69.8903 54.7538L64.9698 56.9999L69.8903 59.2462C70.1077 59.3455 69.9714 59.6726 69.7476 59.5884L64.6856 57.6878L66.5749 62.7485C66.6584 62.9723 66.3305 63.1075 66.2315 62.8897L64 57.9727L61.7685 62.8897C61.6695 63.1075 61.3416 62.9723 61.4251 62.7485L63.3144 57.6878L58.2525 59.5884C58.0286 59.6726 57.8923 59.3455 58.1097 59.2462L63.0302 56.9999L58.1097 54.7538C57.8923 54.6545 58.0286 54.3274 58.2525 54.4116L63.3144 56.3122L61.4251 51.2515C61.3416 51.0277 61.6695 50.8925 61.7685 51.1103L64 56.0273L66.2315 51.1103Z" stroke="#FBADAD"/>
<path d="M304.532 145.92C297.874 146.973 292.46 153.52 292.569 160.317L294.3 267.698C311.522 272.275 321.553 269.642 338.503 254.581L328.106 156.6C327.505 150.936 323.992 146.228 318.531 145.508C313.313 144.819 308.997 145.213 304.532 145.92Z" fill="url(#paint0_linear_569_3494)"/>
<path d="M142.298 159.188C148.811 157.957 155.117 163.788 155.784 170.618L166.231 277.536C149.75 284.313 139.462 283.007 120.698 270.277L117.869 176.674C117.759 171.012 121.681 166.083 126.688 164.038C132.311 161.741 137.225 160.146 142.298 159.188Z" fill="url(#paint1_linear_569_3494)"/>
<path d="M151.401 151.089C145.07 152.757 141.922 160.675 144.154 167.096L179.426 268.533C197.215 267.487 205.917 261.845 217.297 242.234L178.323 157.111C175.965 151.962 171.193 148.792 165.796 149.081C160.261 149.377 155.814 149.926 151.401 151.089Z" fill="url(#paint2_linear_569_3494)"/>
<path d="M386.76 55.6197C383.314 59.3824 382.886 63.0882 383.141 64.875C383.187 65.1946 383.201 65.5209 383.13 65.8359L381.706 72.203C381.511 73.0724 381.945 73.9116 382.813 74.1103C383.849 74.3473 385.468 74.6274 387.831 74.8726C393.087 75.4182 398.139 72.2665 401 71.5C403.861 70.7335 411.669 68.4852 414.53 67.7188C416.818 67.1056 416.747 65.8221 414.995 65.6402C413.243 65.4584 410.937 65.7507 408.785 65.3502C407.425 65.0968 406.634 64.9496 407.343 63.7826C408.053 62.6156 413.774 61.0826 418.297 58.8936C421.44 57.3729 420.425 55.3926 417.564 56.1585C416.611 56.4138 407.32 59.8811 406.122 59.225C404.924 58.569 411.82 53.7905 416.099 50.69C419.522 48.2096 417.851 45.7858 414.413 48.2103C410.688 50.8369 403.14 55.7254 402.75 54.2669C402.261 52.4439 406.87 48.8013 409.377 44.6753C410.796 42.3413 408.4 41.0287 406.738 42.4518C403.575 45.9043 397.107 53.0428 396.54 53.9769C396.073 54.7454 395.084 54.5952 394.611 54.0099C394.409 53.7587 394.426 53.4127 394.492 53.0966C395.09 50.2049 395.724 45.164 394.097 44.8611C391.946 44.4606 391.505 50.4407 386.76 55.6197Z" fill="#F7DACE"/>
<path d="M20.9895 48.813C25.0864 47.7143 35.6306 66.8885 38.7047 72.8973C37.3265 75.9507 34.4969 81.7842 34.2041 80.6914C33.838 79.3254 28.3739 80.7895 22.3117 77.2895C16.2496 73.7895 10.5857 67.301 6.99123 63.8254C4.0267 60.9588 6.39255 58.8609 10.7233 61.3613C11.5893 61.8613 15.0533 63.8615 15.9194 64.3613C16.7845 64.8604 17.2844 63.9958 17.7845 63.1309L17.7855 63.1292C18.5863 61.7441 14.0682 52.8993 12.3929 48.468C11.2753 45.5124 11.5292 43.8726 13.1607 43.1389C14.1229 42.7063 14.5705 44.6962 15.2593 45.5047C16.7524 44.5186 17.9533 46.0716 18.3191 47.4381C19.2813 47.0058 19.7574 46.9469 20.9895 48.813Z" fill="#F7DACE"/>
<path d="M14.855 45.4385L16.8191 50.0366" stroke="#F6D0C0" stroke-width="0.8"/>
<path d="M18.3188 47.4385L20.2829 52.0366" stroke="#F6D0C0" stroke-width="0.8"/>
<path d="M20.917 48.9385L22.8811 53.5366" stroke="#F6D0C0" stroke-width="0.8"/>
<path d="M316.217 53.2256C311.836 55.8417 310.364 59.2692 310.096 61.0542C310.048 61.3734 309.967 61.6899 309.809 61.9715L306.619 67.6626C306.183 68.4398 306.358 69.3679 307.133 69.8073C308.057 70.3316 309.528 71.0642 311.721 71.9768C316.6 74.0069 322.63 70.406 325.591 70.4921C328.551 70.5782 336.39 72.6943 339.35 72.7804C341.718 72.8493 342.018 71.5992 340.392 70.9226C338.765 70.2459 336.472 69.8645 334.526 68.8638C333.295 68.2309 332.58 67.8632 333.594 66.9486C334.608 66.034 340.529 66.2062 345.49 65.4064C348.937 64.8508 348.533 62.6627 345.572 62.576C344.586 62.5471 334.691 63.2042 333.731 62.2322C332.772 61.2602 340.748 58.66 345.737 56.917C349.728 55.5225 348.822 52.7212 344.833 54.0578C340.511 55.5058 331.879 58.0244 331.923 56.5152C331.977 54.6286 337.437 52.4608 341.023 49.2273C343.051 47.3981 341.132 45.4536 339.132 46.3401C335.111 48.7405 326.868 53.7243 326.057 54.4564C325.39 55.0588 324.485 54.6312 324.2 53.935C324.078 53.6362 324.194 53.3098 324.347 53.0256C325.749 50.427 327.803 45.7798 326.331 45.0231C324.385 44.0224 322.247 49.6247 316.217 53.2256Z" fill="#F8E5DD"/>
<path d="M101.128 81.4564C105.432 84.1988 106.804 87.6676 107.02 89.4597C107.058 89.7802 107.13 90.0988 107.279 90.3849L110.303 96.1664C110.716 96.9559 110.514 97.8785 109.727 98.2953C108.788 98.7924 107.296 99.4819 105.077 100.33C100.141 102.218 94.2183 98.4431 91.2568 98.4431C88.2954 98.4431 80.3981 100.33 77.4366 100.33C75.0675 100.33 74.8042 99.0722 76.4495 98.4431C78.0947 97.814 80.3981 97.4994 82.3724 96.5557C83.6211 95.9589 84.3467 95.6121 83.3596 94.6684C82.3724 93.7247 76.4495 93.7247 71.5137 92.7811C68.0847 92.1255 68.5522 89.95 71.5137 89.9494C72.5009 89.9492 82.3724 90.8937 83.3596 89.95C84.3467 89.0064 76.4495 86.1754 71.5137 84.288C67.5651 82.7781 68.5522 80.0044 72.5009 81.4564C76.7785 83.0294 85.3339 85.7979 85.3339 84.288C85.3339 82.4007 79.9396 80.075 76.4495 76.7386C74.4752 74.8513 76.4495 72.9633 78.4238 73.9076C82.3724 76.4239 90.4671 81.6452 91.2568 82.4007C91.9066 83.0222 92.8236 82.621 93.1283 81.9334C93.2591 81.6383 93.1526 81.3086 93.0076 81.0202C91.6815 78.3819 89.7638 73.677 91.2568 72.9633C93.2312 72.0197 95.2055 77.6817 101.128 81.4564Z" fill="#F8E5DD"/>
<path d="M315 74.0938L385.812 62.1811L388.975 73.9868L326.694 93.3441L315 74.0938Z" fill="#F7DACE"/>
<path d="M100.323 99.4019L35.525 67.6358L29.4139 78.2205L81.3232 108.454L100.323 99.4019Z" fill="#F7DACE"/>
<path d="M221.463 147.384C214.929 146.986 209.459 153.52 209.569 160.316L211.3 267.698C229 269.221 233 267.698 247.356 255.485L240.999 162.439C240.373 156.811 240.98 151.401 235.764 149.985C230.415 148.533 226.019 147.662 221.463 147.384Z" fill="url(#paint3_linear_569_3494)"/>
<path d="M201.609 148.481C208.152 148.677 213.007 155.681 212.281 162.439L200.818 269.221C183 265 177.5 262.5 166.246 250.723L179.999 159C181.134 153.451 181.808 150.711 187.131 149.774C192.59 148.814 197.046 148.344 201.609 148.481Z" fill="url(#paint4_linear_569_3494)"/>
<path d="M149.386 83.4912L220.272 69.9581L223.372 81.7806L154.966 104.772L149.386 83.4912Z" fill="#F7DACE"/>
<path d="M87.045 96.3373C121.885 90.3229 140.927 88.6862 158.004 113.242C169.506 129.782 176.177 139.425 182.835 155.688C154.363 162.995 140.674 169.879 118.031 183.043C117.459 183.376 116.713 183.052 116.546 182.412C105.977 141.913 104.812 137.564 87.045 96.3373Z" fill="url(#paint5_linear_569_3494)"/>
<path d="M67 85.1589C67 83.9441 68.0742 83.0098 69.2773 83.1782L117 89.8594L99 117.859L68.2472 105.366C67.4932 105.06 67 104.327 67 103.513V85.1589Z" fill="url(#paint6_linear_569_3494)"/>
<path d="M157.481 81.1821L111.427 91.5519L120.167 118.153L164.311 103.748C165.413 103.388 165.979 102.17 165.544 101.096L157.481 81.1821Z" fill="url(#paint7_linear_569_3494)"/>
<path d="M189.077 60.0102C190.073 47.9477 198.699 47.4041 202.68 48.2735C203.676 57.2933 205.07 76.2457 202.68 79.8971C199.694 84.4613 187.75 80.2231 192.395 79.8971C197.04 79.571 188.082 72.0728 189.077 60.0102Z" fill="#36210C"/>
<path d="M173.386 78.1861C144.253 78.0196 139.501 77.1859 121.664 79.5524L123.28 91.6673C145 91.6673 148.248 93.0672 176.295 95.993L173.386 78.1861Z" fill="#F8E5DD"/>
<path d="M280.664 146.375C287.45 145.246 293.872 151.393 294.206 158.437L299.255 264.751C282.774 271.529 272.485 270.223 253.722 257.493L254.629 163.553C254.682 158.076 257.58 153.347 262.492 151.458C268.812 149.028 274.753 147.358 280.664 146.375Z" fill="url(#paint8_linear_569_3494)"/>
<path d="M247 70L185 76.8889V89.1111L247 86V70Z" fill="#F7DACE"/>
<path d="M242 69.8594H284.377C285.323 69.8594 286.135 70.5282 286.361 71.4466C290.053 86.4369 296.8 79.2202 296.438 70.8303C296.377 69.4026 297.565 68.0846 298.982 68.2711C315.045 70.3852 325.718 70.0243 344.976 68.0675C346.088 67.9545 347.079 68.7722 347.176 69.8858L348.848 89.108C348.935 90.1096 348.267 91.0196 347.285 91.236C340.44 92.7443 331.348 94.803 323.789 96.4667C322.776 96.6897 322.098 97.619 322.236 98.6469C324.222 113.495 331.869 166.859 329 166.859C312.479 166.859 274.648 169.266 255.589 172.406C254.28 172.622 253.119 171.548 253.239 170.227L259.852 97.4866C259.938 96.5397 259.346 95.6631 258.435 95.3899L241.425 90.287C240.579 90.0332 240 89.2545 240 88.3713V71.8594C240 70.7548 240.895 69.8594 242 69.8594Z" fill="url(#paint9_linear_569_3494)"/>
<path d="M242.546 77.1653C269.769 67.1055 283.924 66.6978 310.892 61.6398L315 68.5C288.422 79.403 274.188 82.3722 249.298 95.0028L242.546 77.1653Z" fill="#F8E5DD"/>
<path d="M203.052 83.852L199.195 78.796C198.867 78.3652 198.377 78.0862 197.839 78.0228L162.13 73.8148C160.872 73.6665 159.797 74.7114 159.858 75.9775C160.068 80.3177 159.869 86.2226 157.765 91.4411C157.344 92.4861 157.749 93.7154 158.792 94.141C165.275 96.7848 175.753 99.2694 183 101.859C183 127.78 181.632 140.346 177.932 156.329C177.654 157.527 178.503 158.699 179.728 158.795L241.755 163.662C242.984 163.758 244.006 162.731 243.906 161.503C241.938 137.498 240.969 121.826 240 100.859C247.473 98.1891 251.455 97.1405 261.752 92.2856C262.918 91.7358 263.252 90.2357 262.46 89.2184C257.525 82.8777 255.061 78.4835 251.838 73.2306C250.774 71.4965 248.569 70.8861 246.696 71.6797C235.03 76.6218 222.156 78.3762 216.16 78.5179C215.664 78.5296 215.191 78.7117 214.823 79.0447L208.917 84.3914C207.181 85.9629 204.472 85.7138 203.052 83.852Z" fill="url(#paint10_linear_569_3494)"/>
<path d="M284.346 61.9954L298.992 59.0641L300.767 72.4857C301.267 76.2675 299.028 79.8763 295.417 81.1068L292.571 82.0766C288.726 83.3868 284.718 80.5783 284.637 76.5174L284.346 61.9954Z" fill="#F7DACE"/>
<path d="M198.346 70.9955L212.992 68.0642L214.52 77.2998C215.159 81.1601 212.912 84.9159 209.208 86.178L206.536 87.0886C202.702 88.3953 198.701 85.6048 198.603 81.555L198.346 70.9955Z" fill="#F8E5DD"/>
<mask id="mask0_569_3494" style="mask-type:alpha" maskUnits="userSpaceOnUse" x="198" y="68" width="17" height="24">
<path d="M198.346 70.9954L212.992 68.0641L214.767 81.4857C215.267 85.2675 213.027 88.8763 209.416 90.1068L206.571 91.0766C202.726 92.3868 198.718 89.5783 198.636 85.5174L198.346 70.9954Z" fill="#F8E5DD"/>
</mask>
<g mask="url(#mask0_569_3494)">
<path d="M198.941 79.4397C202.971 76.8589 208.477 73.8088 209.474 66.4357C207.88 67.2129 200.063 70.2752 196.945 73.5749C197.39 76.3832 196.864 80.7699 198.941 79.4397Z" fill="#F9D3C3"/>
</g>
<path d="M210.401 63.3458C210.358 70.5461 203.707 77.3249 198.974 75.4613C194.241 73.5976 189.157 67.8434 192.888 61.034C193.745 54.0561 194.439 48.3994 203.81 49.5501C208.986 50.1855 211.258 56.3679 210.401 63.3458Z" fill="#F8E5DD"/>
<path d="M207.064 61.404C203.035 61.6647 199.343 53.908 198 49.9971C201.693 44.4567 210.757 45.4344 216.463 48.3676C222.17 51.3008 223.513 58.1449 222.842 72.159C222.17 86.1731 204.043 79.329 207.064 79.329C209.481 79.329 208.966 71.2899 208.407 67.2703C209.638 65.2062 211.092 61.1432 207.064 61.404Z" fill="#36210C"/>
<ellipse cx="209.347" cy="63.5859" rx="2.64491" ry="3.96736" transform="rotate(24 209.347 63.5859)" fill="#F8E5DD"/>
<g filter="url(#filter0_f_569_3494)">
<ellipse cx="203.5" cy="65" rx="2.5" ry="3" fill="#F7D6C8"/>
</g>
<g filter="url(#filter1_f_569_3494)">
<ellipse cx="193" cy="66.5" rx="1" ry="2.5" fill="#F7D6C8"/>
</g>
<path d="M201.463 65.9678C202.246 65.8261 202.799 66.7085 202.31 67.3355C200.731 69.3605 199.509 70.4608 197.724 71.0291C196.032 71.5678 194.309 70.5265 193.435 68.9801C193.045 68.2887 193.453 67.4186 194.235 67.2771L201.463 65.9678Z" fill="#FBBCBC"/>
<mask id="mask1_569_3494" style="mask-type:alpha" maskUnits="userSpaceOnUse" x="284" y="62" width="18" height="24">
<path d="M284.346 64.9954L298.992 62.0641L301.197 78.738C301.447 80.6289 300.327 82.4333 298.522 83.0486L292.571 85.0766C288.726 86.3868 284.718 83.5783 284.637 79.5174L284.346 64.9954Z" fill="#F7DACE"/>
</mask>
<g mask="url(#mask1_569_3494)">
<path d="M286 76.5C290.915 75.6808 298.909 68.241 299.963 60.0463C298.361 60.9216 287.477 64.8891 284.33 68.577C284.755 71.6919 283 77 286 76.5Z" fill="#F9D3C3"/>
</g>
<path d="M109.866 85.5L121.393 76L128.468 89.9643C129.108 91.226 129.033 92.7315 128.272 93.9239L126.386 96.8802C123.948 100.701 118.317 100.543 116.097 96.5913L109.866 85.5Z" fill="#F7DACE"/>
<path d="M299.998 61.1149C298.561 65.2555 296.825 66.9914 292.485 69.5952C289.013 71.6782 286.41 72.199 282.938 69.5952C279.466 66.9914 275.678 58.0566 278.597 52.2361C280.334 41.8211 283.581 37.5707 295.299 41.6042C301.771 43.8318 303.024 52.3972 299.998 61.1149Z" fill="#F7DACE"/>
<path d="M284.443 38.118C282.722 39.003 280.141 39.2242 279.065 39.2242C280.141 42.5432 280.141 44.7544 286.595 45.8605C293.048 46.9667 299.502 42.5426 297.351 44.7544C295.2 46.9661 296.275 50.2851 298.427 51.3913C300.148 52.2762 299.861 55.4472 299.502 56.922H301.654C304.099 59.3143 312.487 48.3384 304.881 42.5426C297.351 29.5851 286.595 37.0119 284.443 38.118Z" fill="#63382E"/>
<ellipse cx="300.956" cy="59.3587" rx="3.47175" ry="5.20762" transform="rotate(35.9934 300.956 59.3587)" fill="#F7DACE"/>
<path d="M291.257 59.835C292.487 59.8929 292.944 61.5261 291.922 62.2136C289.773 63.6607 288.26 64.5241 285.81 64.8194C283.223 65.1312 281.016 63.1396 280.384 60.6124C280.221 59.9622 280.731 59.3391 281.401 59.3706L291.257 59.835Z" fill="#FBBCBC"/>
<path d="M114.501 58.999C117.263 57.8375 123.505 58.035 127.111 63.2728C128.532 65.3375 129.689 69.8968 129.501 72.499C129.252 75.9379 127.05 77.452 123.924 79.9994L114.501 58.999Z" fill="#428BF9"/>
<path d="M104.581 56.0833C91.4994 57.7387 96.7085 68.4995 101.432 73.6121C107.729 82.8146 119.101 78.1768 124 74.7076C122.95 64.6812 113.15 54.9989 104.581 56.0833Z" fill="#2659A6"/>
<mask id="mask2_569_3494" style="mask-type:alpha" maskUnits="userSpaceOnUse" x="109" y="76" width="20" height="24">
<path d="M109.866 85.5L121.393 76L128.468 89.9643C129.108 91.226 129.033 92.7315 128.272 93.9239L126.386 96.8802C123.948 100.701 118.317 100.543 116.097 96.5913L109.866 85.5Z" fill="#F7DACE"/>
</mask>
<g mask="url(#mask2_569_3494)">
<path d="M115 100C117.619 99.7023 121.339 85.1374 122 79.5C120.4 80.2761 114 88.1144 111 91.1866C111.667 93.6119 112.584 100.275 115 100Z" fill="#F9D3C3"/>
</g>
<path d="M122 75.6228C122 82.3403 119.206 87.9351 116.133 90.4946C114.022 92.2524 111.393 92.0531 111 91.911C105.134 89.7865 101.467 85.5374 100.001 78.4555C100.001 75.2326 99.9219 72.2743 101.467 69.9573C103.484 66.9319 107.56 65 111 65C117.075 65 122 68.1915 122 75.6228Z" fill="#F7DACE"/>
<path d="M124.002 75.9994C122.037 73.9588 120.605 72.7012 118.631 70.9998C114.001 68.057 104.501 67.9999 100.5 71.9995C100.476 62.5386 110.371 57.9027 114.5 59.0002C118.502 61.4994 125.038 69.9584 124.002 75.9994Z" fill="#111111"/>
<ellipse cx="121.109" cy="77.7978" rx="3.58843" ry="5.0238" transform="rotate(24.5434 121.109 77.7978)" fill="#F7DACE"/>
<path d="M114.297 80.3245C115.241 79.7871 116.368 80.6804 116.03 81.7134C115.245 84.1168 114.562 85.4188 112.849 86.7384C110.967 88.1892 108.301 87.7711 106.512 86.2064C106.02 85.7757 106.1 84.9881 106.668 84.6646L114.297 80.3245Z" fill="#FBBCBC"/>
<g filter="url(#filter2_f_569_3494)">
<ellipse cx="116.5" cy="77" rx="2.5" ry="3" fill="#F6CBB9"/>
</g>
<g filter="url(#filter3_f_569_3494)">
<ellipse cx="104.199" cy="83.9141" rx="1.5" ry="2.5" transform="rotate(-18 104.199 83.9141)" fill="#F6CBB9"/>
</g>
<g filter="url(#filter4_f_569_3494)">
<ellipse cx="294.5" cy="58" rx="2.5" ry="3" fill="#F6CAB8"/>
</g>
<g filter="url(#filter5_f_569_3494)">
<ellipse cx="279.5" cy="58" rx="1.5" ry="3" fill="#F6CAB8"/>
</g>
<rect x="104" y="75.6211" width="1" height="2" rx="0.5" transform="rotate(-15 104 75.6211)" fill="#111111"/>
<rect width="0.983772" height="1.98588" rx="0.491886" transform="matrix(0.999894 -0.0145232 0.00816561 0.999967 194 60.0142)" fill="#36210C"/>
<rect width="0.983772" height="1.98588" rx="0.491886" transform="matrix(0.992185 0.124777 -0.131082 0.991371 281.998 50.0142)" fill="#36210C"/>
<path d="M123.719 75C123.836 75.3786 123.591 75.7395 123.513 76.1281C123.494 76.2258 123.487 76.3502 123.487 76.5223L123.507 77.3469L123.223 76.7019C123.307 76.5876 123.427 76.4978 123.542 76.4978C123.796 76.4978 124 76.7754 124 77.2163C124 77.6979 123.806 78 123.542 78C123.173 78 123 78.0082 123 77.2163C123 76.3182 123.156 75.449 123.719 75Z" fill="#F1A99E"/>
<path d="M210.719 61C210.836 61.3786 210.591 61.7395 210.513 62.1281C210.494 62.2258 210.487 62.3502 210.487 62.5223L210.507 63.3469L210.223 62.7019C210.307 62.5876 210.427 62.4978 210.542 62.4978C210.796 62.4978 211 62.7754 211 63.2163C211 63.6979 210.806 64 210.542 64C210.173 64 210 64.0082 210 63.2163C210 62.3182 210.156 61.449 210.719 61Z" fill="#F1A99E"/>
<path d="M302.438 56C302.656 56.4692 302.339 56.9168 302.084 57.3667C302 57.5152 301.974 57.7113 301.974 58.0297L302.013 59.1292L301.445 58.2692C301.615 58.1168 301.854 57.9971 302.083 57.9971C302.591 57.9971 303 58.3672 303 58.955C303 59.5972 302.611 60 302.083 60C301.346 60 301 60.0109 301 58.955C301 57.7576 301.312 56.5987 302.438 56Z" fill="#F1A99E"/>
<rect x="109.469" y="74.6211" width="1" height="2" rx="0.5" transform="rotate(-15 109.469 74.6211)" fill="#111111"/>
<rect width="0.983772" height="1.98588" rx="0.491886" transform="matrix(0.999894 -0.0145232 0.00816561 0.999967 199 60.0142)" fill="#36210C"/>
<rect width="0.983772" height="1.98588" rx="0.491886" transform="matrix(0.992185 0.124777 -0.131082 0.991371 288.998 51.0142)" fill="#36210C"/>
<path d="M109 78C107.954 78 106.177 78.4 107.432 80" stroke="#F1A99E" stroke-width="0.8" stroke-linecap="round"/>
<path d="M197 63C196.477 63 195.588 63.2 196.216 64" stroke="#F1A99E" stroke-width="0.8" stroke-linecap="round"/>
<path d="M285 54C282.791 55 282.434 55.4 283.82 57" stroke="#F1A99E" stroke-width="0.8" stroke-linecap="round"/>
<defs>
<filter id="filter0_f_569_3494" x="199" y="60" width="9" height="10" filterUnits="userSpaceOnUse" color-interpolation-filters="sRGB">
<feFlood flood-opacity="0" result="BackgroundImageFix"/>
<feBlend mode="normal" in="SourceGraphic" in2="BackgroundImageFix" result="shape"/>
<feGaussianBlur stdDeviation="1" result="effect1_foregroundBlur_569_3494"/>
</filter>
<filter id="filter1_f_569_3494" x="190" y="62" width="6" height="9" filterUnits="userSpaceOnUse" color-interpolation-filters="sRGB">
<feFlood flood-opacity="0" result="BackgroundImageFix"/>
<feBlend mode="normal" in="SourceGraphic" in2="BackgroundImageFix" result="shape"/>
<feGaussianBlur stdDeviation="1" result="effect1_foregroundBlur_569_3494"/>
</filter>
<filter id="filter2_f_569_3494" x="112" y="72" width="9" height="10" filterUnits="userSpaceOnUse" color-interpolation-filters="sRGB">
<feFlood flood-opacity="0" result="BackgroundImageFix"/>
<feBlend mode="normal" in="SourceGraphic" in2="BackgroundImageFix" result="shape"/>
<feGaussianBlur stdDeviation="1" result="effect1_foregroundBlur_569_3494"/>
</filter>
<filter id="filter3_f_569_3494" x="100.577" y="79.4912" width="7.24512" height="8.8457" filterUnits="userSpaceOnUse" color-interpolation-filters="sRGB">
<feFlood flood-opacity="0" result="BackgroundImageFix"/>
<feBlend mode="normal" in="SourceGraphic" in2="BackgroundImageFix" result="shape"/>
<feGaussianBlur stdDeviation="1" result="effect1_foregroundBlur_569_3494"/>
</filter>
<filter id="filter4_f_569_3494" x="290" y="53" width="9" height="10" filterUnits="userSpaceOnUse" color-interpolation-filters="sRGB">
<feFlood flood-opacity="0" result="BackgroundImageFix"/>
<feBlend mode="normal" in="SourceGraphic" in2="BackgroundImageFix" result="shape"/>
<feGaussianBlur stdDeviation="1" result="effect1_foregroundBlur_569_3494"/>
</filter>
<filter id="filter5_f_569_3494" x="276" y="53" width="7" height="10" filterUnits="userSpaceOnUse" color-interpolation-filters="sRGB">
<feFlood flood-opacity="0" result="BackgroundImageFix"/>
<feBlend mode="normal" in="SourceGraphic" in2="BackgroundImageFix" result="shape"/>
<feGaussianBlur stdDeviation="1" result="effect1_foregroundBlur_569_3494"/>
</filter>
<linearGradient id="paint0_linear_569_3494" x1="293.5" y1="220.5" x2="329.439" y2="185.779" gradientUnits="userSpaceOnUse">
<stop stop-color="#AEC1C9"/>
<stop offset="1" stop-color="#9DB2BB"/>
</linearGradient>
<linearGradient id="paint1_linear_569_3494" x1="167.582" y1="149.062" x2="167.582" y2="281.579" gradientUnits="userSpaceOnUse">
<stop stop-color="#333333"/>
<stop offset="1" stop-color="#111111"/>
</linearGradient>
<linearGradient id="paint2_linear_569_3494" x1="167.582" y1="149.062" x2="167.582" y2="281.579" gradientUnits="userSpaceOnUse">
<stop stop-color="#333333"/>
<stop offset="1" stop-color="#111111"/>
</linearGradient>
<linearGradient id="paint3_linear_569_3494" x1="171.5" y1="194.5" x2="249.5" y2="194" gradientUnits="userSpaceOnUse">
<stop stop-color="#91D3ED"/>
<stop offset="1" stop-color="#74CBED"/>
</linearGradient>
<linearGradient id="paint4_linear_569_3494" x1="171.5" y1="194.5" x2="249.5" y2="194" gradientUnits="userSpaceOnUse">
<stop stop-color="#91D3ED"/>
<stop offset="1" stop-color="#74CBED"/>
</linearGradient>
<linearGradient id="paint5_linear_569_3494" x1="177" y1="184" x2="67" y2="28.0005" gradientUnits="userSpaceOnUse">
<stop stop-color="#00B488"/>
<stop offset="1" stop-color="#BCF7E9"/>
</linearGradient>
<linearGradient id="paint6_linear_569_3494" x1="177" y1="184" x2="67" y2="28.0005" gradientUnits="userSpaceOnUse">
<stop stop-color="#00B488"/>
<stop offset="1" stop-color="#BCF7E9"/>
</linearGradient>
<linearGradient id="paint7_linear_569_3494" x1="177" y1="184" x2="67" y2="28.0005" gradientUnits="userSpaceOnUse">
<stop stop-color="#00B488"/>
<stop offset="1" stop-color="#BCF7E9"/>
</linearGradient>
<linearGradient id="paint8_linear_569_3494" x1="255.5" y1="206" x2="296.571" y2="191.277" gradientUnits="userSpaceOnUse">
<stop stop-color="#AEC1C9"/>
<stop offset="1" stop-color="#9DB2BB"/>
</linearGradient>
<linearGradient id="paint9_linear_569_3494" x1="265" y1="61.5" x2="347" y2="186.5" gradientUnits="userSpaceOnUse">
<stop stop-color="#9DCCF8"/>
<stop offset="1" stop-color="#4F9DE3"/>
</linearGradient>
<linearGradient id="paint10_linear_569_3494" x1="182.5" y1="77.0005" x2="254" y2="193" gradientUnits="userSpaceOnUse">
<stop stop-color="#FCFCFC"/>
<stop offset="1" stop-color="#F6EBE3"/>
</linearGradient>
</defs>
</svg>
