<svg width="424" height="221" viewBox="0 0 424 221" fill="none" xmlns="http://www.w3.org/2000/svg">
<g filter="url(#filter0_bdi_319_931)">
<path fill-rule="evenodd" clip-rule="evenodd" d="M221.863 116.637C197.638 116.637 178 136.275 178 160.5C178 184.725 197.638 204.363 221.863 204.363H326L327.298 217.299C327.561 219.929 330.851 220.958 332.566 218.946L345 204.363H379.137C403.362 204.363 423 184.725 423 160.5C423 136.275 403.362 116.637 379.137 116.637H221.863Z" fill="url(#paint0_linear_319_931)" fill-opacity="0.76" shape-rendering="crispEdges"/>
</g>
<path d="M216.772 151.606H218.662V163.684H216.772V151.606ZM218.104 156.412H220.984V157.978H218.104V156.412ZM208.258 166.186H219.328V167.716H208.258V166.186ZM208.258 162.496H210.148V166.528H208.258V162.496ZM206.404 152.776H208.276V155.35H212.29V152.776H214.144V161.002H206.404V152.776ZM208.276 156.808V159.508H212.29V156.808H208.276ZM234.123 151.57H235.995V168.058H234.123V151.57ZM231.117 155.224H234.519V156.754H231.117V155.224ZM222.963 162.748H224.223C226.725 162.748 228.777 162.676 231.225 162.298L231.387 163.846C228.885 164.242 226.779 164.314 224.223 164.314H222.963V162.748ZM222.927 153.028H230.181V159.112H224.835V163.108H222.963V157.618H228.327V154.54H222.927V153.028ZM231.045 159.706H234.447V161.236H231.045V159.706ZM238.945 159.526H253.813V161.038H238.945V159.526ZM245.443 156.97H247.315V160.138H245.443V156.97ZM240.781 156.376H252.103V157.87H240.781V156.376ZM240.781 152.326H251.995V153.82H242.653V157.294H240.781V152.326ZM246.343 162.064C249.871 162.064 252.013 163.144 252.013 165.052C252.013 166.96 249.871 168.04 246.343 168.04C242.815 168.04 240.673 166.96 240.673 165.052C240.673 163.144 242.815 162.064 246.343 162.064ZM246.343 163.504C243.931 163.504 242.581 164.044 242.581 165.052C242.581 166.06 243.931 166.582 246.343 166.582C248.755 166.582 250.105 166.06 250.105 165.052C250.105 164.044 248.755 163.504 246.343 163.504ZM261.966 159.418H263.838V161.848H261.966V159.418ZM255.486 158.338H270.354V159.832H255.486V158.338ZM257.376 152.11H268.446V157.186H257.376V152.11ZM266.592 153.586H259.23V155.71H266.592V153.586ZM257.25 161.182H268.5V165.124H259.14V166.87H257.268V163.774H266.646V162.604H257.25V161.182ZM257.268 166.438H268.968V167.896H257.268V166.438ZM276.105 159.526H290.973V161.038H276.105V159.526ZM282.603 156.97H284.475V160.138H282.603V156.97ZM277.941 156.376H289.263V157.87H277.941V156.376ZM277.941 152.326H289.155V153.82H279.813V157.294H277.941V152.326ZM283.503 162.064C287.031 162.064 289.173 163.144 289.173 165.052C289.173 166.96 287.031 168.04 283.503 168.04C279.975 168.04 277.833 166.96 277.833 165.052C277.833 163.144 279.975 162.064 283.503 162.064ZM283.503 163.504C281.091 163.504 279.741 164.044 279.741 165.052C279.741 166.06 281.091 166.582 283.503 166.582C285.915 166.582 287.265 166.06 287.265 165.052C287.265 164.044 285.915 163.504 283.503 163.504ZM303.608 151.606H305.498V163.684H303.608V151.606ZM304.94 156.412H307.82V157.978H304.94V156.412ZM295.094 166.186H306.164V167.716H295.094V166.186ZM295.094 162.496H296.984V166.528H295.094V162.496ZM293.24 152.776H295.112V155.35H299.126V152.776H300.98V161.002H293.24V152.776ZM295.112 156.808V159.508H299.126V156.808H295.112ZM320.869 151.57H322.759V168.058H320.869V151.57ZM313.993 152.794C316.459 152.794 318.241 155.044 318.241 158.59C318.241 162.136 316.459 164.404 313.993 164.404C311.545 164.404 309.763 162.136 309.763 158.59C309.763 155.044 311.545 152.794 313.993 152.794ZM313.993 154.504C312.553 154.504 311.563 156.034 311.563 158.59C311.563 161.164 312.553 162.712 313.993 162.712C315.433 162.712 316.423 161.164 316.423 158.59C316.423 156.034 315.433 154.504 313.993 154.504ZM340.678 151.57H342.568V168.022H340.678V151.57ZM342.064 158.086H345.034V159.634H342.064V158.086ZM336.412 153.316H338.266C338.266 158.104 336.232 162.334 330.85 165.034L329.788 163.594C334.234 161.326 336.412 158.032 336.412 153.64V153.316ZM330.616 153.316H337.384V154.846H330.616V153.316ZM348.327 155.944H359.577V157.456H348.327V155.944ZM348.327 151.894H350.199V156.628H348.327V151.894ZM346.383 159.148H361.251V160.66H346.383V159.148ZM353.781 161.956C357.309 161.956 359.451 163.036 359.451 164.98C359.451 166.888 357.309 167.986 353.781 167.986C350.253 167.986 348.111 166.888 348.111 164.98C348.111 163.036 350.253 161.956 353.781 161.956ZM353.781 163.414C351.369 163.414 350.019 163.936 350.019 164.98C350.019 165.97 351.369 166.528 353.781 166.528C356.193 166.528 357.543 165.97 357.543 164.98C357.543 163.936 356.193 163.414 353.781 163.414ZM362.905 154.252H370.933V155.764H362.905V154.252ZM366.937 156.7C369.007 156.7 370.501 158.284 370.501 160.534C370.501 162.784 369.007 164.35 366.937 164.35C364.885 164.35 363.373 162.784 363.373 160.534C363.373 158.284 364.885 156.7 366.937 156.7ZM366.937 158.284C365.839 158.284 365.047 159.184 365.047 160.534C365.047 161.902 365.839 162.766 366.937 162.766C368.035 162.766 368.827 161.902 368.827 160.534C368.827 159.184 368.035 158.284 366.937 158.284ZM375.145 151.588H376.945V168.04H375.145V151.588ZM372.805 158.41H375.739V159.94H372.805V158.41ZM371.653 151.93H373.417V167.284H371.653V151.93ZM366.019 152.056H367.873V155.188H366.019V152.056ZM382.974 160.012H384.846V164.782H382.974V160.012ZM389.004 160.012H390.894V164.782H389.004V160.012ZM379.5 164.476H394.404V166.024H379.5V164.476ZM386.916 152.524C390.426 152.524 392.964 154.216 392.964 156.844C392.964 159.454 390.426 161.146 386.916 161.146C383.406 161.146 380.868 159.454 380.868 156.844C380.868 154.216 383.406 152.524 386.916 152.524ZM386.916 154C384.432 154 382.704 155.098 382.704 156.844C382.704 158.572 384.432 159.67 386.916 159.67C389.4 159.67 391.128 158.572 391.128 156.844C391.128 155.098 389.4 154 386.916 154Z" fill="white"/>
<g filter="url(#filter1_bdi_319_931)">
<path fill-rule="evenodd" clip-rule="evenodd" d="M248.863 0C224.638 0 205 19.6383 205 43.8633C205 68.0883 224.638 87.7266 248.863 87.7266H308L309.298 100.663C309.561 103.293 312.851 104.321 314.566 102.31L327 87.7266H335.137C359.362 87.7266 379 68.0883 379 43.8633C379 19.6383 359.362 0 335.137 0H248.863Z" fill="url(#paint1_linear_319_931)" fill-opacity="0.76" shape-rendering="crispEdges"/>
</g>
<g filter="url(#filter2_bdi_319_931)">
<path fill-rule="evenodd" clip-rule="evenodd" d="M44 51.8384C19.6995 51.8384 0 71.5379 0 95.8384C0 120.139 19.6995 139.838 44 139.838H138L150.431 154.463C152.145 156.479 155.439 155.451 155.702 152.819L157 139.838H194C218.301 139.838 238 120.139 238 95.8384C238 71.5379 218.301 51.8384 194 51.8384H44Z" fill="url(#paint2_linear_319_931)" fill-opacity="0.76" shape-rendering="crispEdges"/>
</g>
<path d="M28.53 101.838V100.128H31.446V90.9124H29.052V89.5984C30.312 89.3824 31.176 89.0584 31.95 88.5904H33.516V100.128H36.108V101.838H28.53ZM49.7576 86.8984H51.6476V98.8144H49.7576V86.8984ZM40.9016 101.478H52.1156V103.008H40.9016V101.478ZM40.9016 97.6084H42.7916V102.054H40.9016V97.6084ZM42.7736 87.9964C45.2576 87.9964 47.1296 89.6884 47.1296 92.1004C47.1296 94.4764 45.2576 96.2044 42.7736 96.2044C40.2896 96.2044 38.3996 94.4764 38.3996 92.1004C38.3996 89.6884 40.2896 87.9964 42.7736 87.9964ZM42.7736 89.6164C41.3336 89.6164 40.2356 90.5884 40.2356 92.1004C40.2356 93.5764 41.3336 94.5484 42.7736 94.5484C44.2136 94.5484 45.2936 93.5764 45.2936 92.1004C45.2936 90.5884 44.2136 89.6164 42.7736 89.6164ZM63.0582 90.1564H66.7122V91.7044H63.0582V90.1564ZM58.5942 87.7264H60.1422V89.3644C60.1422 92.5684 58.5222 95.2684 55.6062 96.3304L54.5982 94.8364C57.2082 93.9364 58.5942 91.7404 58.5942 89.3644V87.7264ZM58.9542 87.7264H60.4842V89.4724C60.4842 91.6324 61.8882 93.6844 64.3362 94.5304L63.3462 96.0064C60.5562 94.9984 58.9542 92.4244 58.9542 89.4724V87.7264ZM57.1902 97.4644H68.2782V103.332H66.3882V98.9764H57.1902V97.4644ZM66.3882 86.8804H68.2782V96.6364H66.3882V86.8804ZM86.1078 86.8804H87.9978V103.332H86.1078V86.8804ZM87.5658 93.1984H90.5538V94.7824H87.5658V93.1984ZM75.8298 88.2304H77.7018V92.4244H81.7698V88.2304H83.6418V99.4444H75.8298V88.2304ZM77.7018 93.9004V97.9144H81.7698V93.9004H77.7018ZM98.5804 93.0004H101.586V94.5304H98.5804V93.0004ZM92.3524 98.0044H93.4324C95.8624 98.0044 97.3744 97.9504 99.1744 97.6084L99.3364 99.1384C97.4824 99.4804 95.9164 99.5344 93.4324 99.5344H92.3524V98.0044ZM92.3524 88.7884H98.4544V90.3004H94.1524V98.5444H92.3524V88.7884ZM93.6124 93.2164H97.7524V94.6924H93.6124V93.2164ZM104.034 86.8804H105.834V103.332H104.034V86.8804ZM100.686 87.2224H102.45V102.54H100.686V87.2224ZM120.017 86.8624H121.907V103.35H120.017V86.8624ZM113.141 88.0864C115.607 88.0864 117.389 90.3364 117.389 93.8824C117.389 97.4284 115.607 99.6964 113.141 99.6964C110.693 99.6964 108.911 97.4284 108.911 93.8824C108.911 90.3364 110.693 88.0864 113.141 88.0864ZM113.141 89.7964C111.701 89.7964 110.711 91.3264 110.711 93.8824C110.711 96.4564 111.701 98.0044 113.141 98.0044C114.581 98.0044 115.571 96.4564 115.571 93.8824C115.571 91.3264 114.581 89.7964 113.141 89.7964ZM126.856 87.1684H128.71V88.5004H136V87.1684H137.872V92.6404H126.856V87.1684ZM128.71 89.9044V91.2004H136V89.9044H128.71ZM124.912 93.7924H139.78V95.2864H124.912V93.7924ZM126.676 96.5284H137.926V100.434H128.566V102.216H126.694V99.1024H136.072V97.9324H126.676V96.5284ZM126.694 101.748H138.394V103.188H126.694V101.748ZM153.134 86.8624H155.024V103.35H153.134V86.8624ZM146.258 88.0864C148.724 88.0864 150.506 90.3364 150.506 93.8824C150.506 97.4284 148.724 99.6964 146.258 99.6964C143.81 99.6964 142.028 97.4284 142.028 93.8824C142.028 90.3364 143.81 88.0864 146.258 88.0864ZM146.258 89.7964C144.818 89.7964 143.828 91.3264 143.828 93.8824C143.828 96.4564 144.818 98.0044 146.258 98.0044C147.698 98.0044 148.688 96.4564 148.688 93.8824C148.688 91.3264 147.698 89.7964 146.258 89.7964ZM165.996 96.9424H167.436V97.6804C167.436 99.9844 166.194 102.198 163.728 103.098L162.81 101.712C164.916 100.974 165.996 99.2644 165.996 97.6804V96.9424ZM166.446 96.9424H167.814V97.6804C167.814 99.3004 168.732 101.028 170.712 101.838L169.938 103.26C167.454 102.306 166.446 99.9664 166.446 97.6804V96.9424ZM172.044 96.9424H173.412V97.6804C173.412 99.7684 172.368 102.252 169.938 103.26L169.164 101.838C171.126 100.956 172.044 99.1204 172.044 97.6804V96.9424ZM172.458 96.9424H173.898V97.6804C173.898 99.3724 174.96 101.028 177.084 101.712L176.166 103.098C173.664 102.234 172.458 100.092 172.458 97.6804V96.9424ZM173.754 86.8984H175.644V96.2404H173.754V86.8984ZM166.77 87.7984C169.29 87.7984 171.126 89.3824 171.126 91.6864C171.126 93.9544 169.29 95.5564 166.77 95.5564C164.25 95.5564 162.396 93.9544 162.396 91.6864C162.396 89.3824 164.25 87.7984 166.77 87.7984ZM166.77 89.3644C165.312 89.3644 164.232 90.2824 164.232 91.6864C164.232 93.0904 165.312 93.9904 166.77 93.9904C168.228 93.9904 169.29 93.0904 169.29 91.6864C169.29 90.2824 168.228 89.3644 166.77 89.3644ZM183.076 88.0864C185.506 88.0864 187.234 90.3364 187.234 93.8824C187.234 97.4284 185.506 99.6964 183.076 99.6964C180.646 99.6964 178.918 97.4284 178.918 93.8824C178.918 90.3364 180.646 88.0864 183.076 88.0864ZM183.076 89.7964C181.672 89.7964 180.718 91.3264 180.718 93.8824C180.718 96.4564 181.672 98.0044 183.076 98.0044C184.498 98.0044 185.452 96.4564 185.452 93.8824C185.452 91.3264 184.498 89.7964 183.076 89.7964ZM190.42 86.8624H192.292V103.35H190.42V86.8624ZM186.658 93.0004H191.23V94.5124H186.658V93.0004ZM198.681 95.3044H200.553V100.074H198.681V95.3044ZM204.711 95.3044H206.601V100.074H204.711V95.3044ZM195.207 99.7684H210.111V101.316H195.207V99.7684ZM202.623 87.8164C206.133 87.8164 208.671 89.5084 208.671 92.1364C208.671 94.7464 206.133 96.4384 202.623 96.4384C199.113 96.4384 196.575 94.7464 196.575 92.1364C196.575 89.5084 199.113 87.8164 202.623 87.8164ZM202.623 89.2924C200.139 89.2924 198.411 90.3904 198.411 92.1364C198.411 93.8644 200.139 94.9624 202.623 94.9624C205.107 94.9624 206.835 93.8644 206.835 92.1364C206.835 90.3904 205.107 89.2924 202.623 89.2924Z" fill="white"/>
<path d="M232.81 43.5197H247.714V45.0317H232.81V43.5197ZM239.47 44.3117H241.342V47.9477H239.47V44.3117ZM234.628 49.5497H246.058V51.0797H234.628V49.5497ZM234.628 46.5797H236.5V50.1617H234.628V46.5797ZM234.754 35.4737H236.608V37.3817H243.898V35.4737H245.77V42.1337H234.754V35.4737ZM236.608 38.8217V40.6397H243.898V38.8217H236.608ZM254.733 35.6717C257.199 35.6717 258.981 37.0757 258.981 39.1097C258.981 41.1437 257.199 42.5657 254.733 42.5657C252.267 42.5657 250.485 41.1437 250.485 39.1097C250.485 37.0757 252.267 35.6717 254.733 35.6717ZM254.733 37.2197C253.311 37.2197 252.303 37.9577 252.303 39.1097C252.303 40.2797 253.311 40.9997 254.733 40.9997C256.155 40.9997 257.181 40.2797 257.181 39.1097C257.181 37.9577 256.155 37.2197 254.733 37.2197ZM253.869 44.3117H255.759V50.8997H253.869V44.3117ZM261.105 34.9517H262.977V51.4037H261.105V34.9517ZM249.621 45.3197L249.387 43.7537C252.357 43.7537 256.479 43.7177 260.043 43.1777L260.169 44.5637C256.515 45.2657 252.555 45.3017 249.621 45.3197ZM277.627 34.9517H279.517V51.4037H277.627V34.9517ZM272.803 36.6977H274.657C274.657 41.5757 272.713 45.7157 267.061 48.4697L266.071 46.9577C270.805 44.6717 272.803 41.4137 272.803 37.0217V36.6977ZM266.881 36.6977H273.649V38.2097H266.881V36.6977ZM293.358 34.9337H295.248V51.3857H293.358V34.9337ZM294.744 41.4497H297.714V42.9977H294.744V41.4497ZM289.092 36.6797H290.946C290.946 41.4677 288.912 45.6977 283.53 48.3977L282.468 46.9577C286.914 44.6897 289.092 41.3957 289.092 37.0037V36.6797ZM283.296 36.6797H290.064V38.2097H283.296V36.6797ZM309.567 39.8477H311.439V42.2597H309.567V39.8477ZM309.261 36.0317H310.899V36.4997C310.899 38.8757 308.199 40.5137 304.401 40.8197L303.807 39.3977C307.047 39.1817 309.261 37.9397 309.261 36.4997V36.0317ZM310.161 36.0317H311.781V36.4997C311.781 37.9397 313.995 39.1817 317.253 39.3977L316.659 40.8197C312.861 40.5137 310.161 38.8757 310.161 36.4997V36.0317ZM304.455 35.4197H316.623V36.8597H304.455V35.4197ZM304.455 45.0317H316.587V46.4897H304.455V45.0317ZM303.087 41.5937H317.991V43.0877H303.087V41.5937ZM310.503 47.1377C313.689 47.1377 315.489 47.8937 315.489 49.2977C315.489 50.7377 313.689 51.4757 310.503 51.4757C307.335 51.4757 305.535 50.7377 305.535 49.2977C305.535 47.8937 307.335 47.1377 310.503 47.1377ZM310.503 48.4157C308.541 48.4157 307.479 48.6857 307.479 49.2977C307.479 49.9097 308.541 50.2157 310.503 50.2157C312.483 50.2157 313.545 49.9097 313.545 49.2977C313.545 48.6857 312.483 48.4157 310.503 48.4157ZM309.585 43.6817H311.457V45.9317H309.585V43.6817ZM324.038 36.1577C326.486 36.1577 328.25 38.4077 328.25 41.9537C328.25 45.4997 326.486 47.7677 324.038 47.7677C321.59 47.7677 319.826 45.4997 319.826 41.9537C319.826 38.4077 321.59 36.1577 324.038 36.1577ZM324.038 37.8677C322.616 37.8677 321.626 39.3977 321.626 41.9537C321.626 44.5277 322.616 46.0757 324.038 46.0757C325.46 46.0757 326.45 44.5277 326.45 41.9537C326.45 39.3977 325.46 37.8677 324.038 37.8677ZM330.518 34.9517H332.408V51.4037H330.518V34.9517ZM331.976 41.3597H334.964V42.9257H331.976V41.3597ZM339.697 43.3757H341.569V48.1457H339.697V43.3757ZM345.727 43.3757H347.617V48.1457H345.727V43.3757ZM336.223 47.8397H351.127V49.3877H336.223V47.8397ZM343.639 35.8877C347.149 35.8877 349.687 37.5797 349.687 40.2077C349.687 42.8177 347.149 44.5097 343.639 44.5097C340.129 44.5097 337.591 42.8177 337.591 40.2077C337.591 37.5797 340.129 35.8877 343.639 35.8877ZM343.639 37.3637C341.155 37.3637 339.427 38.4617 339.427 40.2077C339.427 41.9357 341.155 43.0337 343.639 43.0337C346.123 43.0337 347.851 41.9357 347.851 40.2077C347.851 38.4617 346.123 37.3637 343.639 37.3637Z" fill="white"/>
<defs>
<filter id="filter0_bdi_319_931" x="169" y="107.637" width="263" height="121.367" filterUnits="userSpaceOnUse" color-interpolation-filters="sRGB">
<feFlood flood-opacity="0" result="BackgroundImageFix"/>
<feGaussianBlur in="BackgroundImageFix" stdDeviation="4.5"/>
<feComposite in2="SourceAlpha" operator="in" result="effect1_backgroundBlur_319_931"/>
<feColorMatrix in="SourceAlpha" type="matrix" values="0 0 0 0 0 0 0 0 0 0 0 0 0 0 0 0 0 0 127 0" result="hardAlpha"/>
<feOffset dx="0.75" dy="0.75"/>
<feComposite in2="hardAlpha" operator="out"/>
<feColorMatrix type="matrix" values="0 0 0 0 0.0828132 0 0 0 0 0.694934 0 0 0 0 0.757487 0 0 0 1 0"/>
<feBlend mode="normal" in2="effect1_backgroundBlur_319_931" result="effect2_dropShadow_319_931"/>
<feBlend mode="normal" in="SourceGraphic" in2="effect2_dropShadow_319_931" result="shape"/>
<feColorMatrix in="SourceAlpha" type="matrix" values="0 0 0 0 0 0 0 0 0 0 0 0 0 0 0 0 0 0 127 0" result="hardAlpha"/>
<feOffset dx="1" dy="3"/>
<feGaussianBlur stdDeviation="1.5"/>
<feComposite in2="hardAlpha" operator="arithmetic" k2="-1" k3="1"/>
<feColorMatrix type="matrix" values="0 0 0 0 0.819141 0 0 0 0 0.966389 0 0 0 0 1 0 0 0 0.34 0"/>
<feBlend mode="normal" in2="shape" result="effect3_innerShadow_319_931"/>
</filter>
<filter id="filter1_bdi_319_931" x="196" y="-9" width="192" height="121.367" filterUnits="userSpaceOnUse" color-interpolation-filters="sRGB">
<feFlood flood-opacity="0" result="BackgroundImageFix"/>
<feGaussianBlur in="BackgroundImageFix" stdDeviation="4.5"/>
<feComposite in2="SourceAlpha" operator="in" result="effect1_backgroundBlur_319_931"/>
<feColorMatrix in="SourceAlpha" type="matrix" values="0 0 0 0 0 0 0 0 0 0 0 0 0 0 0 0 0 0 127 0" result="hardAlpha"/>
<feOffset dx="0.75" dy="0.75"/>
<feComposite in2="hardAlpha" operator="out"/>
<feColorMatrix type="matrix" values="0 0 0 0 0.578902 0 0 0 0 0.320636 0 0 0 0 0.700439 0 0 0 0.82 0"/>
<feBlend mode="normal" in2="effect1_backgroundBlur_319_931" result="effect2_dropShadow_319_931"/>
<feBlend mode="normal" in="SourceGraphic" in2="effect2_dropShadow_319_931" result="shape"/>
<feColorMatrix in="SourceAlpha" type="matrix" values="0 0 0 0 0 0 0 0 0 0 0 0 0 0 0 0 0 0 127 0" result="hardAlpha"/>
<feOffset dx="1" dy="3"/>
<feGaussianBlur stdDeviation="1.5"/>
<feComposite in2="hardAlpha" operator="arithmetic" k2="-1" k3="1"/>
<feColorMatrix type="matrix" values="0 0 0 0 0.785751 0 0 0 0 0.768911 0 0 0 0 0.979411 0 0 0 0.16 0"/>
<feBlend mode="normal" in2="shape" result="effect3_innerShadow_319_931"/>
</filter>
<filter id="filter2_bdi_319_931" x="-9" y="42.8384" width="256" height="121.686" filterUnits="userSpaceOnUse" color-interpolation-filters="sRGB">
<feFlood flood-opacity="0" result="BackgroundImageFix"/>
<feGaussianBlur in="BackgroundImageFix" stdDeviation="4.5"/>
<feComposite in2="SourceAlpha" operator="in" result="effect1_backgroundBlur_319_931"/>
<feColorMatrix in="SourceAlpha" type="matrix" values="0 0 0 0 0 0 0 0 0 0 0 0 0 0 0 0 0 0 127 0" result="hardAlpha"/>
<feOffset dx="0.75" dy="0.75"/>
<feComposite in2="hardAlpha" operator="out"/>
<feColorMatrix type="matrix" values="0 0 0 0 0.76862 0 0 0 0 0.274909 0 0 0 0 0.559896 0 0 0 0.92 0"/>
<feBlend mode="normal" in2="effect1_backgroundBlur_319_931" result="effect2_dropShadow_319_931"/>
<feBlend mode="normal" in="SourceGraphic" in2="effect2_dropShadow_319_931" result="shape"/>
<feColorMatrix in="SourceAlpha" type="matrix" values="0 0 0 0 0 0 0 0 0 0 0 0 0 0 0 0 0 0 127 0" result="hardAlpha"/>
<feOffset dx="1" dy="3"/>
<feGaussianBlur stdDeviation="1.5"/>
<feComposite in2="hardAlpha" operator="arithmetic" k2="-1" k3="1"/>
<feColorMatrix type="matrix" values="0 0 0 0 0.97736 0 0 0 0 0.828895 0 0 0 0 0.916089 0 0 0 0.35 0"/>
<feBlend mode="normal" in2="shape" result="effect3_innerShadow_319_931"/>
</filter>
<linearGradient id="paint0_linear_319_931" x1="143" y1="77.7686" x2="397.946" y2="257.506" gradientUnits="userSpaceOnUse">
<stop stop-color="#68FFDB"/>
<stop offset="0.950591" stop-color="#2EA7FF"/>
</linearGradient>
<linearGradient id="paint1_linear_319_931" x1="142.133" y1="-6.90685" x2="458.657" y2="128.405" gradientUnits="userSpaceOnUse">
<stop stop-color="#0043EE"/>
<stop offset="1" stop-color="#D955DC"/>
</linearGradient>
<linearGradient id="paint2_linear_319_931" x1="-43.7" y1="56.2895" x2="241.716" y2="178.667" gradientUnits="userSpaceOnUse">
<stop stop-color="#F3AEAE"/>
<stop offset="1" stop-color="#FF33AD"/>
</linearGradient>
</defs>
</svg>
