<svg width="40" height="14" viewBox="0 0 40 14" fill="none" xmlns="http://www.w3.org/2000/svg">
<path d="M3.16 11.42H5.6C6.22667 11.42 6.80667 11.3133 7.34 11.1C7.88667 10.8733 8.36 10.56 8.76 10.16C9.17333 9.76 9.48667 9.29333 9.7 8.76C9.92667 8.22667 10.04 7.64667 10.04 7.02C10.04 6.39333 9.92667 5.81333 9.7 5.28C9.47333 4.73333 9.16 4.26 8.76 3.86C8.36 3.46 7.88667 3.14667 7.34 2.92C6.80667 2.69333 6.22667 2.58 5.6 2.58H3.16V11.42ZM0.26 14V-9.53674e-07H5.64C6.69333 -9.53674e-07 7.66667 0.179999 8.56 0.539999C9.45333 0.886666 10.2333 1.38 10.9 2.02C11.5667 2.66 12.0867 3.40667 12.46 4.26C12.8467 5.11333 13.04 6.03333 13.04 7.02C13.04 8.02 12.8533 8.94 12.48 9.78C12.1067 10.62 11.58 11.36 10.9 12C10.2333 12.6267 9.45333 13.12 8.56 13.48C7.66667 13.8267 6.69333 14 5.64 14H0.26ZM13.1044 14L18.8644 -9.53674e-07H22.2044L27.9044 14H24.7644L23.3444 10.32H17.5644L16.1244 14H13.1044ZM18.4644 8H22.4644L20.4644 2.84L18.4644 8ZM31.0547 14V8.64L25.3347 -9.53674e-07H28.6747L32.5947 6.08L36.5347 -9.53674e-07H39.6947L33.9547 8.66V14H31.0547Z" fill="#E2E8F0"/>
</svg>
