<svg width="18" height="18" viewBox="0 0 18 18" fill="none" xmlns="http://www.w3.org/2000/svg">
<path d="M1.04639 2.96973H16.8993" stroke="#A3A3A3" stroke-width="1.5" stroke-linecap="round"/>
<path d="M6.00049 13.8594L6.00049 5.93978" stroke="#A3A3A3" stroke-width="1.5" stroke-linecap="round"/>
<path d="M8.97314 13.8594L8.97314 5.93978" stroke="#A3A3A3" stroke-width="1.5" stroke-linecap="round"/>
<path d="M11.9453 13.8594L11.9453 5.93978" stroke="#A3A3A3" stroke-width="1.5" stroke-linecap="round"/>
<path fill-rule="evenodd" clip-rule="evenodd" d="M7.00977 1.5H10.9362C11.2124 1.5 11.4362 1.72386 11.4362 2V2.4598H6.50977V2C6.50977 1.72386 6.73362 1.5 7.00977 1.5ZM5.00977 2C5.00977 0.895429 5.9052 0 7.00977 0H10.9362C12.0408 0 12.9362 0.895431 12.9362 2V2.4598V2.96985H5.00977V2.4598V2Z" fill="#A3A3A3"/>
<path fill-rule="evenodd" clip-rule="evenodd" d="M2.03711 4.94975V13.8191C2.03711 16.0282 3.82797 17.8191 6.03711 17.8191H11.9084C14.1176 17.8191 15.9084 16.0282 15.9084 13.8191V4.94975H14.4084V13.8191C14.4084 15.1998 13.2891 16.3191 11.9084 16.3191H6.03711C4.6564 16.3191 3.53711 15.1998 3.53711 13.8191V4.94975H2.03711Z" fill="#A3A3A3"/>
</svg>
