<svg width="15" height="12" viewBox="0 0 15 12" fill="none" xmlns="http://www.w3.org/2000/svg">
<mask id="path-1-inside-1_662_302" fill="white">
<path fill-rule="evenodd" clip-rule="evenodd" d="M7.5 11.5C11.6421 11.5 15 7.98224 15 6C15 4.01776 11.6421 0.5 7.5 0.5C3.35786 0.5 0 4.01776 0 6C0 7.98224 3.35786 11.5 7.5 11.5ZM7.5 7.5C8.32843 7.5 9 6.82843 9 6C9 5.17157 8.32843 4.5 7.5 4.5C6.67157 4.5 6 5.17157 6 6C6 6.82843 6.67157 7.5 7.5 7.5Z"/>
</mask>
<path d="M14 6C14 6.23692 13.8889 6.64242 13.5621 7.16645C13.2458 7.67366 12.771 8.22029 12.1644 8.72406C10.9458 9.73614 9.28955 10.5 7.5 10.5V12.5C9.85258 12.5 11.9464 11.505 13.4422 10.2626C14.1929 9.63917 14.8164 8.93469 15.2591 8.22481C15.6913 7.53176 16 6.7542 16 6H14ZM7.5 1.5C9.28955 1.5 10.9458 2.26386 12.1644 3.27594C12.771 3.77971 13.2458 4.32634 13.5621 4.83355C13.8889 5.35758 14 5.76308 14 6H16C16 5.2458 15.6913 4.46824 15.2591 3.77519C14.8164 3.06531 14.1929 2.36083 13.4422 1.73738C11.9464 0.495024 9.85258 -0.5 7.5 -0.5V1.5ZM1 6C1 5.76308 1.11108 5.35758 1.4379 4.83355C1.75422 4.32634 2.22904 3.77971 2.83561 3.27594C4.05421 2.26386 5.71045 1.5 7.5 1.5V-0.5C5.14742 -0.5 3.05365 0.495024 1.55779 1.73738C0.807122 2.36083 0.183595 3.06531 -0.259123 3.77519C-0.691348 4.46824 -1 5.2458 -1 6H1ZM7.5 10.5C5.71045 10.5 4.05421 9.73614 2.83561 8.72406C2.22904 8.22029 1.75422 7.67366 1.4379 7.16645C1.11108 6.64242 1 6.23692 1 6H-1C-1 6.7542 -0.691348 7.53176 -0.259123 8.22481C0.183595 8.93469 0.807122 9.63917 1.55779 10.2626C3.05365 11.505 5.14742 12.5 7.5 12.5V10.5ZM8 6C8 6.27614 7.77614 6.5 7.5 6.5V8.5C8.88071 8.5 10 7.38071 10 6H8ZM7.5 5.5C7.77614 5.5 8 5.72386 8 6H10C10 4.61929 8.88071 3.5 7.5 3.5V5.5ZM7 6C7 5.72386 7.22386 5.5 7.5 5.5V3.5C6.11929 3.5 5 4.61929 5 6H7ZM7.5 6.5C7.22386 6.5 7 6.27614 7 6H5C5 7.38071 6.11929 8.5 7.5 8.5V6.5Z" fill="#A3A3A3" mask="url(#path-1-inside-1_662_302)"/>
</svg>
