<svg width="16" height="16" viewBox="0 0 16 16" fill="none" xmlns="http://www.w3.org/2000/svg">
<mask id="path-1-inside-1_2811_11123" fill="white">
<path fill-rule="evenodd" clip-rule="evenodd" d="M8 14C12.4183 14 16 10.1624 16 8C16 5.83756 12.4183 2 8 2C3.58172 2 0 5.83756 0 8C0 10.1624 3.58172 14 8 14ZM8.00039 9.63636C8.88405 9.63636 9.60039 8.90374 9.60039 8C9.60039 7.09626 8.88405 6.36364 8.00039 6.36364C7.11673 6.36364 6.40039 7.09626 6.40039 8C6.40039 8.90374 7.11673 9.63636 8.00039 9.63636Z"/>
</mask>
<path d="M15 8C15 8.28775 14.8706 8.7501 14.5175 9.32915C14.1743 9.89199 13.6616 10.4949 13.0095 11.0488C11.6992 12.1617 9.92074 13 8 13V15C10.4975 15 12.7191 13.9195 14.3042 12.5731C15.0999 11.8973 15.7587 11.1353 16.2251 10.3704C16.6816 9.62173 17 8.79347 17 8H15ZM8 3C9.92074 3 11.6992 3.8383 13.0095 4.95125C13.6616 5.50514 14.1743 6.10801 14.5175 6.67085C14.8706 7.2499 15 7.71225 15 8H17C17 7.20653 16.6816 6.37827 16.2251 5.62959C15.7587 4.8647 15.0999 4.10273 14.3042 3.42692C12.7191 2.08048 10.4975 1 8 1V3ZM1 8C1 7.71225 1.12936 7.2499 1.48246 6.67085C1.82568 6.10801 2.33844 5.50514 2.99053 4.95125C4.3008 3.8383 6.07927 3 8 3V1C5.50246 1 3.28093 2.08048 1.69576 3.42692C0.900139 4.10273 0.241325 4.8647 -0.225101 5.62959C-0.681643 6.37827 -1 7.20653 -1 8H1ZM8 13C6.07927 13 4.3008 12.1617 2.99053 11.0488C2.33844 10.4949 1.82568 9.89199 1.48246 9.32915C1.12936 8.7501 1 8.28775 1 8H-1C-1 8.79347 -0.681643 9.62173 -0.225101 10.3704C0.241325 11.1353 0.900139 11.8973 1.69576 12.5731C3.28093 13.9195 5.50246 15 8 15V13ZM8.60039 8C8.60039 8.37276 8.31069 8.63636 8.00039 8.63636V10.6364C9.4574 10.6364 10.6004 9.43472 10.6004 8H8.60039ZM8.00039 7.36364C8.31069 7.36364 8.60039 7.62724 8.60039 8H10.6004C10.6004 6.56528 9.4574 5.36364 8.00039 5.36364V7.36364ZM7.40039 8C7.40039 7.62724 7.69009 7.36364 8.00039 7.36364V5.36364C6.54338 5.36364 5.40039 6.56528 5.40039 8H7.40039ZM8.00039 8.63636C7.69009 8.63636 7.40039 8.37276 7.40039 8H5.40039C5.40039 9.43472 6.54338 10.6364 8.00039 10.6364V8.63636Z" fill="#A3A3A3" mask="url(#path-1-inside-1_2811_11123)"/>
</svg>
