<svg width="11" height="13" viewBox="0 0 11 13" fill="none" xmlns="http://www.w3.org/2000/svg">
<path fill-rule="evenodd" clip-rule="evenodd" d="M6.0663 12.7938C7.47047 11.6572 11 8.4829 11 5.29307C11 2.36979 8.53757 0 5.5 0C2.46243 0 0 2.36979 0 5.29307C0 8.4829 3.52953 11.6572 4.9337 12.7938C5.26782 13.0643 5.73218 13.0643 6.0663 12.7938ZM5.5 7.12529C6.32843 7.12529 7 6.4417 7 5.59844C7 4.75519 6.32843 4.0716 5.5 4.0716C4.67157 4.0716 4 4.75519 4 5.59844C4 6.4417 4.67157 7.12529 5.5 7.12529Z" fill="#111111"/>
</svg>
