<svg width="96" height="120" viewBox="0 0 96 120" fill="none" xmlns="http://www.w3.org/2000/svg">
<g clip-path="url(#clip0_273_566)">
<mask id="mask0_273_566" style="mask-type:luminance" maskUnits="userSpaceOnUse" x="0" y="60" width="58" height="60">
<path d="M57.5712 60H0V119.9H57.5712V60Z" fill="white"/>
</mask>
<g mask="url(#mask0_273_566)">
<path d="M30.0355 85.409C27.4927 82.9131 23.5587 82.9131 21.016 85.409C18.3293 88.1045 18.3293 92.597 21.016 95.2426L38.5752 112.713C41.6936 115.808 45.6277 116.657 48.7461 113.562C51.3368 111.016 51.3368 106.474 48.7461 103.928L29.9875 85.3591L30.0355 85.409Z" fill="#26B888"/>
<path fill-rule="evenodd" clip-rule="evenodd" d="M23.3646 85.7568L31.3766 93.6936L25.2357 99.3841L17.0318 91.2477L23.3646 85.7568ZM2.20717 104.076L15.3046 92.7452L23.5565 100.932L16.2162 107.72C22.9808 115.607 16.6479 128.735 1.5355 111.614C1.10372 110.965 0.719912 110.316 0.432056 109.767C-0.33556 107.62 0.0482481 106.123 1.10372 104.975C1.43955 104.625 1.82336 104.326 2.25514 104.076H2.20717Z" fill="#26B888"/>
<path d="M1.05664 105.026L5.71264 101.032L2.54464 109.468L1.05664 105.026Z" fill="#26B888"/>
<path fill-rule="evenodd" clip-rule="evenodd" d="M37.5677 89.8003C41.1659 86.6556 43.7566 82.1631 43.7566 77.2213H43.6606C43.6606 67.6872 35.9365 60 26.3893 60C16.8421 60 9.21387 67.6373 9.21387 77.2213C9.21387 86.8053 18.6651 94.4426 26.4852 94.4426C29.5557 94.4426 32.914 93.2446 35.7926 91.198L28.5482 84.01L27.9725 83.4609L26.869 82.3627L25.5737 81.0649L24.1344 79.6173C22.3113 77.7704 22.1194 74.8253 23.7506 72.9285C24.7101 71.7304 26.0055 70.9318 27.8765 70.9318C31.0909 70.9318 33.3458 74.2762 32.6262 77.1215C32.1944 78.7687 30.7551 80.5657 29.5557 81.8136L37.5677 89.7504V89.8003Z" fill="#26B888"/>
</g>
<mask id="mask1_273_566" style="mask-type:luminance" maskUnits="userSpaceOnUse" x="38" y="60" width="58" height="60">
<path d="M95.9501 60H38.3789V119.9H95.9501V60Z" fill="white"/>
</mask>
<g mask="url(#mask1_273_566)">
<path d="M63.9015 80.9648L54.4502 90.3492L81.8925 117.604C81.8925 117.604 82.7081 117.903 83.0439 117.604L91.9674 108.669L63.9494 80.9648H63.9015Z" fill="#26B888"/>
<path d="M80.3622 109.168C84.3442 91.7471 108.092 97.2878 88.0864 117.155C87.4627 117.654 86.887 118.053 86.3592 118.353C79.5946 121.048 79.1628 109.567 80.3622 109.168Z" fill="#26B888"/>
<path fill-rule="evenodd" clip-rule="evenodd" d="M61.7462 85.7568L69.7582 93.6936L63.6173 99.3841L55.4134 91.2477L61.7462 85.7568ZM39.5333 105.025L53.6863 92.7452L61.9381 100.932L49.9441 112.063C47.8332 114.06 44.5229 113.66 42.8437 111.214L39.3894 106.173C39.1495 105.773 39.5333 104.975 39.5333 104.975V105.025Z" fill="#26B888"/>
<path d="M39.4395 105.024L44.0954 101.03L40.9275 109.466L39.4395 105.024Z" fill="#26B888"/>
<path fill-rule="evenodd" clip-rule="evenodd" d="M75.9448 89.8003C79.543 86.6556 82.1337 82.1631 82.1337 77.2213H82.0377C82.0377 67.6872 74.3136 60 64.7664 60C55.2191 60 47.543 67.6373 47.543 77.2213C47.543 86.8053 56.9942 94.4426 64.8143 94.4426C67.8848 94.4426 71.2431 93.2446 74.1217 91.198L66.8773 84.01L66.3016 83.4609L65.1981 82.3627L63.9028 81.0649L62.4635 79.6173C60.6404 77.7704 60.4485 74.8253 62.0797 72.9285C63.0392 71.7304 64.3346 70.9318 66.2056 70.9318C69.42 70.9318 71.6749 74.2762 70.9553 77.1215C70.5235 78.7687 69.0842 80.5657 67.8848 81.8136L75.8968 89.7504L75.9448 89.8003Z" fill="#26B888"/>
</g>
<path d="M49.2725 113.062L51.6725 110.416L49.2725 108.22V113.062Z" fill="#26B888"/>
<path d="M48.5076 113.861L52.7796 109.418L47.6436 111.814L48.5076 113.861Z" fill="#26B888"/>
<path d="M48.5032 113.865L51.2392 111.015L46.5352 112.415L48.5032 113.865Z" fill="#26B888"/>
</g>
<path fill-rule="evenodd" clip-rule="evenodd" d="M21.3333 0C9.55126 0 0 9.55126 0 21.3333C0 33.1154 9.55126 42.6667 21.3333 42.6667H42.5258L45.0001 48L47.4745 42.6667H68.6667C80.4487 42.6667 90 33.1154 90 21.3333C90 9.55126 80.4487 0 68.6667 0H21.3333Z" fill="white"/>
<circle cx="33" cy="21" r="3" fill="#CCECE2"/>
<circle cx="45" cy="21" r="3" fill="#CCECE2"/>
<circle cx="57.001" cy="21" r="3" fill="#CCECE2"/>
<defs>
<clipPath id="clip0_273_566">
<rect width="96" height="60" fill="white" transform="translate(0 60)"/>
</clipPath>
</defs>
</svg>
