<svg width="16" height="10" viewBox="0 0 16 10" fill="none" xmlns="http://www.w3.org/2000/svg">
<path d="M7.16504 2C7.16504 3.10457 6.26961 4 5.16504 4C4.06047 4 3.16504 3.10457 3.16504 2C3.16504 0.895431 4.06047 0 5.16504 0C6.26961 0 7.16504 0.895431 7.16504 2Z" fill="#111111"/>
<path d="M13.3452 2C13.3452 3.10457 12.4498 4 11.3452 4C10.2406 4 9.34521 3.10457 9.34521 2C9.34521 0.895431 10.2406 0 11.3452 0C12.4498 0 13.3452 0.895431 13.3452 2Z" fill="#111111"/>
<mask id="path-3-inside-1_662_330" fill="white">
<path fill-rule="evenodd" clip-rule="evenodd" d="M5.54571 10C5.51825 9.92503 5.50245 9.84412 5.50058 9.75845C5.47101 8.40643 6.06741 6.73809 7.15482 5.77886C6.47208 5.29816 5.60933 5 4.55476 5C1.81704 5 0.372093 7.00942 0.0132755 9.0055C-0.0844378 9.54907 0.371132 10 0.923416 10H4.55476H5.54571Z"/>
</mask>
<path fill-rule="evenodd" clip-rule="evenodd" d="M5.54571 10C5.51825 9.92503 5.50245 9.84412 5.50058 9.75845C5.47101 8.40643 6.06741 6.73809 7.15482 5.77886C6.47208 5.29816 5.60933 5 4.55476 5C1.81704 5 0.372093 7.00942 0.0132755 9.0055C-0.0844378 9.54907 0.371132 10 0.923416 10H4.55476H5.54571Z" fill="#111111"/>
<path d="M5.50058 9.75845L4.50082 9.78032V9.78032L5.50058 9.75845ZM5.54571 10V11C5.87234 11 6.17838 10.8405 6.36545 10.5727C6.55252 10.305 6.59704 9.96274 6.48469 9.65604L5.54571 10ZM7.15482 5.77886L7.81635 6.52878C8.04589 6.32629 8.17006 6.02982 8.15333 5.72419C8.13659 5.41855 7.9808 5.13741 7.73052 4.96119L7.15482 5.77886ZM0.0132755 9.0055L0.9975 9.18243L0.0132755 9.0055ZM4.50082 9.78032C4.5051 9.97631 4.54154 10.166 4.60673 10.344L6.48469 9.65604C6.49495 9.68403 6.4998 9.71193 6.50034 9.73659L4.50082 9.78032ZM6.4933 5.02893C5.14902 6.21475 4.46593 8.18531 4.50082 9.78032L6.50034 9.73659C6.47608 8.62756 6.9858 7.26142 7.81635 6.52878L6.4933 5.02893ZM7.73052 4.96119C6.87337 4.3577 5.80812 4 4.55476 4V6C5.41055 6 6.0708 6.23862 6.57913 6.59652L7.73052 4.96119ZM4.55476 4C1.18319 4 -0.556062 6.52059 -0.970949 8.82857L0.9975 9.18243C1.30025 7.49825 2.4509 6 4.55476 6V4ZM-0.970949 8.82857C-1.2006 10.1061 -0.122939 11 0.923416 11V9C0.917709 9 0.930126 8.99723 0.951463 9.01981C0.963455 9.0325 0.979368 9.05494 0.989927 9.08828C1.00113 9.12365 1.00191 9.15788 0.9975 9.18243L-0.970949 8.82857ZM0.923416 11H4.55476V9H0.923416V11ZM4.55476 11H5.54571V9H4.55476V11Z" fill="#111111" mask="url(#path-3-inside-1_662_330)"/>
<path d="M6.99902 9.45C6.87147 9.45 6.76537 9.39755 6.70154 9.32969C6.64259 9.26701 6.61963 9.1945 6.63581 9.11108C6.984 7.31531 8.36124 5.55 10.999 5.55C13.6368 5.55 15.014 7.31531 15.3622 9.11108C15.3784 9.1945 15.3555 9.26701 15.2965 9.32969C15.2327 9.39755 15.1266 9.45 14.999 9.45H6.99902Z" fill="#111111" stroke="#111111" stroke-width="1.1" stroke-linejoin="round"/>
</svg>
