<svg width="16" height="16" viewBox="0 0 16 16" fill="none" xmlns="http://www.w3.org/2000/svg">
<g clip-path="url(#clip0_2779_10369)">
<rect x="8.12891" y="6.46875" width="2.96697" height="10.4089" rx="1" transform="rotate(45 8.12891 6.46875)" fill="#A3A3A3"/>
<rect x="7.99316" y="4.49951" width="5.93394" height="2.60221" transform="rotate(45 7.99316 4.49951)" fill="#08916F"/>
<path d="M9.04395 5.54834L7.2039 7.38838" stroke="#077459" stroke-width="0.5" stroke-linecap="round"/>
<path d="M10.0947 6.59863L8.25468 8.43868" stroke="#077459" stroke-width="0.5" stroke-linecap="round"/>
<path d="M11.1436 7.64795L9.30351 9.48799" stroke="#077459" stroke-width="0.5" stroke-linecap="round"/>
<path d="M7.8787 1.72789C8.06337 0.970127 9.00587 0.706061 9.55737 1.25756L15.4341 7.1343C15.9856 7.6858 15.7215 8.62829 14.9638 8.81297L12.7995 9.34042C12.4603 9.42309 12.1025 9.32285 11.8556 9.07596L7.61571 4.83603C7.36882 4.58914 7.26858 4.23137 7.35125 3.89214L7.8787 1.72789Z" fill="#00B488"/>
<path d="M3.58727 6.0203C2.8295 6.20498 2.56544 7.14747 3.11694 7.69897L8.99367 13.5757C9.54518 14.1272 10.4877 13.8631 10.6723 13.1054L11.1998 10.9411C11.2825 10.6019 11.1822 10.2441 10.9353 9.99724L6.69541 5.75731C6.44852 5.51042 6.09074 5.41018 5.75152 5.49285L3.58727 6.0203Z" fill="#00B488"/>
</g>
<defs>
<clipPath id="clip0_2779_10369">
<rect width="16" height="16" fill="white"/>
</clipPath>
</defs>
</svg>
