<svg width="178" height="107" viewBox="0 0 178 107" fill="none" xmlns="http://www.w3.org/2000/svg">
<path fill-rule="evenodd" clip-rule="evenodd" d="M101.444 72.8544C102.972 72.8544 104.322 72.3859 105.388 71.5821C107.527 72.5671 109.4 72.0267 108.85 71.7805C107.463 71.1545 106.749 70.5731 107.166 69.4307C107.623 68.5722 107.99 67.0262 107.766 65.4323C107.189 61.3245 103.423 58 99.3597 58C95.2963 58 92.4666 61.3245 93.0421 65.4255C93.6176 69.5265 97.3805 72.851 101.444 72.851L101.444 72.8544Z" fill="#00B488"/>
<g clip-path="url(#clip0_1123_7428)">
<path d="M99.9549 64.311L98.8848 65.4765L102.933 68.8545C102.933 68.8545 103.046 68.894 103.08 68.8545L104.089 67.7483L99.9549 64.311Z" fill="white"/>
<path d="M102.59 67.8075C102.805 65.6444 105.996 66.3358 103.737 68.7952C103.667 68.8545 103.596 68.9039 103.533 68.9434C102.699 69.2792 102.44 67.8569 102.59 67.8075Z" fill="white"/>
<path fill-rule="evenodd" clip-rule="evenodd" d="M99.7584 64.9062L100.938 65.8892L100.236 66.5964L99.0271 65.589L99.7584 64.9062ZM97.323 67.1797L98.8313 65.7716L100.048 66.7856L99.2095 67.6304C100.228 68.6112 99.6291 70.2336 97.3646 68.1138C97.2947 68.0347 97.2347 67.9557 97.1858 67.8866C97.0505 67.6199 97.0731 67.4322 97.1908 67.294C97.2271 67.2497 97.2722 67.2118 97.323 67.1797Z" fill="white"/>
<path d="M97.1908 67.2941L97.7285 66.8003L97.4642 67.8473L97.1908 67.2941Z" fill="white"/>
<path fill-rule="evenodd" clip-rule="evenodd" d="M101.682 65.4073C102.095 65.0174 102.355 64.4618 102.268 63.8468H102.259C102.092 62.6616 100.951 61.7134 99.7072 61.7134C98.4637 61.7134 97.5981 62.6616 97.7644 63.8468C97.9308 65.0321 99.2975 65.9803 100.316 65.9803C100.717 65.9803 101.13 65.8318 101.474 65.58L100.403 64.6864L100.32 64.6173L100.32 64.6172L100.154 64.479L100.153 64.4778L99.9649 64.3209L99.9654 64.3204L99.7539 64.1431C99.487 63.916 99.4064 63.5505 99.5885 63.3135C99.695 63.1653 99.8476 63.0665 100.092 63.0665C100.513 63.0665 100.865 63.4814 100.817 63.837C100.789 64.0383 100.634 64.2636 100.5 64.4211L101.682 65.4073Z" fill="white"/>
</g>
<path fill-rule="evenodd" clip-rule="evenodd" d="M171.717 7C175.425 7 178.245 10.3292 177.636 13.9864L176.8 19H176.762L164.616 97.7986C164.165 100.725 161.647 102.885 158.686 102.885H23.9783C20.3003 102.885 17.4881 99.6055 18.0484 95.9704L29.1854 23.7191C29.6364 20.7929 32.1546 18.6331 35.1153 18.6331H110.759L110.886 18.6329C113.679 18.6329 115.816 18.0421 117.181 16.7112L117.964 12.0136C118.447 9.12048 120.95 7 123.883 7H171.717Z" fill="#D9D9D9"/>
<rect x="0.316429" y="0.160869" width="54.4947" height="24.4768" rx="12.2384" transform="matrix(0.952017 -0.306045 0.313699 0.949523 -0.0352813 16.9355)" fill="white"/>
<rect x="0.316429" y="0.160869" width="54.4947" height="24.4768" rx="12.2384" transform="matrix(0.952017 -0.306045 0.313699 0.949523 -0.0352813 16.9355)" stroke="#A9E5D2" stroke-width="0.5"/>
<path d="M18.8878 20.0233L23.6974 18.4772L25.2521 23.183L20.4425 24.7291L18.8878 20.0233ZM22.8217 19.8048L20.3769 20.5908L21.303 23.3938L23.7477 22.6078L22.8217 19.8048ZM25.2159 17.1445L26.4154 16.7589L28.6929 23.6524L27.4934 24.038L25.2159 17.1445ZM26.9876 19.6L28.7926 19.0198L29.1164 19.9997L27.3113 20.5799L26.9876 19.6ZM24.7039 24.3928L25.7321 24.0622L25.83 24.3585C26.4586 26.2613 25.269 28.1689 23.1045 29.3059L22.3237 28.5107C24.2593 27.5608 25.2385 26.0108 24.8018 24.689L24.7039 24.3928ZM24.8753 24.3377L25.892 24.0108L25.9899 24.3071C26.4266 25.6288 28.1664 26.3048 30.2749 25.9546L30.1304 27.0473C27.7024 27.3866 25.6018 26.5368 24.9732 24.6339L24.8753 24.3377ZM31.8528 16.0067L32.8353 15.6908L33.0762 16.4201C33.6861 18.2659 33.1201 20.2251 31.4575 21.4276L30.5396 20.6765C32.019 19.6464 32.5342 18.069 32.0938 16.7359L31.8528 16.0067ZM32.0927 15.9296L33.0752 15.6137L33.3161 16.343C33.734 17.6077 35.0775 18.4993 36.8464 18.46L36.561 19.5853C34.5335 19.6069 32.9209 18.4363 32.3337 16.6588L32.0927 15.9296ZM29.5119 16.4567L35.2126 14.6241L35.5288 15.5812L29.8281 17.4138L29.5119 16.4567ZM36.2965 13.5824L37.496 13.1968L39.3594 18.837L38.1599 19.2226L36.2965 13.5824ZM32.701 21.5194L33.8777 21.1412L34.2429 22.2464L38.6983 20.8141L38.3332 19.7089L39.5213 19.3269L40.8953 23.4858L34.075 25.6783L32.701 21.5194ZM34.5515 23.1807L34.9317 24.3316L39.3872 22.8993L39.007 21.7484L34.5515 23.1807Z" fill="#111111"/>
<g filter="url(#filter0_i_1123_7428)">
<path fill-rule="evenodd" clip-rule="evenodd" d="M109.876 43.3106C104.422 42.4792 99.2715 46.2181 98.373 51.6618C97.4744 57.1054 101.167 62.1923 106.622 63.0237L117.511 64.6836L117.197 66.5882C117.124 67.0276 117.62 67.3288 117.983 67.0656L120.615 65.1567L127.401 66.1911C132.855 67.0225 138.005 63.2835 138.904 57.8399C139.802 52.3963 136.109 47.3093 130.655 46.4779L109.876 43.3106Z" fill="url(#paint0_linear_1123_7428)" fill-opacity="0.76"/>
</g>
<path d="M109.406 50.5855L110.042 50.6825L109.989 51.0071C109.789 52.2157 108.52 52.9853 107.021 52.9978L106.834 52.3675C108.144 52.3829 109.215 51.7389 109.352 50.9101L109.406 50.5855ZM109.537 50.6055L110.167 50.7014L110.113 51.026C109.979 51.841 110.794 52.7865 112.045 53.161L111.664 53.7048C110.243 53.2477 109.285 52.1318 109.483 50.9301L109.537 50.6055ZM108.787 54.3288L109.507 54.4383L109.116 56.8003L108.397 56.6907L108.787 54.3288ZM106.385 53.4957L112.101 54.3661L112.003 54.96L106.287 54.0896L106.385 53.4957ZM114.741 51.5253L115.336 51.616L115.236 52.2237C115.031 53.46 114.236 54.408 113.047 54.6517L112.761 54.0205C113.815 53.82 114.489 53.0516 114.64 52.1331L114.741 51.5253ZM114.879 51.5464L115.467 51.636L115.357 52.3059C115.222 53.1208 115.636 53.9627 116.533 54.4179L116.059 54.9262C115.049 54.3831 114.584 53.3352 114.769 52.2163L114.879 51.5464ZM117.536 51.6111L118.263 51.7218L117.637 55.5064L116.911 55.3958L117.536 51.6111ZM117.805 53.2451L118.899 53.4116L118.799 54.0125L117.706 53.846L117.805 53.2451ZM115.576 55.3555C116.877 55.5536 117.608 56.1109 117.485 56.8568C117.362 57.6027 116.487 57.9155 115.186 57.7174C113.878 57.5183 113.147 56.961 113.271 56.2151C113.394 55.4692 114.268 55.1563 115.576 55.3555ZM115.483 55.9218C114.604 55.788 114.056 55.9241 113.99 56.3247C113.924 56.7252 114.401 57.0173 115.28 57.1511C116.159 57.285 116.699 57.1478 116.765 56.7472C116.831 56.3466 116.362 56.0556 115.483 55.9218ZM119.188 56.1673L119.624 56.2337C120.392 56.3507 121.087 56.4353 121.941 56.4167L121.907 57.0132C121.03 57.0356 120.314 56.9478 119.525 56.8276L119.089 56.7612L119.188 56.1673ZM119.758 52.6291L122.007 52.9716L121.628 55.2645L120.099 55.0316L119.855 56.5096L119.149 56.4021L119.489 54.344L121.025 54.578L121.212 53.4453L119.662 53.2093L119.758 52.6291ZM124.393 52.6553L125.085 52.7607L124.042 59.073L123.35 58.9677L124.393 52.6553ZM122.035 54.5618L123.039 54.7146L122.94 55.3086L121.937 55.1558L122.035 54.5618ZM123.09 52.5985L123.762 52.7007L122.794 58.5573L122.123 58.455L123.09 52.5985ZM130.581 53.5903L131.307 53.701L130.262 60.0272L129.535 59.9165L130.581 53.5903ZM128.962 55.659L130.401 55.8782L130.304 56.4652L128.865 56.2461L128.962 55.659ZM127.442 54.0823L128.023 54.1709L127.894 54.9513C127.657 56.3878 126.74 57.6855 125.57 58.0667L125.236 57.4281C126.289 57.1071 127.124 56.0023 127.313 54.8628L127.442 54.0823ZM127.601 54.1066L128.175 54.194L128.046 54.9745C127.868 56.0518 128.307 57.3011 129.208 57.9055L128.692 58.4075C127.692 57.7172 127.244 56.2683 127.472 54.887L127.601 54.1066ZM126.123 53.5629L129.597 54.0919L129.5 54.6789L126.026 54.15L126.123 53.5629Z" fill="white"/>
<g clip-path="url(#clip1_1123_7428)">
<rect width="54.9578" height="24.9938" rx="12.4969" transform="matrix(0.504021 -0.863691 0.871435 0.490511 123 52.7939)" fill="white"/>
<path d="M145.812 46.6671L150.82 38.0855L151.72 38.5917L146.712 47.1733L145.812 46.6671ZM145.679 41.6351L146.308 40.5572L148.849 41.9876L148.22 43.0655L145.679 41.6351ZM139.634 41.9229L143.499 35.3001L148.09 37.8841L144.225 44.5069L139.634 41.9229ZM143.761 36.8517L141.136 41.3498L143.97 42.945L146.595 38.4469L143.761 36.8517ZM147.879 26.1045L148.514 25.0162L153.942 28.0711L153.307 29.1594L147.879 26.1045ZM150.806 34.5397L154.423 28.3419L157.947 30.3255L154.33 36.5234L150.806 34.5397ZM154.668 29.898L152.297 33.9608L154.074 34.9614L156.445 30.8986L154.668 29.898ZM146.003 30.3907C146.85 28.9397 148.387 28.4005 149.726 29.1539C151.043 29.8956 151.367 31.4825 150.521 32.9335C149.674 34.3845 148.11 34.9223 146.792 34.1806C145.454 33.4272 145.156 31.8417 146.003 30.3907ZM146.913 30.9028C146.423 31.7423 146.593 32.6643 147.409 33.1235C148.225 33.5826 149.11 33.255 149.6 32.4155C150.09 31.576 149.924 30.6702 149.109 30.2111C148.293 29.752 147.403 30.0633 146.913 30.9028Z" fill="#111111"/>
</g>
<rect x="0.343864" y="-0.093295" width="54.4578" height="24.4938" rx="12.2469" transform="matrix(0.504021 -0.863691 0.871435 0.490511 123.252 53.0434)" stroke="#A9E5D2" stroke-width="0.5"/>
<g filter="url(#filter1_i_1123_7428)">
<path fill-rule="evenodd" clip-rule="evenodd" d="M31.6919 92.1008C25.2346 93.5642 18.7126 89.5398 17.1245 83.1121C15.5364 76.6844 19.4837 70.2874 25.9409 68.824L40.1963 65.5933L40.0318 61.8506C40.0118 61.3959 40.5664 61.1647 40.8897 61.4929L44.0652 64.7165L51.3181 63.0727C57.7753 61.6093 64.2974 65.6337 65.8855 72.0614C67.4736 78.4891 63.5263 84.8861 57.0691 86.3495L31.6919 92.1008Z" fill="url(#paint1_linear_1123_7428)" fill-opacity="0.76"/>
</g>
<path d="M28.8219 83.358L28.6396 82.6202L29.9036 82.3337L28.9211 78.3573L27.8834 78.5925L27.7433 78.0255C28.2665 77.8085 28.6064 77.5839 28.892 77.3059L29.5708 77.1521L30.8008 82.1304L31.9243 81.8757L32.1066 82.6136L28.8219 83.358ZM36.4304 74.8266L37.2496 74.6409L38.5199 79.7823L37.7007 79.968L36.4304 74.8266ZM34.146 81.9873L39.0068 80.8858L39.1699 81.5459L34.3091 82.6475L34.146 81.9873ZM33.7335 80.3176L34.5527 80.1319L35.0267 82.0502L34.2074 82.2359L33.7335 80.3176ZM33.5202 75.9864C34.5969 75.7424 35.5887 76.2885 35.8459 77.3292C36.0991 78.3544 35.4719 79.2839 34.3952 79.5279C33.3185 79.7719 32.3151 79.212 32.0618 78.1868C31.8047 77.1461 32.4435 76.2304 33.5202 75.9864ZM33.6929 76.6853C33.0688 76.8268 32.6964 77.3541 32.8576 78.0064C33.015 78.6433 33.5945 78.9548 34.2187 78.8134C34.8429 78.6719 35.2074 78.1464 35.05 77.5096C34.8888 76.8572 34.3171 76.5439 33.6929 76.6853ZM45.608 72.7384L46.396 72.5599L48.1498 79.6584L47.3618 79.837L45.608 72.7384ZM43.3319 76.2314L45.0094 75.8512L45.1705 76.5036L43.4931 76.8837L43.3319 76.2314ZM44.16 73.247L44.9246 73.0738L46.5518 79.6597L45.7872 79.833L44.16 73.247ZM42.7956 74.2944L43.5837 74.1158C44.0615 76.0496 43.7817 77.8517 42.1054 79.4372L41.4953 78.9686C42.9056 77.6074 43.2523 76.1428 42.834 74.4497L42.7956 74.2944ZM40.8217 74.7417L43.0765 74.2307L43.2396 74.8908L40.9848 75.4019L40.8217 74.7417ZM52.1924 71.2462L53.0038 71.0623L54.7576 78.1609L53.9462 78.3448L52.1924 71.2462ZM53.5208 73.9551L54.8159 73.6615L54.9829 74.3372L53.6877 74.6307L53.5208 73.9551ZM47.7114 73.4181L51.8934 72.4704L52.0546 73.1228L47.8726 74.0705L47.7114 73.4181ZM50.1136 74.1039C51.1279 73.8741 52.0458 74.3878 52.2856 75.3586C52.5274 76.3371 51.9473 77.1903 50.933 77.4202C49.9109 77.6518 48.993 77.1381 48.7513 76.1596C48.5114 75.1887 49.0915 74.3356 50.1136 74.1039ZM50.2786 74.7718C49.7013 74.9027 49.3837 75.3847 49.5315 75.9827C49.6792 76.5808 50.1906 76.8831 50.768 76.7523C51.3375 76.6232 51.6532 76.1334 51.5054 75.5354C51.3577 74.9374 50.8482 74.6428 50.2786 74.7718ZM49.1589 72.0403L49.9781 71.8547L50.2909 73.1206L49.4716 73.3063L49.1589 72.0403Z" fill="white"/>
<rect x="0.254451" y="0.245643" width="74.5" height="24.4743" rx="12.2371" transform="matrix(0.999851 -0.0172665 0.0179513 0.999839 53.9956 68.7818)" fill="white"/>
<rect x="0.254451" y="0.245643" width="74.5" height="24.4743" rx="12.2371" transform="matrix(0.999851 -0.0172665 0.0179513 0.999839 53.9956 68.7818)" stroke="#A9E5D2" stroke-width="0.5"/>
<path d="M72.2735 77.1623C73.7132 77.1374 74.7885 78.199 74.8163 79.7467C74.8441 81.2945 73.8074 82.3805 72.3676 82.4054C70.9158 82.4305 69.8528 81.3807 69.825 79.8329C69.7972 78.2852 70.8217 77.1873 72.2735 77.1623ZM72.2924 78.2181C71.5005 78.2318 70.9478 78.8654 70.9648 79.8132C70.9816 80.7491 71.557 81.3753 72.3489 81.3616C73.1287 81.3481 73.6932 80.7023 73.6764 79.7664C73.6594 78.8186 73.0723 78.2046 72.2924 78.2181ZM77.7806 76.395L78.9684 76.3745L79.0856 82.9015L77.8978 82.922L77.7806 76.395ZM76.2579 79.1578L78.1776 79.1246L78.1959 80.1444L76.2762 80.1776L76.2579 79.1578ZM75.4564 76.6272L76.6322 76.6069L76.7449 82.8819L75.569 82.9022L75.4564 76.6272ZM71.6686 83.5817L79.0955 83.4534L79.1651 87.3288L77.9173 87.3503L77.866 84.4948L71.6869 84.6015L71.6686 83.5817ZM81.6191 83.6859L82.531 83.6701C84.5227 83.6357 85.9736 83.5627 87.6486 83.2697L87.7867 84.2755C86.0761 84.593 84.5772 84.6669 82.5495 84.7019L81.6377 84.7177L81.6191 83.6859ZM81.5041 77.2789L86.9273 77.1852L86.9458 78.2171L82.7704 78.2892L82.8732 84.0123L81.6254 84.0338L81.5041 77.2789ZM82.5189 80.3218L86.5503 80.2522L86.5682 81.248L82.5368 81.3177L82.5189 80.3218ZM88.6378 76.1956L89.8976 76.1738L90.0945 87.14L88.8347 87.1618L88.6378 76.1956ZM99.771 75.9913L101.031 75.9695L101.228 86.9598L99.9683 86.9815L99.771 75.9913ZM92.6004 77.0273L93.8482 77.0057L93.8984 79.8013L96.67 79.7534L96.6198 76.9578L97.8676 76.9363L98.0018 84.4111L92.7346 84.5021L92.6004 77.0273ZM93.9161 80.7851L93.9641 83.4607L96.7357 83.4128L96.6877 80.7372L93.9161 80.7851ZM103.934 83.3005L104.846 83.2848C106.837 83.2504 108.288 83.1773 109.963 82.8843L110.102 83.8901C108.391 84.2077 106.892 84.2816 104.864 84.3166L103.952 84.3323L103.934 83.3005ZM103.819 76.8935L109.242 76.7999L109.261 77.8317L105.085 77.9038L105.188 83.6269L103.94 83.6484L103.819 76.8935ZM104.834 79.9365L108.865 79.8668L108.883 80.8627L104.852 80.9323L104.834 79.9365ZM110.953 75.8102L112.212 75.7884L112.409 86.7547L111.149 86.7764L110.953 75.8102Z" fill="#111111"/>
<rect x="0.180319" y="0.302356" width="54.4967" height="24.4759" rx="12.2379" transform="matrix(0.970529 0.240986 -0.249253 0.968438 27.0807 28.7844)" fill="white"/>
<rect x="0.180319" y="0.302356" width="54.4967" height="24.4759" rx="12.2379" transform="matrix(0.970529 0.240986 -0.249253 0.968438 27.0807 28.7844)" stroke="#A9E5D2" stroke-width="0.5"/>
<path d="M45.2097 41.7472L46.2579 42.0074L46.1532 42.4142C45.6687 44.2968 43.443 45.2897 40.9278 45.0484L40.7306 43.9856C42.922 44.233 44.779 43.4206 45.105 42.1539L45.2097 41.7472ZM45.4077 41.7963L46.4559 42.0566L46.3512 42.4633C46.0312 43.7068 47.2777 45.3145 49.3139 46.1169L48.6144 46.957C46.2964 45.9982 44.8215 44.0741 45.303 42.2031L45.4077 41.7963ZM43.777 47.3137L44.9882 47.6145L44.5426 49.3461L43.3313 49.0453L43.777 47.3137ZM39.7787 45.5173L49.3986 47.906L49.1474 48.8821L39.5275 46.4935L39.7787 45.5173ZM40.2909 47.9565L47.663 49.7871L46.7627 53.2851L45.5515 52.9843L46.2035 50.4509L40.0426 48.9211L40.2909 47.9565ZM58.9757 45.0169L60.1986 45.3206L58.5535 51.7123L57.3307 51.4086L58.9757 45.0169ZM59.1729 47.9096L61.013 48.3665L60.7528 49.3776L58.9127 48.9207L59.1729 47.9096ZM51.4195 50.4973L58.4189 52.2352L57.4648 55.9424L56.2419 55.6388L56.9448 52.9078L51.1682 51.4734L51.4195 50.4973ZM52.097 44.0137L53.3082 44.3144L52.9104 45.86L55.5075 46.5049L55.9053 44.9593L57.1049 45.2572L55.7948 50.3473L50.7869 49.1038L52.097 44.0137ZM52.6651 46.813L52.2464 48.44L54.8435 49.0848L55.2622 47.4579L52.6651 46.813Z" fill="#111111"/>
<g filter="url(#filter2_i_1123_7428)">
<ellipse cx="16.4527" cy="12.5235" rx="16.4527" ry="12.5235" transform="matrix(0.89357 0.454828 -0.484222 0.871897 68 17.8306)" fill="url(#paint2_linear_1123_7428)" fill-opacity="0.76"/>
</g>
<path d="M70.0558 33.7308L75.9307 36.7942L75.6074 37.363L69.7326 34.2996L70.0558 33.7308ZM72.9901 34.4245L73.7297 34.8103L73.2251 35.6982L72.4854 35.3124L72.9901 34.4245ZM69.6956 36.0518L74.1764 38.3884L73.8492 38.9641L69.3684 36.6276L69.6956 36.0518ZM70.2633 35.053L71.0101 35.4424L70.2493 36.7812L69.5025 36.3917L70.2633 35.053ZM72.1444 30.7373L77.4004 33.4781L77.085 34.033L71.829 31.2922L72.1444 30.7373ZM74.3376 32.8971C75.6961 33.6055 76.2781 34.3496 75.9233 34.9739C75.5646 35.6052 74.5962 35.5408 73.2377 34.8324C71.8863 34.1278 71.2971 33.3799 71.6559 32.7487C72.0107 32.1244 72.9862 32.1924 74.3376 32.8971ZM74.0419 33.4174C73.1315 32.9426 72.5864 32.8472 72.4169 33.1455C72.2474 33.4438 72.623 33.8375 73.5334 34.3122C74.4437 34.7869 74.9928 34.8754 75.1623 34.5771C75.3318 34.2788 74.9523 33.8921 74.0419 33.4174ZM74.7562 31.3169L75.4959 31.7026L74.9637 32.6391L74.224 32.2534L74.7562 31.3169ZM83.0353 35.697L83.7821 36.0864L81.8031 39.5687L81.0563 39.1792L83.0353 35.697ZM82.7795 37.3801L83.9033 37.9661L83.5603 38.5696L82.4366 37.9836L82.7795 37.3801ZM78.7572 33.8799L79.4969 34.2656L79.012 35.1188L80.5981 35.9458L81.083 35.0926L81.8156 35.4746L80.1638 38.3811L77.1054 36.7863L78.7572 33.8799ZM78.6888 35.6876L78.1763 36.5894L79.7623 37.4164L80.2748 36.5146L78.6888 35.6876ZM77.4807 37.6834L78.2204 38.0692L77.8419 38.7351L80.5233 40.1333L80.9018 39.4674L81.6415 39.8531L80.2223 42.3503L76.0615 40.1806L77.4807 37.6834ZM77.5187 39.3039L77.1323 39.9837L79.8137 41.3819L80.2001 40.7021L77.5187 39.3039Z" fill="white"/>
<path d="M137.049 64.8721C137.859 63.5941 139.746 63.6537 140.486 64.9806L141.377 66.5791C141.867 67.4573 142.93 67.8396 143.863 67.4727L145.56 66.8048C146.97 66.2505 148.466 67.4073 148.286 68.9122L148.07 70.7235C147.951 71.7197 148.59 72.653 149.563 72.9052L151.332 73.3639C152.802 73.7449 153.337 75.5573 152.306 76.6652L151.066 77.9982C150.384 78.7315 150.353 79.8595 150.995 80.6346L152.161 82.0435C153.131 83.2146 152.499 84.9902 151.011 85.2778L149.22 85.6241C148.235 85.8145 147.547 86.7059 147.612 87.7079L147.73 89.5298C147.828 91.0434 146.272 92.1039 144.895 91.4616L143.236 90.6877C142.325 90.2627 141.243 90.5772 140.707 91.4231L139.731 92.9626C138.92 94.2406 137.034 94.181 136.294 92.8541L135.403 91.2556C134.913 90.3774 133.85 89.9951 132.917 90.3619L131.219 91.0298C129.81 91.5842 128.314 90.4273 128.493 88.9225L128.709 87.1111C128.828 86.115 128.19 85.1817 127.217 84.9295L125.447 84.4708C123.977 84.0898 123.443 82.2773 124.473 81.1694L125.713 79.8365C126.396 79.1031 126.426 77.9752 125.785 77.2L124.618 75.7911C123.649 74.6201 124.28 72.8445 125.769 72.5568L127.56 72.2106C128.545 72.0202 129.233 71.1287 129.168 70.1268L129.049 68.3049C128.951 66.7913 130.507 65.7308 131.884 66.3731L133.543 67.1469C134.454 67.572 135.536 67.2575 136.073 66.4116L137.049 64.8721Z" fill="url(#paint3_linear_1123_7428)" fill-opacity="0.76"/>
<path d="M130.124 78.5594L133.091 73.4759L133.904 73.9388L131.333 78.3455L133.503 79.5799L133.108 80.2568L130.124 78.5594ZM134.002 80.7657L136.969 75.6821L137.783 76.1451L134.816 81.2287L134.002 80.7657ZM136.149 81.9867L139.116 76.9031L139.93 77.3661L138.527 79.7697L138.541 79.7776L141.891 78.4818L142.796 78.9962L140.065 80.0557L140.086 84.2262L139.196 83.7197L139.2 80.4102L137.854 80.9232L136.963 82.4496L136.149 81.9867ZM140.768 84.6142L143.735 79.5306L146.768 81.2557L146.373 81.9326L144.154 80.6704L143.332 82.0795L145.203 83.1438L144.804 83.8276L142.933 82.7632L141.977 84.4002L144.273 85.7059L143.878 86.3828L140.768 84.6142Z" fill="white"/>
<g filter="url(#filter3_bi_1123_7428)">
<path fill-rule="evenodd" clip-rule="evenodd" d="M95.3455 12.835C92.419 12.835 90.1181 15.3372 90.3631 18.2534L90.6033 21.1143C89.7351 24.5132 87.1123 24.7227 83.1275 24.7289H12.0718C8.36608 24.7289 5.54633 28.0548 6.15264 31.7106L17.1491 98.0148C17.6293 100.91 20.1335 103.033 23.0683 103.033H157.754C161.46 103.033 164.279 99.7072 163.673 96.0514L151.845 24.7293L151.844 24.7289L150.687 17.841C150.202 14.9514 147.701 12.835 144.77 12.835H95.3455Z" fill="#D9D9D9" fill-opacity="0.38"/>
</g>
<path d="M49.0939 70.9421C47.7339 70.9421 46.3707 70.6966 45.0043 70.2056C43.6356 69.6988 42.3815 68.9861 41.2418 68.0675L42.8795 65.5967C43.9782 66.452 45.0027 67.0697 45.9532 67.4498C46.9197 67.8299 47.9069 68.0199 48.9149 68.0199C49.6189 68.0199 50.2156 67.9408 50.7049 67.7824C51.1919 67.6082 51.5487 67.3627 51.7753 67.0459C52.0179 66.7291 52.1085 66.357 52.0472 65.9293C51.9655 65.3592 51.695 64.9236 51.2359 64.6227C50.7745 64.3059 50.0273 64.0604 48.9943 63.8862L45.5766 63.316C44.1185 63.0785 42.959 62.5796 42.098 61.8193C41.253 61.0591 40.7442 60.0772 40.5717 58.8735C40.4241 57.844 40.5598 56.9491 40.9788 56.1889C41.4138 55.4287 42.0909 54.8506 43.0102 54.4546C43.9431 54.0429 45.0896 53.837 46.4496 53.837C47.6816 53.837 48.9351 54.0429 50.2102 54.4546C51.5012 54.8664 52.671 55.4366 53.7194 56.1652L52.2152 58.7309C50.2645 57.4005 48.4011 56.7353 46.6251 56.7353C46.0011 56.7353 45.4685 56.8145 45.0272 56.9729C44.5859 57.1313 44.2577 57.353 44.0426 57.6381C43.8412 57.9073 43.7677 58.232 43.8222 58.6121C43.8949 59.119 44.1356 59.5149 44.5445 59.8C44.9511 60.0692 45.5966 60.2751 46.4811 60.4177L49.724 60.9403C51.4426 61.2096 52.7747 61.7402 53.7202 62.5321C54.6634 63.3081 55.227 64.3376 55.4109 65.6205C55.5653 66.6975 55.4125 67.6398 54.9523 68.4476C54.4898 69.2395 53.7543 69.8572 52.7459 70.3006C51.7512 70.7283 50.5339 70.9421 49.0939 70.9421ZM64.3489 70.9421C63.1009 70.9421 61.932 70.657 60.8423 70.0868C59.7525 69.5166 58.8424 68.7485 58.1119 67.7824C57.3814 66.8163 56.9298 65.7313 56.7573 64.5277C56.5847 63.324 56.7172 62.2391 57.1547 61.2729C57.6059 60.291 58.2946 59.5149 59.2209 58.9447C60.1631 58.3746 61.2583 58.0895 62.5063 58.0895C63.7543 58.0895 64.9231 58.3746 66.0129 58.9447C67.1186 59.5149 68.0299 60.291 68.7467 61.2729C69.4772 62.2391 69.9287 63.324 70.1013 64.5277C70.2738 65.7313 70.1334 66.8163 69.6799 67.7824C69.2424 68.7485 68.5605 69.5166 67.6343 70.0868C66.708 70.657 65.6129 70.9421 64.3489 70.9421ZM63.9436 68.115C64.5996 68.115 65.1609 67.9566 65.6274 67.6398C66.11 67.3231 66.4647 66.8954 66.6915 66.357C66.9321 65.8026 67.0046 65.1929 66.9093 64.5277C66.8116 63.8466 66.5642 63.2369 66.167 62.6984C65.7858 62.1599 65.3085 61.7322 64.7351 61.4155C64.1754 61.0829 63.5676 60.9166 62.9116 60.9166C62.2716 60.9166 61.7114 61.0829 61.2311 61.4155C60.7485 61.7322 60.3938 62.1599 60.167 62.6984C59.9402 63.2369 59.8756 63.8466 59.9733 64.5277C60.0686 65.1929 60.3081 65.8026 60.6915 66.357C61.0727 66.8954 61.55 67.3231 62.1234 67.6398C62.6969 67.9566 63.3036 68.115 63.9436 68.115ZM73.0079 70.7045L70.6237 54.0745L73.8334 53.5281L76.2959 70.7045H73.0079ZM78.8672 70.7045L77.0928 58.327H80.3808L82.1552 70.7045H78.8672ZM78.5136 56.8541C78.0016 56.8541 77.5355 56.672 77.1153 56.3077C76.695 55.9434 76.4486 55.5079 76.3759 55.0011C76.301 54.4784 76.4226 54.0429 76.7406 53.6944C77.0564 53.3301 77.4703 53.148 77.9823 53.148C78.5103 53.148 78.9764 53.3301 79.3806 53.6944C79.7986 54.0429 80.045 54.4784 80.1199 55.0011C80.1926 55.5079 80.071 55.9434 79.7553 56.3077C79.4555 56.672 79.0416 56.8541 78.5136 56.8541ZM90.6819 70.8946C89.2899 70.8946 88.1896 70.5857 87.381 69.968C86.5862 69.3345 86.1025 68.4159 85.93 67.2122L85.0444 61.0354H82.4764L82.0881 58.327H84.6561L84.2032 55.1674L87.3856 54.4309L87.9442 58.327H91.5202L91.9084 61.0354H88.3324L89.1226 66.547C89.2043 67.1172 89.3914 67.529 89.6837 67.7824C89.9738 68.0199 90.4388 68.1387 91.0788 68.1387C91.3988 68.1387 91.6845 68.1229 91.936 68.0912C92.2012 68.0437 92.4858 67.9645 92.7899 67.8536L93.1748 70.5382C92.8547 70.6491 92.4432 70.7362 91.9402 70.7995C91.4533 70.8629 91.0339 70.8946 90.6819 70.8946ZM101.128 70.9421C99.8799 70.9421 98.7111 70.657 97.6213 70.0868C96.5316 69.5166 95.6215 68.7485 94.8909 67.7824C94.1604 66.8163 93.7089 65.7313 93.5363 64.5277C93.3638 63.324 93.4962 62.2391 93.9337 61.2729C94.385 60.291 95.0737 59.5149 96 58.9447C96.9422 58.3746 98.0373 58.0895 99.2853 58.0895C100.533 58.0895 101.702 58.3746 102.792 58.9447C103.898 59.5149 104.809 60.291 105.526 61.2729C106.256 62.2391 106.708 63.324 106.88 64.5277C107.053 65.7313 106.912 66.8163 106.459 67.7824C106.021 68.7485 105.34 69.5166 104.413 70.0868C103.487 70.657 102.392 70.9421 101.128 70.9421ZM100.723 68.115C101.379 68.115 101.94 67.9566 102.407 67.6398C102.889 67.3231 103.244 66.8954 103.471 66.357C103.711 65.8026 103.784 65.1929 103.688 64.5277C103.591 63.8466 103.343 63.2369 102.946 62.6984C102.565 62.1599 102.088 61.7322 101.514 61.4155C100.954 61.0829 100.347 60.9166 99.6906 60.9166C99.0506 60.9166 98.4905 61.0829 98.0102 61.4155C97.5276 61.7322 97.1729 62.1599 96.9461 62.6984C96.7193 63.2369 96.6547 63.8466 96.7523 64.5277C96.8477 65.1929 97.0871 65.8026 97.4706 66.357C97.8518 66.8954 98.3291 67.3231 98.9025 67.6398C99.4759 67.9566 100.083 68.115 100.723 68.115ZM115.629 70.9421C114.669 70.9421 113.783 70.7362 112.972 70.3244C112.175 69.8968 111.507 69.3108 110.968 68.5664C110.446 67.822 110.115 66.9667 109.977 66.0006L108.876 58.327H112.164L113.196 65.5255C113.31 66.3174 113.633 66.9509 114.165 67.426C114.713 67.9012 115.387 68.1387 116.187 68.1387C116.731 68.1387 117.204 68.0358 117.607 67.8299C118.023 67.6082 118.347 67.2993 118.578 66.9034L117.348 58.327H120.636L122.411 70.7045H119.123L118.98 69.7067C118.138 70.5303 117.021 70.9421 115.629 70.9421ZM124.973 70.7045L123.199 58.327H126.487L126.685 59.705C127.007 59.1665 127.428 58.7547 127.947 58.4696C128.467 58.1845 129.078 58.042 129.782 58.042C130.392 58.0578 130.862 58.1528 131.191 58.327L131.6 61.1779C131.344 61.067 131.068 60.9878 130.774 60.9403C130.477 60.877 130.176 60.8453 129.872 60.8453C129.232 60.8453 128.671 61.0037 128.188 61.3204C127.706 61.6372 127.346 62.0886 127.11 62.6746L128.261 70.7045H124.973Z" fill="#111111"/>
<path fill-rule="evenodd" clip-rule="evenodd" d="M101.144 71.0043C102.672 71.0043 104.022 70.5358 105.088 69.732C107.227 70.717 109.1 70.1766 108.55 69.9304C107.163 69.3044 106.449 68.723 106.866 67.5806C107.323 66.7221 107.69 65.1761 107.466 63.5823C106.889 59.4744 103.123 56.1499 99.0597 56.1499C94.9963 56.1499 92.1666 59.4744 92.7421 63.5754C93.3176 67.6764 97.0805 71.0009 101.144 71.0009L101.144 71.0043Z" fill="#00B488"/>
<g clip-path="url(#clip2_1123_7428)">
<path d="M99.6549 62.4609L98.5848 63.6264L102.633 67.0044C102.633 67.0044 102.746 67.0439 102.78 67.0044L103.789 65.8982L99.6549 62.4609Z" fill="white"/>
<path d="M102.29 65.9574C102.505 63.7943 105.696 64.4857 103.437 66.9451C103.367 67.0044 103.296 67.0538 103.233 67.0933C102.399 67.4291 102.14 66.0068 102.29 65.9574Z" fill="white"/>
<path fill-rule="evenodd" clip-rule="evenodd" d="M99.4584 63.0562L100.638 64.0391L99.9359 64.7463L98.7271 63.7389L99.4584 63.0562ZM97.023 65.3296L98.5314 63.9215L99.748 64.9355L98.9095 65.7803C99.9276 66.7611 99.3291 68.3835 97.0646 66.2637C96.9948 66.1846 96.9347 66.1056 96.8858 66.0365C96.7505 65.7698 96.7731 65.5821 96.8908 65.4439C96.9271 65.3996 96.9722 65.3617 97.023 65.3296Z" fill="white"/>
<path d="M96.8908 65.4441L97.4285 64.9502L97.1642 65.9972L96.8908 65.4441Z" fill="white"/>
<path fill-rule="evenodd" clip-rule="evenodd" d="M101.382 63.5572C101.795 63.1673 102.055 62.6117 101.968 61.9967H101.959C101.792 60.8115 100.651 59.8633 99.4072 59.8633C98.1637 59.8633 97.2981 60.8115 97.4644 61.9967C97.6308 63.182 98.9975 64.1302 100.016 64.1302C100.417 64.1302 100.83 63.9817 101.174 63.7299L100.103 62.8363L100.02 62.7672L100.02 62.7671L99.8535 62.6289L99.8529 62.6277L99.6649 62.4708L99.6654 62.4703L99.4539 62.2931C99.187 62.0659 99.1064 61.7004 99.2885 61.4634C99.395 61.3152 99.5476 61.2164 99.7924 61.2164C100.213 61.2164 100.565 61.6313 100.517 61.9869C100.489 62.1882 100.334 62.4135 100.2 62.571L101.382 63.5572Z" fill="white"/>
</g>
<defs>
<filter id="filter0_i_1123_7428" x="98.2383" y="43.1948" width="40.8002" height="24.9692" filterUnits="userSpaceOnUse" color-interpolation-filters="sRGB">
<feFlood flood-opacity="0" result="BackgroundImageFix"/>
<feBlend mode="normal" in="SourceGraphic" in2="BackgroundImageFix" result="shape"/>
<feColorMatrix in="SourceAlpha" type="matrix" values="0 0 0 0 0 0 0 0 0 0 0 0 0 0 0 0 0 0 127 0" result="hardAlpha"/>
<feOffset dy="1"/>
<feGaussianBlur stdDeviation="1"/>
<feComposite in2="hardAlpha" operator="arithmetic" k2="-1" k3="1"/>
<feColorMatrix type="matrix" values="0 0 0 0 0.865039 0 0 0 0 1 0 0 0 0 0.957262 0 0 0 0.5 0"/>
<feBlend mode="normal" in2="shape" result="effect1_innerShadow_1123_7428"/>
</filter>
<filter id="filter1_i_1123_7428" x="16.7733" y="61.3384" width="49.4634" height="32.063" filterUnits="userSpaceOnUse" color-interpolation-filters="sRGB">
<feFlood flood-opacity="0" result="BackgroundImageFix"/>
<feBlend mode="normal" in="SourceGraphic" in2="BackgroundImageFix" result="shape"/>
<feColorMatrix in="SourceAlpha" type="matrix" values="0 0 0 0 0 0 0 0 0 0 0 0 0 0 0 0 0 0 127 0" result="hardAlpha"/>
<feOffset dy="1"/>
<feGaussianBlur stdDeviation="1"/>
<feComposite in2="hardAlpha" operator="arithmetic" k2="-1" k3="1"/>
<feColorMatrix type="matrix" values="0 0 0 0 0.865039 0 0 0 0 1 0 0 0 0 0.957262 0 0 0 0.5 0"/>
<feBlend mode="normal" in2="shape" result="effect1_innerShadow_1123_7428"/>
</filter>
<filter id="filter2_i_1123_7428" x="60.73" y="22.9941" width="31.8148" height="27.4775" filterUnits="userSpaceOnUse" color-interpolation-filters="sRGB">
<feFlood flood-opacity="0" result="BackgroundImageFix"/>
<feBlend mode="normal" in="SourceGraphic" in2="BackgroundImageFix" result="shape"/>
<feColorMatrix in="SourceAlpha" type="matrix" values="0 0 0 0 0 0 0 0 0 0 0 0 0 0 0 0 0 0 127 0" result="hardAlpha"/>
<feOffset dy="1"/>
<feGaussianBlur stdDeviation="1"/>
<feComposite in2="hardAlpha" operator="arithmetic" k2="-1" k3="1"/>
<feColorMatrix type="matrix" values="0 0 0 0 0.865039 0 0 0 0 1 0 0 0 0 0.957262 0 0 0 0.5 0"/>
<feBlend mode="normal" in2="shape" result="effect1_innerShadow_1123_7428"/>
</filter>
<filter id="filter3_bi_1123_7428" x="4.07031" y="10.835" width="161.685" height="94.1982" filterUnits="userSpaceOnUse" color-interpolation-filters="sRGB">
<feFlood flood-opacity="0" result="BackgroundImageFix"/>
<feGaussianBlur in="BackgroundImageFix" stdDeviation="1"/>
<feComposite in2="SourceAlpha" operator="in" result="effect1_backgroundBlur_1123_7428"/>
<feBlend mode="normal" in="SourceGraphic" in2="effect1_backgroundBlur_1123_7428" result="shape"/>
<feColorMatrix in="SourceAlpha" type="matrix" values="0 0 0 0 0 0 0 0 0 0 0 0 0 0 0 0 0 0 127 0" result="hardAlpha"/>
<feOffset dy="1"/>
<feGaussianBlur stdDeviation="1"/>
<feComposite in2="hardAlpha" operator="arithmetic" k2="-1" k3="1"/>
<feColorMatrix type="matrix" values="0 0 0 0 0.954065 0 0 0 0 0.999365 0 0 0 0 0.988137 0 0 0 0.45 0"/>
<feBlend mode="normal" in2="shape" result="effect2_innerShadow_1123_7428"/>
</filter>
<linearGradient id="paint0_linear_1123_7428" x1="71.9062" y1="21.599" x2="138.584" y2="54.6437" gradientUnits="userSpaceOnUse">
<stop stop-color="#A9E5D2"/>
<stop offset="1" stop-color="#00B488"/>
</linearGradient>
<linearGradient id="paint1_linear_1123_7428" x1="-11.9335" y1="123.143" x2="67.2027" y2="77.9734" gradientUnits="userSpaceOnUse">
<stop stop-color="#A9E5D2"/>
<stop offset="1" stop-color="#00B488"/>
</linearGradient>
<linearGradient id="paint2_linear_1123_7428" x1="-24.8899" y1="-18.3617" x2="35.1292" y2="-5.69473" gradientUnits="userSpaceOnUse">
<stop stop-color="#A9E5D2"/>
<stop offset="1" stop-color="#00B488"/>
</linearGradient>
<linearGradient id="paint3_linear_1123_7428" x1="116.219" y1="62.7747" x2="158.858" y2="71.296" gradientUnits="userSpaceOnUse">
<stop stop-color="#A9E5D2"/>
<stop offset="1" stop-color="#00B488"/>
</linearGradient>
<clipPath id="clip0_1123_7428">
<rect width="7.5" height="7.50037" fill="white" transform="matrix(1 0 0.138977 0.990296 96.2712 61.7134)"/>
</clipPath>
<clipPath id="clip1_1123_7428">
<rect width="54.9578" height="24.9938" rx="12.4969" transform="matrix(0.504021 -0.863691 0.871435 0.490511 123 52.7939)" fill="white"/>
</clipPath>
<clipPath id="clip2_1123_7428">
<rect width="7.5" height="7.50037" fill="white" transform="matrix(1 0 0.138977 0.990296 95.9712 59.8633)"/>
</clipPath>
</defs>
</svg>
