<svg width="108" height="108" viewBox="0 0 108 108" fill="none" xmlns="http://www.w3.org/2000/svg">
<mask id="mask0_741_3746" style="mask-type:alpha" maskUnits="userSpaceOnUse" x="0" y="0" width="108" height="108">
<rect width="108" height="108" rx="48" fill="#F2FAF7"/>
</mask>
<g mask="url(#mask0_741_3746)">
<path d="M82.0008 44.0004C74.0001 72.0009 54.0008 74.0004 54.0008 74.0004C54.0008 74.0004 31.0294 70.0007 26.0008 44.0004C22.9524 28.2389 34.5205 9.33882 50.9198 13.0517C52.9359 13.5082 55.0545 13.488 57.0535 12.9618C73.4982 8.63288 85.3385 26.1529 82.0008 44.0004Z" fill="#163028"/>
<path d="M80 54C80 51.7909 78.2091 50 76 50H72V60H76C78.2091 60 80 58.2091 80 56V54Z" fill="url(#paint0_linear_741_3746)"/>
<path d="M46 60H62L64 80C62 92 46 92 44 80L46 60Z" fill="url(#paint1_linear_741_3746)"/>
<mask id="mask1_741_3746" style="mask-type:alpha" maskUnits="userSpaceOnUse" x="44" y="60" width="20" height="29">
<path d="M46 60H62L64 80C62 92 46 92 44 80L46 60Z" fill="url(#paint2_linear_741_3746)"/>
</mask>
<g mask="url(#mask1_741_3746)">
<path d="M45.0001 83C45.0001 82.2 58.1667 77.3333 64 73.5L63.5 70C62.3 70.4 50.5001 70.3333 45.0001 70C44.6668 72.8333 44.0055 78.7 44.0001 79.5C43.9911 80.8497 44.4889 82.6757 45.0001 83Z" fill="#FBD4CE"/>
</g>
<path d="M28 54C28 51.7909 29.7909 50 32 50H36V60H32C29.7909 60 28 58.2091 28 56V54Z" fill="url(#paint3_linear_741_3746)"/>
<path d="M75.762 52C75.762 61.2548 63.1547 74 54 74C44.8453 74 32.238 61.2548 32.238 52C30.2596 36.7452 40.8885 26 54 26C67.1115 26 77.7404 36.7452 75.762 52Z" fill="#FAE0DC"/>
<path d="M10 116.154C10 99.2184 19.1335 83.0631 35.9257 80.8635C38.5895 80.5146 41.2858 80.2401 44 80C46.5203 92.3855 60.7011 91.485 64 80C66.1252 80.2388 68.2395 80.5017 70.3359 80.8015C87.9632 83.3224 98 100.147 98 117.954V117.954C98 122.372 94.4183 126 90 126H18C13.5817 126 10 122.418 10 118V116.154Z" fill="#26B888"/>
<path d="M50 62C52 64.7759 56.4007 64.5551 58 62" stroke="#F1A99E" stroke-width="2" stroke-linecap="round"/>
<g filter="url(#filter0_f_741_3746)">
<ellipse cx="41" cy="58" rx="5" ry="6" fill="#F5CFBF"/>
</g>
<g filter="url(#filter1_f_741_3746)">
<ellipse cx="5" cy="6" rx="5" ry="6" transform="matrix(-1 0 0 1 72 52)" fill="#F5CFBF"/>
</g>
<rect x="44" y="48" width="4" height="6" rx="2" fill="#163028"/>
<path d="M30.5617 52V52C30.3276 52.7572 30.8185 53.4789 30.9738 54.2561C31.0129 54.4516 31.0265 54.7005 31.0265 55.0446L30.9866 56.6938L31.5547 55.4038C31.3853 55.1752 31.1461 54.9956 30.9169 54.9956C30.4086 54.9956 30 55.5508 30 56.4325C30 57.3959 30.3887 58 30.9169 58C31.6544 58 32 58.0163 32 56.4325C32 54.6364 31.6879 52.898 30.5617 52Z" fill="#F1A99E"/>
<path d="M77.4383 52V52C77.6724 52.7572 77.1815 53.4789 77.0262 54.2561C76.9871 54.4516 76.9735 54.7005 76.9735 55.0446L77.0134 56.6938L76.4453 55.4038C76.6147 55.1752 76.8539 54.9956 77.0831 54.9956C77.5914 54.9956 78 55.5508 78 56.4325C78 57.3959 77.6113 58 77.0831 58C76.3456 58 76 58.0163 76 56.4325C76 54.6364 76.3121 52.898 77.4383 52Z" fill="#F1A99E"/>
<rect x="60" y="48" width="4" height="6" rx="2" fill="#163028"/>
<path d="M54 54C52.9544 54 51.1768 54.4 52.4316 56" stroke="#F1A99E" stroke-width="0.8" stroke-linecap="round"/>
</g>
<path d="M52.5 31.8366C52.0404 27.3423 52.5 27.3366 55 26.365C46.1302 -0.0491219 32.8755 27.2979 28.8621 43.6537C28.4576 45.3024 30.1985 46.4767 31.6988 45.6822C34.3512 44.2776 37.6838 42.9586 42.9362 42.2187C47.5209 41.5729 53.0745 37.4545 52.5 31.8366Z" fill="#163028"/>
<path d="M56.5 31.8359C56.9596 27.3415 56.5 27.3359 54 26.3642C60.9063 -2.76189 75.5033 26.4715 80.0337 43.5638C80.4733 45.2224 78.7219 46.4276 77.2028 45.6295C74.5663 44.2444 71.2514 42.9487 66.0638 42.218C61.4791 41.5721 55.9255 37.4538 56.5 31.8359Z" fill="#163028"/>
<defs>
<filter id="filter0_f_741_3746" x="34" y="50" width="14" height="16" filterUnits="userSpaceOnUse" color-interpolation-filters="sRGB">
<feFlood flood-opacity="0" result="BackgroundImageFix"/>
<feBlend mode="normal" in="SourceGraphic" in2="BackgroundImageFix" result="shape"/>
<feGaussianBlur stdDeviation="1" result="effect1_foregroundBlur_741_3746"/>
</filter>
<filter id="filter1_f_741_3746" x="60" y="50" width="14" height="16" filterUnits="userSpaceOnUse" color-interpolation-filters="sRGB">
<feFlood flood-opacity="0" result="BackgroundImageFix"/>
<feBlend mode="normal" in="SourceGraphic" in2="BackgroundImageFix" result="shape"/>
<feGaussianBlur stdDeviation="1" result="effect1_foregroundBlur_741_3746"/>
</filter>
<linearGradient id="paint0_linear_741_3746" x1="80" y1="56" x2="74" y2="56" gradientUnits="userSpaceOnUse">
<stop stop-color="#FAE0DC"/>
<stop offset="1" stop-color="#FBD4CE"/>
</linearGradient>
<linearGradient id="paint1_linear_741_3746" x1="54" y1="59" x2="54" y2="84" gradientUnits="userSpaceOnUse">
<stop stop-color="#FBD4CE"/>
<stop offset="1" stop-color="#FAE0DC"/>
</linearGradient>
<linearGradient id="paint2_linear_741_3746" x1="54" y1="59" x2="54" y2="84" gradientUnits="userSpaceOnUse">
<stop stop-color="#FBD4CE"/>
<stop offset="1" stop-color="#FAE0DC"/>
</linearGradient>
<linearGradient id="paint3_linear_741_3746" x1="28" y1="56" x2="34" y2="56" gradientUnits="userSpaceOnUse">
<stop stop-color="#FAE0DC"/>
<stop offset="1" stop-color="#FBD4CE"/>
</linearGradient>
</defs>
</svg>
