<svg width="18" height="17" viewBox="0 0 18 17" fill="none" xmlns="http://www.w3.org/2000/svg">
<path fill-rule="evenodd" clip-rule="evenodd" d="M1.99999 0C0.895427 0 0 0.895427 0 1.99999V15C0 16.1046 0.895426 17 1.99999 17H11.4998C12.6044 17 13.4998 16.1046 13.4998 15V14.035L13.331 14.2098C13.1725 14.3739 12.9646 14.477 12.7418 14.5019L9.85813 14.8242C9.48414 14.866 9.16857 14.5392 9.20893 14.1518L9.52012 11.165C9.54416 10.9343 9.64368 10.7189 9.80215 10.5548L13.4998 6.7249V1.99999C13.4998 0.895427 12.6044 0 11.4998 0H1.99999Z" fill="#00B488"/>
<path fill-rule="evenodd" clip-rule="evenodd" d="M13.4999 6.72477V6.2334H9.5C9.22386 6.2334 9 6.45726 9 6.7334V8.00007C9 8.27621 9.22386 8.50007 9.5 8.50007H11.7859L13.4999 6.72477Z" fill="#007F49"/>
<path d="M14.6171 6.34962C14.9623 5.99203 15.5221 5.99203 15.8673 6.34962L17.3745 7.91068C17.7197 8.26827 17.7197 8.84803 17.3745 9.20562L12.8965 13.8437C12.7539 13.9915 12.5668 14.0842 12.3662 14.1066L10.3129 14.3361C9.93889 14.3779 9.62332 14.0511 9.66368 13.6637L9.88526 11.537C9.9069 11.3293 9.99647 11.1355 10.1391 10.9877L14.6171 6.34962Z" fill="#007F49"/>
<rect x="0.19343" width="1.70646" height="0.278485" rx="0.139243" transform="matrix(0.694579 0.719416 0.694579 -0.719416 14.3267 8.08741)" fill="#00B488" stroke="#00B488" stroke-width="0.278485"/>
</svg>
