<svg width="18" height="17" viewBox="0 0 18 17" fill="none" xmlns="http://www.w3.org/2000/svg">
<path fill-rule="evenodd" clip-rule="evenodd" d="M13.5 6.80876V6.2334H12.6H9.5C9.22386 6.2334 9 6.45726 9 6.7334V8.38965C9 8.66579 9.22386 8.88965 9.5 8.88965H11.7856L12.5271 7.98965H9.9V7.1334H12.6V7.90115L13.5 6.80876Z" fill="#111111"/>
<path d="M14.9296 6.67336C15.1022 6.49456 15.3821 6.49456 15.5547 6.67336L17.0619 8.23441C17.2345 8.41321 17.2345 8.70309 17.0619 8.88188L12.5839 13.52C12.5126 13.5939 12.419 13.6402 12.3188 13.6514L10.2654 13.881C10.1719 13.8914 10.093 13.8097 10.1031 13.7128L10.3247 11.5861C10.3355 11.4822 10.3803 11.3853 10.4516 11.3115L14.9296 6.67336Z" stroke="black" stroke-width="0.9"/>
<rect x="0.184189" width="1.3259" height="0.265179" rx="0.13259" transform="matrix(0.694582 0.719414 0.694582 -0.719414 14.5094 8.09405)" fill="#111111" stroke="#111111" stroke-width="0.265179"/>
<path fill-rule="evenodd" clip-rule="evenodd" d="M2 1H11.4999C12.0522 1 12.4999 1.44771 12.4999 2V6.375H13.4999V2C13.4999 0.895431 12.6045 0 11.4999 0H2C0.895431 0 0 0.89543 0 2V15C0 16.1046 0.89543 17 2 17H11.4999C12.6045 17 13.4999 16.1046 13.4999 15V14.3438H12.4999V15C12.4999 15.5523 12.0522 16 11.4999 16H2C1.44771 16 1 15.5523 1 15V2C1 1.44772 1.44772 1 2 1Z" fill="black"/>
</svg>
