<svg width="25" height="25" viewBox="0 0 25 25" fill="none" xmlns="http://www.w3.org/2000/svg">
<path fill-rule="evenodd" clip-rule="evenodd" d="M3.29999 0.5C1.7536 0.5 0.5 1.7536 0.5 3.29999V21.7C0.5 23.2464 1.7536 24.5 3.29999 24.5H16.4502C17.9966 24.5 19.2502 23.2464 19.2502 21.7V20.3138L19.015 20.5613C18.795 20.7929 18.5065 20.9383 18.1972 20.9735L14.1911 21.4286C13.672 21.4876 13.2339 21.0264 13.29 20.4798L13.7223 16.2623C13.7556 15.9367 13.8938 15.6329 14.1138 15.4013L19.2502 9.99369V3.29999C19.2502 1.7536 17.9966 0.5 16.4502 0.5H3.29999Z" fill="#00B488"/>
<path fill-rule="evenodd" clip-rule="evenodd" d="M19.251 9.99429V9.30078H13.701C13.3144 9.30078 13.001 9.61418 13.001 10.0008V11.8008C13.001 12.1874 13.3144 12.5008 13.701 12.5008H16.8702L19.251 9.99429Z" fill="#007F49"/>
<path d="M20.8022 9.46337C21.2814 8.95882 22.0584 8.95882 22.5377 9.46337L24.632 11.6682C25.1112 12.1728 25.1112 12.9908 24.632 13.4954L18.4118 20.044C18.2138 20.2524 17.954 20.3833 17.6757 20.4149L14.8229 20.739C14.3038 20.798 13.8657 20.3368 13.9218 19.7903L14.2296 16.7869C14.2596 16.4939 14.384 16.2204 14.582 16.012L20.8022 9.46337Z" fill="#007F49"/>
<rect x="0.268659" width="2.39039" height="0.390099" rx="0.19505" transform="matrix(0.688693 0.725053 0.688693 -0.725053 20.4 11.9195)" fill="#00B488" stroke="#00B488" stroke-width="0.390099"/>
</svg>
