<svg width="16" height="17" viewBox="0 0 16 17" fill="none" xmlns="http://www.w3.org/2000/svg">
<path d="M13.3883 16.1619C13.2739 16.1077 13.1431 16.099 13.0225 16.1375C11.901 16.4953 11.4264 16.5001 10.3243 16.5002C10.3078 16.4985 10.291 16.4977 10.2741 16.4977C7.45653 16.4977 5.19727 14.2859 5.19727 11.5899C5.19727 8.89389 7.45653 6.68213 10.2741 6.68213C13.0917 6.68213 15.3536 8.8939 15.3536 11.5949C15.3536 12.6454 14.9472 13.6724 14.5641 14.2202C14.552 14.2375 14.541 14.2555 14.5312 14.2742C14.309 14.697 14.2297 15.135 14.4122 15.5558C14.5475 15.868 14.7993 16.1004 15.0759 16.285C14.7007 16.4491 14.1442 16.5196 13.3883 16.1619Z" stroke="#111111" stroke-linejoin="round"/>
<path fill-rule="evenodd" clip-rule="evenodd" d="M10.4929 7.96766C9.65804 9.47101 8.11083 10.5474 6.29004 10.7721C6.29584 10.4083 6.37217 10.0544 6.50844 9.72514C7.72984 9.48344 8.76448 8.77456 9.41642 7.80949C9.43308 7.80925 9.44977 7.80913 9.46651 7.80913C9.82954 7.80913 10.174 7.86522 10.4929 7.96766ZM3.89031 10.7347C3.89554 10.3944 3.93319 10.0618 4.0004 9.73954C3.70642 9.6902 3.39316 9.60985 2.98305 9.47901C2.74177 9.40204 2.48028 9.41947 2.25136 9.5278C2.10413 9.59748 1.97051 9.64596 1.84994 9.67862C1.86766 9.6442 1.88444 9.60885 1.90016 9.57258C2.16327 8.96562 2.02947 8.36281 1.76492 7.85943C1.74531 7.82212 1.72337 7.78609 1.69921 7.75155C1.37024 7.28115 1 6.35299 1 5.41277C1 3.00237 3.02334 1 5.57946 1C8.13556 1 10.1563 3.00236 10.1563 5.40779C10.1563 5.4219 10.1562 5.436 10.1561 5.45008C10.498 5.49098 10.8304 5.56191 11.1503 5.66006C11.1543 5.57645 11.1563 5.49234 11.1563 5.40779C11.1563 2.42117 8.6585 0 5.57946 0C2.50041 0 0 2.42117 0 5.41277C0 6.57354 0.442481 7.69943 0.879726 8.32465C1.23955 9.0093 0.978786 9.4173 0.32652 9.79436C0.0962362 9.92749 0.0311117 10.2361 0.252557 10.3834C0.409014 10.4875 0.598815 10.5839 0.820976 10.6497L0.836781 10.6543L0.836925 10.6544C1.30967 10.7904 1.92683 10.7877 2.67911 10.4317C3.16371 10.5863 3.53959 10.679 3.89031 10.7347Z" fill="#111111"/>
</svg>
