<svg width="24" height="25" viewBox="0 0 24 25" fill="none" xmlns="http://www.w3.org/2000/svg">
<path d="M19.7416 23.3018C19.579 23.2262 19.394 23.2141 19.2229 23.2677C17.6092 23.7733 16.9256 23.7801 15.3404 23.7802C15.3169 23.7779 15.293 23.7767 15.2688 23.7767C11.2066 23.7767 7.97195 20.6481 7.97195 16.8621C7.97195 13.0762 11.2066 9.94754 15.2688 9.94754C19.3311 9.94754 22.5695 13.0762 22.5695 16.8691C22.5695 18.3459 21.9875 19.7913 21.4384 20.5624C21.4206 20.5873 21.4045 20.6134 21.39 20.6403C21.0708 21.2369 20.9528 21.8609 21.2144 22.4624C21.4054 22.9016 21.7596 23.2283 22.1481 23.4871C21.608 23.711 20.8136 23.8 19.7416 23.3018Z" stroke="#111111" stroke-width="1.44" stroke-linejoin="round"/>
<path fill-rule="evenodd" clip-rule="evenodd" d="M15.5532 11.8023C14.3469 13.895 12.1406 15.3911 9.5478 15.707C9.55681 15.1859 9.67601 14.673 9.88988 14.1957C11.5988 13.8567 13.0431 12.8958 13.9741 11.5939C14.0185 11.5928 14.0632 11.5922 14.1081 11.5922C14.6215 11.5922 15.1058 11.6667 15.5532 11.8023ZM6.09216 15.6549C6.09982 15.165 6.15594 14.6863 6.25616 14.223C5.83007 14.1533 5.37655 14.0394 4.78184 13.8531C4.4396 13.7458 4.06966 13.7702 3.74442 13.9213C3.54051 14.0161 3.35443 14.0833 3.18552 14.1295C3.20284 14.0944 3.21947 14.0585 3.23535 14.022C3.61496 13.1493 3.41549 12.2855 3.03427 11.5731C3.00539 11.5191 2.97311 11.4671 2.93762 11.4172C2.46792 10.7576 1.94 9.45633 1.94 8.1416C1.94 4.7791 4.82242 1.94 8.52065 1.94C12.2189 1.94 15.0975 4.77909 15.0975 8.13456C15.0975 8.15432 15.0974 8.17407 15.0972 8.19379C15.5896 8.25151 16.0683 8.35176 16.529 8.49058C16.5347 8.37258 16.5375 8.25389 16.5375 8.13456C16.5375 3.91815 12.9469 0.5 8.52065 0.5C4.09443 0.5 0.5 3.91815 0.5 8.1416C0.5 9.78034 1.13608 11.3698 1.76464 12.2525C2.27921 13.2141 1.91089 13.7891 0.983906 14.3191C0.648095 14.5111 0.554578 14.9604 0.879761 15.1699C1.10112 15.3125 1.36792 15.4439 1.67886 15.5346C1.69625 15.5396 1.71378 15.5446 1.73144 15.5494L1.73259 15.5497C2.40828 15.7333 3.28545 15.7225 4.35131 15.2272C5.0478 15.4454 5.58806 15.5763 6.09216 15.6549Z" fill="#111111"/>
</svg>
