<svg width="16" height="17" viewBox="0 0 16 17" fill="none" xmlns="http://www.w3.org/2000/svg">
<path fill-rule="evenodd" clip-rule="evenodd" d="M5.57943 10.8181C4.42217 10.8181 3.89011 10.8181 2.67908 10.4317C1.56233 10.9602 0.743352 10.71 0.252529 10.3834C0.0310839 10.2361 0.0962087 9.92749 0.326493 9.79436C0.978757 9.4173 1.23952 9.0093 0.879699 8.32465C0.442454 7.69943 -2.76566e-05 6.57354 -2.76566e-05 5.41277C-2.76566e-05 2.42117 2.50039 0 5.57943 0C8.65847 0 11.1563 2.42117 11.1563 5.40779C11.1563 8.3944 8.65847 10.8156 5.57943 10.8156V10.8181Z" fill="#00B488"/>
<g style="mix-blend-mode:multiply">
<path fill-rule="evenodd" clip-rule="evenodd" d="M10.2741 17.0002C11.4314 17.0002 11.9634 17.0002 13.1745 16.6138C14.2912 17.1423 15.1102 16.8922 15.601 16.5655C15.8224 16.4182 15.7573 16.1096 15.527 15.9765C14.8748 15.5994 14.614 15.1914 14.9738 14.5068C15.4111 13.8816 15.8536 12.7557 15.8536 11.5949C15.8536 8.6033 13.3531 6.18213 10.2741 6.18213C7.19506 6.18213 4.69727 8.6033 4.69727 11.5899C4.69727 14.5765 7.19506 16.9977 10.2741 16.9977V17.0002Z" fill="#00B488"/>
</g>
</svg>
