<svg width="22" height="23" viewBox="0 0 22 23" fill="none" xmlns="http://www.w3.org/2000/svg">
<mask id="path-1-inside-1_3162_14129" fill="white">
<path fill-rule="evenodd" clip-rule="evenodd" d="M20.56 10.0539V21.0597H13.3588V22.4997H20.56C21.3553 22.4997 22 21.855 22 21.0597V10.0539C22 8.6763 21.343 7.38135 20.2314 6.56777L12.7009 1.05639C11.6881 0.315137 10.3119 0.315137 9.29908 1.05639L1.76861 6.56777C0.656975 7.38135 0 8.6763 0 10.0539V21.0597C0 21.855 0.64471 22.4997 1.44 22.4997H8.64453V21.0597H1.44V10.0539C1.44 9.13548 1.87798 8.27218 2.61907 7.72979L10.1495 2.21842C10.6559 1.84779 11.3441 1.84779 11.8505 2.21842L19.3809 7.72979C20.122 8.27218 20.56 9.13548 20.56 10.0539Z"/>
</mask>
<path d="M20.56 21.0597V22.4997H22V21.0597H20.56ZM13.3588 21.0597V19.6197H11.9188V21.0597H13.3588ZM13.3588 22.4997H11.9188V23.9397H13.3588V22.4997ZM20.2314 6.56777L21.0819 5.40574L20.2314 6.56777ZM12.7009 1.05639L11.8505 2.21842L11.8505 2.21842L12.7009 1.05639ZM9.29908 1.05639L8.44862 -0.105638L8.44861 -0.105637L9.29908 1.05639ZM1.76861 6.56777L0.918147 5.40574H0.918147L1.76861 6.56777ZM8.64453 22.4997V23.9397H10.0845V22.4997H8.64453ZM8.64453 21.0597H10.0845V19.6197H8.64453V21.0597ZM1.44 21.0597H0V22.4997H1.44V21.0597ZM2.61907 7.72979L3.46953 8.89182H3.46953L2.61907 7.72979ZM10.1495 2.21842L9.29908 1.05639L9.29908 1.05639L10.1495 2.21842ZM11.8505 2.21842L12.7009 1.05639L12.7009 1.05639L11.8505 2.21842ZM19.3809 7.72979L20.2314 6.56777L19.3809 7.72979ZM22 21.0597V10.0539H19.12V21.0597H22ZM13.3588 22.4997H20.56V19.6197H13.3588V22.4997ZM11.9188 21.0597V22.4997H14.7988V21.0597H11.9188ZM13.3588 23.9397H20.56V21.0597H13.3588V23.9397ZM20.56 23.9397C22.1506 23.9397 23.44 22.6503 23.44 21.0597H20.56L20.56 21.0597V23.9397ZM23.44 21.0597V10.0539H20.56V21.0597H23.44ZM23.44 10.0539C23.44 8.21712 22.564 6.49051 21.0819 5.40574L19.3809 7.72979C20.122 8.27218 20.56 9.13548 20.56 10.0539H23.44ZM21.0819 5.40574L13.5514 -0.105638L11.8505 2.21842L19.3809 7.72979L21.0819 5.40574ZM13.5514 -0.105638C12.0322 -1.21752 9.96783 -1.21752 8.44862 -0.105638L10.1495 2.21842C10.6559 1.84779 11.3441 1.84779 11.8505 2.21842L13.5514 -0.105638ZM8.44861 -0.105637L0.918147 5.40574L2.61907 7.72979L10.1495 2.21842L8.44861 -0.105637ZM0.918147 5.40574C-0.564031 6.49051 -1.44 8.21712 -1.44 10.0539H1.44C1.44 9.13548 1.87798 8.27218 2.61907 7.72979L0.918147 5.40574ZM-1.44 10.0539V21.0597H1.44V10.0539H-1.44ZM-1.44 21.0597C-1.44 22.6503 -0.150578 23.9397 1.44 23.9397V21.0597H1.44H-1.44ZM1.44 23.9397H8.64453V21.0597H1.44V23.9397ZM10.0845 22.4997V21.0597H7.20453V22.4997H10.0845ZM1.44 22.4997H8.64453V19.6197H1.44V22.4997ZM0 10.0539V21.0597H2.88V10.0539H0ZM1.76861 6.56777C0.656975 7.38135 0 8.6763 0 10.0539H2.88C2.88 9.59467 3.09899 9.16302 3.46953 8.89182L1.76861 6.56777ZM9.29908 1.05639L1.76861 6.56777L3.46953 8.89182L11 3.38045L9.29908 1.05639ZM12.7009 1.05639C11.6881 0.315137 10.3119 0.315137 9.29908 1.05639L11 3.38045L11 3.38045L12.7009 1.05639ZM20.2314 6.56777L12.7009 1.05639L11 3.38045L18.5305 8.89182L20.2314 6.56777ZM22 10.0539C22 8.6763 21.343 7.38135 20.2314 6.56777L18.5305 8.89182C18.901 9.16301 19.12 9.59467 19.12 10.0539H22Z" fill="#111111" mask="url(#path-1-inside-1_3162_14129)"/>
<path d="M9 19.499V15.0868C9 14.9278 9.12894 14.7988 9.288 14.7988H11.8549C12.0139 14.7988 12.1429 14.9278 12.1429 15.0868V19.499" stroke="#111111" stroke-width="1.44"/>
</svg>
