<svg width="16" height="16" viewBox="0 0 16 16" fill="none" xmlns="http://www.w3.org/2000/svg">
<mask id="path-1-inside-1_1010_7018" fill="white">
<path fill-rule="evenodd" clip-rule="evenodd" d="M15 6.89252V14.9989H9.7147V15.9989H15C15.5523 15.9989 16 15.5512 16 14.9989V6.89252C16 5.93514 15.5431 5.03526 14.7701 4.47038L9.18006 0.385235C8.47719 -0.128411 7.52281 -0.128412 6.81995 0.385234L1.22992 4.47038C0.456944 5.03526 0 5.93514 0 6.89252V14.9989C0 15.5512 0.447715 15.9989 1 15.9989H6.28613V14.9989H1V6.89252C1 6.25427 1.30463 5.65435 1.81994 5.27776L7.40997 1.19262C7.7614 0.935794 8.2386 0.935794 8.59003 1.19262L14.1801 5.27776C14.6954 5.65435 15 6.25427 15 6.89252Z"/>
</mask>
<path d="M15 14.9989V15.9989H16V14.9989H15ZM9.7147 14.9989V13.9989H8.7147V14.9989H9.7147ZM9.7147 15.9989H8.7147V16.9989H9.7147V15.9989ZM14.7701 4.47038L14.1801 5.27776L14.7701 4.47038ZM9.18006 0.385235L9.77008 -0.422148V-0.422148L9.18006 0.385235ZM6.81995 0.385234L7.40997 1.19262V1.19262L6.81995 0.385234ZM1.22992 4.47038L0.639888 3.66299H0.639888L1.22992 4.47038ZM6.28613 15.9989V16.9989H7.28613V15.9989H6.28613ZM6.28613 14.9989H7.28613V13.9989H6.28613V14.9989ZM1 14.9989H0V15.9989H1V14.9989ZM1.81994 5.27776L2.40997 6.08514H2.40997L1.81994 5.27776ZM7.40997 1.19262L8 2L7.40997 1.19262ZM8.59003 1.19262L8 2L8 2L8.59003 1.19262ZM14.1801 5.27776L13.59 6.08514L14.1801 5.27776ZM16 14.9989V6.89252H14V14.9989H16ZM9.7147 15.9989H15V13.9989H9.7147V15.9989ZM8.7147 14.9989V15.9989H10.7147V14.9989H8.7147ZM9.7147 16.9989H15V14.9989H9.7147V16.9989ZM15 16.9989C16.1046 16.9989 17 16.1034 17 14.9989H15L15 14.9989V16.9989ZM17 14.9989V6.89252H15V14.9989H17ZM17 6.89252C17 5.61602 16.3907 4.41617 15.3601 3.66299L14.1801 5.27776C14.6954 5.65435 15 6.25427 15 6.89252H17ZM15.3601 3.66299L9.77008 -0.422148L8.59003 1.19262L14.1801 5.27776L15.3601 3.66299ZM9.77008 -0.422148C8.71579 -1.19262 7.28421 -1.19262 6.22992 -0.422149L7.40997 1.19262C7.7614 0.935795 8.2386 0.935794 8.59003 1.19262L9.77008 -0.422148ZM6.22992 -0.422149L0.639888 3.66299L1.81994 5.27776L7.40997 1.19262L6.22992 -0.422149ZM0.639888 3.66299C-0.390741 4.41617 -1 5.61601 -1 6.89252H1C1 6.25427 1.30463 5.65435 1.81994 5.27776L0.639888 3.66299ZM-1 6.89252V14.9989H1V6.89252H-1ZM-1 14.9989C-1 16.1034 -0.104568 16.9989 1 16.9989V14.9989V14.9989H-1ZM1 16.9989H6.28613V14.9989H1V16.9989ZM7.28613 15.9989V14.9989H5.28613V15.9989H7.28613ZM1 15.9989H6.28613V13.9989H1V15.9989ZM0 6.89252V14.9989H2V6.89252H0ZM1.22992 4.47038C0.456944 5.03526 0 5.93514 0 6.89252H2C2 6.5734 2.15231 6.27344 2.40997 6.08514L1.22992 4.47038ZM6.81995 0.385234L1.22992 4.47038L2.40997 6.08514L8 2L6.81995 0.385234ZM9.18006 0.385235C8.47719 -0.128411 7.52281 -0.128412 6.81995 0.385234L8 2L8 2L9.18006 0.385235ZM14.7701 4.47038L9.18006 0.385235L8 2L13.59 6.08514L14.7701 4.47038ZM16 6.89252C16 5.93514 15.5431 5.03526 14.7701 4.47038L13.59 6.08514C13.8477 6.27344 14 6.5734 14 6.89252H16Z" fill="#111111" mask="url(#path-1-inside-1_1010_7018)"/>
<path d="M6.85742 13.7233V10.5101C6.85742 10.3996 6.94696 10.3101 7.05742 10.3101H8.94314C9.05359 10.3101 9.14314 10.3996 9.14314 10.5101V13.7233" stroke="#111111"/>
</svg>
