<svg width="18" height="17" viewBox="0 0 18 17" fill="none" xmlns="http://www.w3.org/2000/svg">
<path d="M3.04724 4.57667C3.10132 3.65137 3.86745 2.92871 4.79432 2.92871H13.3237C14.2506 2.92871 15.0167 3.65137 15.0708 4.57667L15.6594 14.648C15.7181 15.653 14.919 16.5002 13.9123 16.5002H4.20572C3.19904 16.5002 2.3999 15.653 2.45863 14.648L3.04724 4.57667Z" stroke="#111111"/>
<path d="M6.92871 8.09521H11.1868" stroke="#111111" stroke-linecap="round"/>
<path d="M10.625 8.49593C10.625 8.4615 10.6529 8.43359 10.6873 8.43359C10.7218 8.43359 10.7497 8.4615 10.7497 8.49593V9.63793C10.7497 9.67236 10.7218 9.70027 10.6873 9.70027C10.6529 9.70027 10.625 9.67236 10.625 9.63793V8.49593Z" stroke="#111111"/>
<path fill-rule="evenodd" clip-rule="evenodd" d="M8.04399 1H9.95268C10.2288 1 10.4527 1.22388 10.4527 1.50004V1.61917H11.4527V1.50004C11.4527 0.671592 10.7811 0 9.95268 0H8.04399C7.21554 0 6.54395 0.671593 6.54395 1.50004V1.61917H7.54395V1.50004C7.54395 1.22388 7.76782 1 8.04399 1Z" fill="#111111"/>
<path fill-rule="evenodd" clip-rule="evenodd" d="M2.67188 13.3065C2.52132 13.5365 2.25078 13.6777 1.96013 13.6492L1.3381 13.5882C0.649703 13.5207 0.0956504 12.9917 0.0438428 12.3037C-0.0985904 10.4124 0.106955 9.13791 0.616615 7.40383C0.81834 6.71747 1.49184 6.27891 2.20206 6.34855L2.67188 6.39462V13.3065ZM1.82328 12.6311L2.41549 7.37417L2.09012 7.34227C1.84475 7.31821 1.63677 7.47008 1.5774 7.67211C1.09394 9.31704 0.911026 10.4687 1.04254 12.215C1.05586 12.3919 1.20614 12.5706 1.45005 12.5945L1.82328 12.6311Z" fill="#111111"/>
<path fill-rule="evenodd" clip-rule="evenodd" d="M15.3291 13.3065C15.4797 13.5365 15.7502 13.6777 16.0409 13.6492L16.6629 13.5882C17.3513 13.5207 17.9053 12.9917 17.9571 12.3037C18.0996 10.4124 17.894 9.13791 17.3844 7.40383C17.1826 6.71747 16.5091 6.27891 15.7989 6.34855L15.3291 6.39462V13.3065ZM16.1777 12.6311L15.5855 7.37417L15.9109 7.34227C16.1562 7.31821 16.3642 7.47008 16.4236 7.67211C16.907 9.31704 17.09 10.4687 16.9584 12.215C16.9451 12.3919 16.7948 12.5706 16.5509 12.5945L16.1777 12.6311Z" fill="#111111"/>
</svg>
