<svg width="24" height="25" viewBox="0 0 24 25" fill="none" xmlns="http://www.w3.org/2000/svg">
<path d="M3.75416 7.02416C3.83082 5.69074 4.93447 4.64871 6.27009 4.64871H17.8908C19.2264 4.64871 20.3301 5.69074 20.4068 7.02416L21.2168 21.1151C21.3 22.5614 20.1496 23.7798 18.7009 23.7798H5.46002C4.01136 23.7798 2.86095 22.5614 2.94409 21.1151L3.75416 7.02416Z" stroke="#111111" stroke-width="1.44"/>
<path d="M9.12402 11.9287H15.037" stroke="#111111" stroke-width="1.44" stroke-linecap="round"/>
<path d="M14.2815 12.4811C14.2815 12.4475 14.3088 12.4202 14.3424 12.4202C14.3761 12.4202 14.4033 12.4475 14.4033 12.4811V14.1192C14.4033 14.1529 14.3761 14.1801 14.3424 14.1801C14.3088 14.1801 14.2815 14.1529 14.2815 14.1192V12.4811Z" stroke="#111111" stroke-width="1.44"/>
<path fill-rule="evenodd" clip-rule="evenodd" d="M10.7479 1.94H13.2445C13.6422 1.94 13.9646 2.26238 13.9646 2.66006V2.78578H15.4045V2.66006C15.4045 1.46709 14.4375 0.5 13.2445 0.5H10.7479C9.55498 0.5 8.58789 1.46709 8.58789 2.66006V2.78578H10.0279V2.66006C10.0279 2.26238 10.3503 1.94 10.7479 1.94Z" fill="#111111"/>
<path fill-rule="evenodd" clip-rule="evenodd" d="M2.92011 19.7395L2.42396 19.6901C1.42987 19.5909 0.629364 18.8234 0.557308 17.829C0.366523 15.196 0.648512 13.4077 1.34427 10.9924C1.62995 10.0007 2.60027 9.36758 3.62534 9.46977L3.68555 9.47577L3.57843 10.9121L3.46675 10.901C3.11188 10.8656 2.81324 11.0853 2.72951 11.3759C2.07006 13.6652 1.81918 15.2807 1.99521 17.7099C2.01365 17.9644 2.22993 18.2237 2.58256 18.2588L2.98366 18.2988L3.11788 17.0875L2.92011 19.7395Z" fill="#111111"/>
<path fill-rule="evenodd" clip-rule="evenodd" d="M21.153 19.7323L21.5766 19.6901C22.5706 19.5909 23.3712 18.8234 23.4432 17.829C23.634 15.196 23.352 13.4077 22.6562 10.9924C22.3706 10.0007 21.4002 9.36758 20.3752 9.46977L20.2021 9.48702L20.3352 10.9208L20.5338 10.901C20.8886 10.8656 21.1873 11.0853 21.271 11.3759C21.9305 13.6652 22.1813 15.2807 22.0053 17.7099C21.9869 17.9644 21.7706 18.2237 21.418 18.2588L21.0199 18.2985L21.153 19.7323Z" fill="#111111"/>
</svg>
