<svg width="24" height="25" viewBox="0 0 24 25" fill="none" xmlns="http://www.w3.org/2000/svg">
<path fill-rule="evenodd" clip-rule="evenodd" d="M4.20996 19.2911C3.99981 19.6129 3.62155 19.81 3.21473 19.7694L2.37814 19.686C1.41168 19.5897 0.6339 18.8436 0.562055 17.8769C0.363165 15.2009 0.649286 13.3998 1.35918 10.9461C1.63804 9.98229 2.58115 9.36621 3.57774 9.46555L4.20996 9.52857V19.2911ZM3.02069 18.3432L3.84566 10.8991L3.42354 10.857C3.0796 10.8227 2.78784 11.0359 2.70548 11.3206C2.03117 13.6512 1.77582 15.2828 1.95983 17.7585C1.97842 18.0086 2.19037 18.2605 2.53235 18.2945L3.02069 18.3432Z" fill="#007F49"/>
<path fill-rule="evenodd" clip-rule="evenodd" d="M19.791 19.2901C20.0012 19.6119 20.3794 19.809 20.7862 19.7684L21.6228 19.6851C22.5893 19.5887 23.3671 18.8426 23.4389 17.8759C23.6378 15.1999 23.3517 13.3988 22.6418 10.9452C22.3629 9.98132 21.4198 9.36523 20.4232 9.46457L19.791 9.52759V19.2901ZM20.9803 18.3423L20.1553 10.8981L20.5774 10.8561C20.9214 10.8218 21.2131 11.0349 21.2955 11.3196C21.9698 13.6503 22.2252 15.2818 22.0411 17.7576C22.0226 18.0077 21.8106 18.2595 21.4686 18.2936L20.9803 18.3423Z" fill="#007F49"/>
<path d="M3.04032 6.89798C3.13615 5.23123 4.5157 3.92871 6.18521 3.92871H17.9776C19.6471 3.92871 21.0266 5.23123 21.1224 6.89799L21.9429 21.1689C22.0469 22.9768 20.6089 24.4998 18.798 24.4998H5.36472C3.55389 24.4998 2.11589 22.9768 2.21983 21.1689L3.04032 6.89798Z" fill="#00B488"/>
<path d="M9.12305 11.9287H15.0366" stroke="#007F49" stroke-width="1.4" stroke-linecap="round"/>
<path d="M14.2615 12.4812C14.2615 12.4364 14.2978 12.4002 14.3425 12.4002C14.3872 12.4002 14.4235 12.4364 14.4235 12.4812V14.1192C14.4235 14.1639 14.3872 14.2001 14.3425 14.2001C14.2978 14.2001 14.2615 14.1639 14.2615 14.1192V12.4812Z" stroke="#007F49" stroke-width="1.4"/>
<path fill-rule="evenodd" clip-rule="evenodd" d="M10.6889 1.9H13.3061C13.6927 1.9 14.0061 2.21343 14.0061 2.60006V2.7856H15.4061V2.60006C15.4061 1.44023 14.4659 0.5 13.3061 0.5H10.6889C9.5291 0.5 8.58887 1.44023 8.58887 2.60006V2.7856H9.98887V2.60006C9.98887 2.21343 10.3023 1.9 10.6889 1.9Z" fill="#007F49"/>
</svg>
