<svg width="24" height="25" viewBox="0 0 24 25" fill="none" xmlns="http://www.w3.org/2000/svg">
<path fill-rule="evenodd" clip-rule="evenodd" d="M4.30557 7.69213C4.57984 7.40422 5.03559 7.39316 5.3235 7.66744C5.61141 7.94172 5.62246 8.39746 5.34819 8.68537L2.39938 11.7808H14.4138C14.8114 11.7808 15.1338 12.1031 15.1338 12.5008C15.1338 12.8984 14.8114 13.2208 14.4138 13.2208H2.39845L5.34819 16.3171C5.62246 16.605 5.61141 17.0608 5.3235 17.3351C5.03559 17.6093 4.57984 17.5983 4.30557 17.3104L0.197287 12.9979C-0.0676327 12.7198 -0.0676327 12.2827 0.197287 12.0046L4.30557 7.69213Z" fill="#111111"/>
<path fill-rule="evenodd" clip-rule="evenodd" d="M9.99902 24H21.12C22.7106 24 24 22.7106 24 21.12V3.88C24 2.28942 22.7106 1 21.12 1H9.99902V2.44H21.12C21.9153 2.44 22.56 3.08471 22.56 3.88V21.12C22.56 21.9153 21.9153 22.56 21.12 22.56H9.99902V24Z" fill="#111111"/>
</svg>
