<svg width="15" height="17" viewBox="0 0 15 17" fill="none" xmlns="http://www.w3.org/2000/svg">
<path d="M10.5 3.5C10.5 5.15685 9.15685 6.5 7.5 6.5C5.84315 6.5 4.5 5.15685 4.5 3.5C4.5 1.84315 5.84315 0.5 7.5 0.5C9.15685 0.5 10.5 1.84315 10.5 3.5Z" stroke="#111111"/>
<path d="M2 16.45C1.16884 16.45 0.593437 15.7917 0.710542 15.1014C0.997031 13.4127 1.67043 11.7671 2.77703 10.5531C3.87133 9.35247 5.40857 8.55 7.5 8.55C9.59143 8.55 11.1287 9.35247 12.223 10.5531C13.3296 11.7671 14.003 13.4127 14.2895 15.1014C14.4066 15.7917 13.8312 16.45 13 16.45H2Z" stroke="#111111" stroke-width="1.1" stroke-linejoin="round"/>
</svg>
