<svg width="24" height="25" viewBox="0 0 24 25" fill="none" xmlns="http://www.w3.org/2000/svg">
<path d="M16.1806 5.73537C16.1806 7.93001 14.3325 9.75075 12.0006 9.75075C9.66864 9.75075 7.82059 7.93001 7.82059 5.73537C7.82059 3.54074 9.66864 1.72 12.0006 1.72C14.3325 1.72 16.1806 3.54074 16.1806 5.73537Z" stroke="#111111" stroke-width="1.44"/>
<path d="M4.3 23.2799C3.10801 23.2799 2.28028 22.3349 2.46036 21.3439C2.8726 19.0755 3.82072 16.8682 5.37241 15.2387C6.90901 13.6249 9.06761 12.5432 12 12.5432C14.9324 12.5432 17.091 13.6249 18.6276 15.2387C20.1793 16.8682 21.1274 19.0755 21.5396 21.3439C21.7197 22.3349 20.892 23.2799 19.7 23.2799H4.3Z" stroke="#111111" stroke-width="1.44" stroke-linejoin="round"/>
</svg>
