<svg width="17" height="16" viewBox="0 0 17 16" fill="none" xmlns="http://www.w3.org/2000/svg">
<g style="mix-blend-mode:plus-darker">
<path d="M5 2C5 0.895431 5.89543 0 7 0H15C16.1046 0 17 0.895431 17 2V14C17 15.1046 16.1046 16 15 16H7C5.89543 16 5 15.1046 5 14V2Z" fill="#00B488"/>
</g>
<path fill-rule="evenodd" clip-rule="evenodd" d="M7.65287 4.65176C7.46054 4.45361 7.14399 4.44889 6.94584 4.64121C6.74769 4.83354 6.74297 5.15009 6.9353 5.34824L9.02382 7.5H0.5C0.223858 7.5 0 7.72386 0 8C0 8.27614 0.223858 8.5 0.5 8.5H9.02382L6.9353 10.6518C6.74297 10.8499 6.74769 11.1665 6.94584 11.3588C7.14399 11.5511 7.46054 11.5464 7.65287 11.3482L10.5566 8.35664C10.6489 8.26592 10.7061 8.13965 10.7061 8C10.7061 7.86035 10.6489 7.73407 10.5566 7.64336L7.65287 4.65176Z" fill="#007F49"/>
</svg>
