<svg width="24" height="25" viewBox="0 0 24 25" fill="none" xmlns="http://www.w3.org/2000/svg">
<path fill-rule="evenodd" clip-rule="evenodd" d="M9.94933 2.44H21.12C21.9153 2.44 22.56 3.08471 22.56 3.88V21.12C22.56 21.9153 21.9153 22.56 21.12 22.56H9.94933C9.15404 22.56 8.50933 21.9153 8.50933 21.12V18.26H7.06934V21.12C7.06934 22.7106 8.35875 24 9.94933 24H21.12C22.7106 24 24 22.7106 24 21.12V3.88C24 2.28942 22.7106 1 21.12 1H9.94933C8.35875 1 7.06934 2.28942 7.06934 3.88V6.74001H8.50933V3.88C8.50933 3.08471 9.15404 2.44 9.94933 2.44Z" fill="#111111"/>
<path fill-rule="evenodd" clip-rule="evenodd" d="M10.8282 7.69213C10.5539 7.40422 10.0982 7.39316 9.81029 7.66744C9.52238 7.94172 9.51133 8.39746 9.7856 8.68537L12.7344 11.7808H0.719999C0.322354 11.7808 0 12.1031 0 12.5008C0 12.8984 0.322354 13.2208 0.719999 13.2208H12.7353L9.7856 16.3171C9.51133 16.605 9.52238 17.0608 9.81029 17.3351C10.0982 17.6093 10.5539 17.5983 10.8282 17.3104L14.9365 12.9979C15.2014 12.7198 15.2014 12.2827 14.9365 12.0046L10.8282 7.69213Z" fill="#111111"/>
</svg>
