<svg width="24" height="26" viewBox="0 0 24 26" fill="none" xmlns="http://www.w3.org/2000/svg">
<path fill-rule="evenodd" clip-rule="evenodd" d="M3.6 3.16504C1.61178 3.16504 0 4.77681 0 6.76504V18.7701C0 20.7583 1.61178 22.3701 3.6 22.3701H9.94397L12.7698 25.0031C13.1447 25.3524 13.7565 25.1015 13.7783 24.5896L13.8727 22.3701H20.4C22.3882 22.3701 24 20.7583 24 18.7701V6.76504C24 4.77681 22.3882 3.16504 20.4 3.16504H3.6Z" fill="#00B488"/>
<path d="M11.7236 14.692C11.4356 12.664 13.5356 11.896 13.5356 10.6C13.5356 9.928 13.1156 9.436 12.3596 9.436C11.7956 9.436 11.3036 9.712 10.8956 10.168L10.1156 9.448C10.7036 8.776 11.5076 8.296 12.5156 8.296C13.9196 8.296 14.8796 9.088 14.8796 10.504C14.8796 12.244 12.7436 12.892 12.9476 14.692H11.7236ZM12.3596 17.668C11.8316 17.668 11.4356 17.26 11.4356 16.696C11.4356 16.12 11.8316 15.724 12.3596 15.724C12.8756 15.724 13.2836 16.12 13.2836 16.696C13.2836 17.26 12.8756 17.668 12.3596 17.668Z" fill="#007F49"/>
</svg>
