<svg width="24" height="26" viewBox="0 0 24 26" fill="none" xmlns="http://www.w3.org/2000/svg">
<mask id="path-1-inside-1_3162_14279" fill="white">
<path fill-rule="evenodd" clip-rule="evenodd" d="M3.6 3.16504C1.61178 3.16504 0 4.77681 0 6.76504V18.7701C0 20.7583 1.61178 22.3701 3.6 22.3701H9.94397L12.7698 25.0031C13.1447 25.3524 13.7565 25.1015 13.7783 24.5896L13.8727 22.3701H20.4C22.3882 22.3701 24 20.7583 24 18.7701V6.76504C24 4.77681 22.3882 3.16504 20.4 3.16504H3.6Z"/>
</mask>
<path d="M9.94397 22.3701L10.9256 21.3165L10.5109 20.9301H9.94397V22.3701ZM12.7698 25.0031L11.7882 26.0567L11.7882 26.0567L12.7698 25.0031ZM13.7783 24.5896L12.3396 24.5284V24.5284L13.7783 24.5896ZM13.8727 22.3701V20.9301H12.4927L12.434 22.3089L13.8727 22.3701ZM1.44 6.76504C1.44 5.5721 2.40706 4.60504 3.6 4.60504V1.72504C0.816487 1.72504 -1.44 3.98152 -1.44 6.76504H1.44ZM1.44 18.7701V6.76504H-1.44V18.7701H1.44ZM3.6 20.9301C2.40707 20.9301 1.44 19.963 1.44 18.7701H-1.44C-1.44 21.5536 0.816486 23.8101 3.6 23.8101V20.9301ZM9.94397 20.9301H3.6V23.8101H9.94397V20.9301ZM8.96232 23.4236L11.7882 26.0567L13.7515 23.9496L10.9256 21.3165L8.96232 23.4236ZM11.7882 26.0567C13.0626 27.2441 15.143 26.3911 15.217 24.6508L12.3396 24.5284C12.3701 23.8118 13.2267 23.4606 13.7515 23.9496L11.7882 26.0567ZM15.217 24.6508L15.3114 22.4313L12.434 22.3089L12.3396 24.5284L15.217 24.6508ZM20.4 20.9301H13.8727V23.8101H20.4V20.9301ZM22.56 18.7701C22.56 19.963 21.5929 20.9301 20.4 20.9301V23.8101C23.1835 23.8101 25.44 21.5536 25.44 18.7701H22.56ZM22.56 6.76504V18.7701H25.44V6.76504H22.56ZM20.4 4.60504C21.5929 4.60504 22.56 5.5721 22.56 6.76504H25.44C25.44 3.98152 23.1835 1.72504 20.4 1.72504V4.60504ZM3.6 4.60504H20.4V1.72504H3.6V4.60504Z" fill="#111111" mask="url(#path-1-inside-1_3162_14279)"/>
<path d="M11.7236 14.692C11.4356 12.664 13.5356 11.896 13.5356 10.6C13.5356 9.928 13.1156 9.436 12.3596 9.436C11.7956 9.436 11.3036 9.712 10.8956 10.168L10.1156 9.448C10.7036 8.776 11.5076 8.296 12.5156 8.296C13.9196 8.296 14.8796 9.088 14.8796 10.504C14.8796 12.244 12.7436 12.892 12.9476 14.692H11.7236ZM12.3596 17.668C11.8316 17.668 11.4356 17.26 11.4356 16.696C11.4356 16.12 11.8316 15.724 12.3596 15.724C12.8756 15.724 13.2836 16.12 13.2836 16.696C13.2836 17.26 12.8756 17.668 12.3596 17.668Z" fill="black"/>
</svg>
