<svg width="365" height="134" viewBox="0 0 365 134" fill="none" xmlns="http://www.w3.org/2000/svg">
<path d="M68.844 129V100.464H0.114016V81.324L65.19 7.19999H92.682V80.454H107.646V100.464H92.682V129H68.844ZM27.606 80.454H68.844V33.648L27.606 80.454ZM325.936 129V100.464H257.206V81.324L322.282 7.19999H349.774V80.454H364.738V100.464H349.774V129H325.936ZM284.698 80.454H325.936V33.648L284.698 80.454Z" fill="#00B488"/>
<circle cx="181" cy="67" r="63" fill="white" stroke="url(#paint0_linear_12_348)" stroke-width="8"/>
<path d="M148 75L146.5 73C149.3 69 151.333 70.3334 152 71.5L149.5 77L148 75Z" fill="#0D1E19"/>
<ellipse cx="157.872" cy="90.9579" rx="7.76604" ry="7.66689" fill="url(#paint1_linear_12_348)"/>
<ellipse cx="212.234" cy="67.954" rx="7.76604" ry="7.66689" fill="url(#paint2_linear_12_348)"/>
<path d="M215.603 63.9973C215.967 64.5678 215.721 65.2675 215.763 65.9407C215.774 66.1109 215.818 66.3197 215.896 66.605L216.297 67.9532L215.536 67.0171C215.626 66.7916 215.785 66.5911 215.976 66.5406C216.4 66.4285 216.864 66.7952 217.061 67.5207C217.276 68.3134 217.087 68.8962 216.647 69.0127C216.032 69.1753 215.748 69.2649 215.394 67.9617C214.993 66.4838 214.865 64.9845 215.603 63.9973Z" fill="#F1A99E"/>
<ellipse cx="182.033" cy="74.7717" rx="32.7899" ry="32.3713" fill="#FAE0DC"/>
<path d="M152.041 91.5203C152.297 92.1712 152.869 92.6398 153.257 93.2242C153.334 93.3414 153.422 93.4857 153.528 93.6675L154.225 94.8926L153.881 93.82C153.719 93.6874 153.552 93.6059 153.466 93.6547C153.276 93.7629 153.363 94.2595 153.744 94.91C154.159 95.6207 154.565 95.9836 154.763 95.8711C155.038 95.7141 155.174 95.6525 154.491 94.4841C153.716 93.159 152.849 91.943 152.041 91.5203Z" fill="#F1A99E"/>
<g style="mix-blend-mode:multiply" filter="url(#filter0_f_12_348)">
<ellipse cx="7.74709" cy="10.6751" rx="7.74709" ry="10.6751" transform="matrix(-0.900993 0.433833 0.442934 0.896554 163.025 74.7656)" fill="url(#paint3_radial_12_348)" fill-opacity="0.73"/>
</g>
<g style="mix-blend-mode:multiply" filter="url(#filter1_f_12_348)">
<ellipse cx="8.60787" cy="10.6751" rx="8.60787" ry="10.6751" transform="matrix(-0.900993 0.433833 0.442934 0.896554 198.428 61.1426)" fill="url(#paint4_radial_12_348)" fill-opacity="0.73"/>
</g>
<circle cx="177" cy="89" r="3" fill="#F85E5E"/>
<rect width="6" height="8" rx="3" transform="matrix(0.970296 -0.241922 0.248151 0.968721 175 67)" fill="#163028"/>
<rect width="6" height="8" rx="3" transform="matrix(0.970296 -0.241922 0.248151 0.968721 161 71.4517)" fill="#163028"/>
<path d="M196.202 73.0688C196.202 79.3734 191.023 84.4951 184.622 84.4951C178.22 84.4951 173.041 79.3734 173.041 73.0688C173.041 66.7643 178.22 61.6426 184.622 61.6426C191.023 61.6426 196.202 66.7643 196.202 73.0688Z" stroke="#F0F0F0"/>
<path d="M146.655 81.1606C82.0436 -33.4607 211.235 195.726 146.655 81.1606V81.1606Z" fill="#163028"/>
<path d="M211.804 61.1428C207.489 52.6241 176.59 36.2085 164.344 36.012C183.395 16.7097 221.5 34 211.804 61.1428Z" fill="#00B488"/>
<path d="M148.813 34.7366C133.528 45.8029 142.256 64.1293 147.087 68.3848C149.464 44.1197 179.014 35.1611 191.094 38.5691C185.054 34.3092 164.776 23.1799 148.813 34.7366Z" fill="#88D9BF"/>
<path fill-rule="evenodd" clip-rule="evenodd" d="M183.76 36.4406C171.823 32.6601 156.782 43.5957 151.772 49.6108C151.495 49.8737 151.227 50.1469 150.97 50.4295C144.175 57.8905 144.325 71.895 147.518 74.3489C149.23 71.5518 150.78 71.6878 152.886 71.8726C154.345 72.0006 156.071 72.152 158.303 71.368C162.962 69.7321 168.523 65.9763 166.933 57.7365C166.122 53.5361 167.177 51.3596 168.7 49.4559C171.583 49.0626 172.168 49.1151 174.296 54.0303C177.127 60.5672 185.882 61.7036 191.407 59.6095C197.863 57.1628 202.649 58.8077 206.656 60.1844C208.585 60.8474 210.333 61.4482 212 61.4999C210.736 50.5197 197.38 39.2457 185.662 37.0957C185.052 36.8678 184.418 36.649 183.76 36.4406Z" fill="#163028"/>
<path d="M171.178 82.438C171.178 88.7425 165.999 93.8643 159.598 93.8643C153.196 93.8643 148.017 88.7425 148.017 82.438C148.017 76.1335 153.196 71.0117 159.598 71.0117C165.999 71.0117 171.178 76.1335 171.178 82.438Z" stroke="#F0F0F0"/>
<path d="M173 79C171.432 79 168.765 79.6 170.647 82" stroke="#F1A99E" stroke-width="1.2" stroke-linecap="round"/>
<defs>
<filter id="filter0_f_12_348" x="151.342" y="76.5508" width="18.8633" height="22.293" filterUnits="userSpaceOnUse" color-interpolation-filters="sRGB">
<feFlood flood-opacity="0" result="BackgroundImageFix"/>
<feBlend mode="normal" in="SourceGraphic" in2="BackgroundImageFix" result="shape"/>
<feGaussianBlur stdDeviation="0.5" result="effect1_foregroundBlur_12_348"/>
</filter>
<filter id="filter1_f_12_348" x="185.316" y="63.1714" width="20.1693" height="22.5527" filterUnits="userSpaceOnUse" color-interpolation-filters="sRGB">
<feFlood flood-opacity="0" result="BackgroundImageFix"/>
<feBlend mode="normal" in="SourceGraphic" in2="BackgroundImageFix" result="shape"/>
<feGaussianBlur stdDeviation="0.5" result="effect1_foregroundBlur_12_348"/>
</filter>
<linearGradient id="paint0_linear_12_348" x1="144.258" y1="-25" x2="208.613" y2="137.613" gradientUnits="userSpaceOnUse">
<stop stop-color="#AAECFB"/>
<stop offset="1" stop-color="#00B488"/>
</linearGradient>
<linearGradient id="paint1_linear_12_348" x1="149.243" y1="95.2173" x2="161.247" y2="88.2694" gradientUnits="userSpaceOnUse">
<stop stop-color="#FAE0DC"/>
<stop offset="1" stop-color="#FBD4CE"/>
</linearGradient>
<linearGradient id="paint2_linear_12_348" x1="218.706" y1="64.1206" x2="206.681" y2="69.7758" gradientUnits="userSpaceOnUse">
<stop stop-color="#FAE0DC"/>
<stop offset="1" stop-color="#FBD4CE"/>
</linearGradient>
<radialGradient id="paint3_radial_12_348" cx="0" cy="0" r="1" gradientUnits="userSpaceOnUse" gradientTransform="translate(7.69867 10.6751) rotate(85.825) scale(10.5407 7.66259)">
<stop stop-color="#F5CFBF"/>
<stop offset="1" stop-color="white"/>
</radialGradient>
<radialGradient id="paint4_radial_12_348" cx="0" cy="0" r="1" gradientUnits="userSpaceOnUse" gradientTransform="translate(8.55408 10.6751) rotate(85.3631) scale(10.5473 8.5087)">
<stop stop-color="#F5CFBF"/>
<stop offset="1" stop-color="white"/>
</radialGradient>
</defs>
</svg>
