<svg width="22" height="20" viewBox="0 0 22 20" fill="none" xmlns="http://www.w3.org/2000/svg">
<path stroke-width="1.5" fill-rule="evenodd" clip-rule="evenodd" d="M11 7C13.2093 7 15 8.78963 15 10.9993C15 13.209 13.2093 15 11 15C8.792 15 7 13.209 7 10.9993C7 8.78963 8.792 7 11 7Z" stroke="#666666" />
<path stroke-width="1.5" fill-rule="evenodd" clip-rule="evenodd" d="M18.8864 19H3.11355C1.94644 19 1 18.0424 1 16.8622V6.19519C1 5.01393 1.94644 4.05843 3.11355 4.05843H5.301C5.301 4.05843 6.38896 0.972313 7.88507 1H14C15.4933 1 16.6828 4.05843 16.6828 4.05843H18.8864C20.0546 4.05843 21 5.01393 21 6.19519V16.8622C21 18.0424 20.0546 19 18.8864 19Z" stroke="#666666" />
</svg>
