<svg width="22" height="22" viewBox="0 0 22 22" fill="none" xmlns="http://www.w3.org/2000/svg">
<path d="M8.18372 3.69231L8.86834 1.98462C8.9838 1.69548 9.18693 1.44679 9.45114 1.2711C9.71535 1.09541 10.0283 1.00092 10.349 1H11.6546C11.9753 1.00092 12.2883 1.09541 12.5525 1.2711C12.8167 1.44679 13.0198 1.69548 13.1353 1.98462L13.8199 3.69231L16.1444 4.98462L18.0232 4.70769C18.336 4.66666 18.6544 4.71642 18.9379 4.85065C19.2214 4.98488 19.4572 5.19752 19.6153 5.46154L20.2522 6.53846C20.4154 6.80669 20.4905 7.11643 20.4678 7.4268C20.4451 7.73717 20.3255 8.03359 20.1248 8.27692L18.9625 9.70769V12.2923L20.1566 13.7231C20.3573 13.9664 20.4769 14.2628 20.4996 14.5732C20.5224 14.8836 20.4472 15.1933 20.284 15.4615L19.6471 16.5385C19.489 16.8025 19.2532 17.0151 18.9697 17.1493C18.6862 17.2836 18.3678 17.3333 18.055 17.2923L16.1763 17.0154L13.8517 18.3077L13.1671 20.0154C13.0517 20.3045 12.8485 20.5532 12.5843 20.7289C12.3201 20.9046 12.0072 20.9991 11.6864 21H10.349C10.0283 20.9991 9.71535 20.9046 9.45114 20.7289C9.18693 20.5532 8.9838 20.3045 8.86834 20.0154L8.18372 18.3077L5.85919 17.0154L3.98046 17.2923C3.66763 17.3333 3.34924 17.2836 3.06574 17.1493C2.78225 17.0151 2.54645 16.8025 2.38832 16.5385L1.75146 15.4615C1.58827 15.1933 1.51308 14.8836 1.53582 14.5732C1.55856 14.2628 1.67816 13.9664 1.87883 13.7231L3.04109 12.2923V9.70769L1.84699 8.27692C1.64631 8.03359 1.52672 7.73717 1.50398 7.4268C1.48124 7.11643 1.55642 6.80669 1.71962 6.53846L2.35647 5.46154C2.51461 5.19752 2.75041 4.98488 3.0339 4.85065C3.3174 4.71642 3.63579 4.66666 3.94862 4.70769L5.82734 4.98462L8.18372 3.69231ZM7.81752 11C7.81752 11.8161 8.15301 12.5987 8.75018 13.1757C9.34735 13.7527 10.1573 14.0769 11.0018 14.0769C11.8463 14.0769 12.6563 13.7527 13.2534 13.1757C13.8506 12.5987 14.1861 11.8161 14.1861 11C14.1861 10.184 13.8506 9.40132 13.2534 8.82429C12.6563 8.24725 11.8463 7.92308 11.0018 7.92308C10.1573 7.92308 9.34735 8.24725 8.75018 8.82429C8.15301 9.40132 7.81752 10.184 7.81752 11Z" stroke="#666666" stroke-width="1.5" stroke-linecap="round" stroke-linejoin="round"/>
</svg>
