<svg width="16" height="16" viewBox="0 0 16 16" fill="none" xmlns="http://www.w3.org/2000/svg">
<rect x="8.90039" y="5.15674" width="2.75" height="9.64767" rx="1" transform="rotate(45 8.90039 5.15674)" fill="#A3A3A3"/>
<rect x="8.77539" y="3.33203" width="5.5" height="2.41192" transform="rotate(45 8.77539 3.33203)" fill="#08916F"/>
<path d="M9.74805 4.30371L8.04256 6.00919" stroke="#077459" stroke-width="0.5" stroke-linecap="round"/>
<path d="M10.7227 5.27734L9.01717 6.98283" stroke="#077459" stroke-width="0.5" stroke-linecap="round"/>
<path d="M11.6953 6.25L9.98983 7.95548" stroke="#077459" stroke-width="0.5" stroke-linecap="round"/>
<path d="M8.63944 0.889025C8.82412 0.131259 9.76661 -0.132806 10.3181 0.418698L15.5812 5.68174C16.1327 6.23325 15.8686 7.17574 15.1108 7.36041L13.2712 7.80876C12.9319 7.89143 12.5742 7.79119 12.3273 7.5443L8.45555 3.67259C8.20866 3.4257 8.10842 3.06792 8.19109 2.7287L8.63944 0.889025Z" fill="#00B488"/>
<path d="M4.81774 4.71024C4.05997 4.89492 3.7959 5.83741 4.34741 6.38891L9.61045 11.652C10.162 12.2035 11.1044 11.9394 11.2891 11.1816L11.7375 9.34195C11.8201 9.00273 11.7199 8.64496 11.473 8.39807L7.6013 4.52635C7.35441 4.27946 6.99663 4.17922 6.65741 4.26189L4.81774 4.71024Z" fill="#00B488"/>
</svg>
