<svg width="16" height="16" viewBox="0 0 16 16" fill="none" xmlns="http://www.w3.org/2000/svg">
<g clip-path="url(#clip0_2372_9465)">
<rect x="7.74023" y="5.99548" width="2.75" height="9.64767" rx="1" transform="rotate(45 7.74023 5.99548)" fill="#A3A3A3"/>
<rect x="7.61523" y="4.17102" width="5.5" height="2.41192" transform="rotate(45 7.61523 4.17102)" fill="#08916F"/>
<path d="M8.58789 5.1427L6.88241 6.84818" stroke="#077459" stroke-width="0.5" stroke-linecap="round"/>
<path d="M9.5625 6.11633L7.85702 7.82182" stroke="#077459" stroke-width="0.5" stroke-linecap="round"/>
<path d="M10.5352 7.08899L8.82967 8.79447" stroke="#077459" stroke-width="0.5" stroke-linecap="round"/>
<path d="M7.47831 1.72789C7.66298 0.970126 8.60547 0.706061 9.15698 1.25756L14.42 6.52061C14.9715 7.07211 14.7075 8.0146 13.9497 8.19928L12.11 8.64763C11.7708 8.7303 11.413 8.63006 11.1661 8.38317L7.29442 4.51145C7.04753 4.26457 6.94729 3.90679 7.02996 3.56757L7.47831 1.72789Z" fill="#00B488"/>
<path d="M3.65758 5.54887C2.89981 5.73354 2.63575 6.67603 3.18725 7.22754L8.4503 12.4906C9.0018 13.0421 9.94429 12.778 10.129 12.0203L10.5773 10.1806C10.66 9.84136 10.5597 9.48358 10.3129 9.23669L6.44114 5.36497C6.19425 5.11809 5.83648 5.01785 5.49725 5.10052L3.65758 5.54887Z" fill="#00B488"/>
</g>
<defs>
<clipPath id="clip0_2372_9465">
<rect width="16" height="16" fill="white"/>
</clipPath>
</defs>
</svg>
