<svg width="16" height="16" viewBox="0 0 16 16" fill="none" xmlns="http://www.w3.org/2000/svg">
<path fill-rule="evenodd" clip-rule="evenodd" d="M8.56384 14.8019C10.057 13.6182 14 10.1638 14 6.69236C14 3.54856 11.3137 1 8 1C4.68629 1 2 3.54856 2 6.69236C2 10.1638 5.94302 13.6182 7.43616 14.8019C7.76912 15.0658 8.23088 15.0658 8.56384 14.8019ZM7.99965 8.66282C8.90338 8.66282 9.63601 7.92766 9.63601 7.0208C9.63601 6.11393 8.90338 5.37877 7.99965 5.37877C7.09591 5.37877 6.36328 6.11393 6.36328 7.0208C6.36328 7.92766 7.09591 8.66282 7.99965 8.66282Z" fill="#A3A3A3"/>
</svg>
