<svg width="18" height="18" viewBox="0 0 18 18" fill="none" xmlns="http://www.w3.org/2000/svg">
<path d="M8.01317 5.5C8.01317 6.88071 6.89531 8 5.51635 8C4.1374 8 3.01953 6.88071 3.01953 5.5C3.01953 4.11929 4.1374 3 5.51635 3C6.89531 3 8.01317 4.11929 8.01317 5.5Z" fill="#A3A3A3"/>
<path d="M15.0054 5.5C15.0054 6.88071 13.8875 8 12.5085 8C11.1296 8 10.0117 6.88071 10.0117 5.5C10.0117 4.11929 11.1296 3 12.5085 3C13.8875 3 15.0054 4.11929 15.0054 5.5Z" fill="#A3A3A3"/>
<mask id="path-3-inside-1_2811_11107" fill="white">
<path fill-rule="evenodd" clip-rule="evenodd" d="M6.23054 15C6.21891 14.9519 6.21167 14.9018 6.20928 14.8501C6.13306 13.2046 6.80597 11.1195 8.06287 9.93506C7.29573 9.35797 6.32626 9 5.14118 9C1.98114 9 0.35418 11.5452 0.00852605 14.0034C-0.0683773 14.5503 0.385677 15 0.937961 15H5.14118H6.23054Z"/>
</mask>
<path fill-rule="evenodd" clip-rule="evenodd" d="M6.23054 15C6.21891 14.9519 6.21167 14.9018 6.20928 14.8501C6.13306 13.2046 6.80597 11.1195 8.06287 9.93506C7.29573 9.35797 6.32626 9 5.14118 9C1.98114 9 0.35418 11.5452 0.00852605 14.0034C-0.0683773 14.5503 0.385677 15 0.937961 15H5.14118H6.23054Z" fill="#A3A3A3"/>
<path d="M6.20928 14.8501L5.21035 14.8964V14.8964L6.20928 14.8501ZM6.23054 15V16C6.53707 16 6.82667 15.8594 7.01628 15.6186C7.20588 15.3777 7.27455 15.0632 7.20258 14.7652L6.23054 15ZM8.06287 9.93506L8.7487 10.6628C8.96325 10.4606 9.07766 10.1741 9.06133 9.87969C9.04501 9.58533 8.89962 9.31317 8.66403 9.13593L8.06287 9.93506ZM0.00852605 14.0034L-0.981732 13.8641L0.00852605 14.0034ZM5.21035 14.8964C5.21568 15.0115 5.2319 15.1247 5.25849 15.2348L7.20258 14.7652C7.20592 14.779 7.20766 14.7921 7.20821 14.8038L5.21035 14.8964ZM7.37704 9.2073C5.869 10.6285 5.12333 13.0175 5.21035 14.8964L7.20821 14.8038C7.1428 13.3916 7.74294 11.6106 8.7487 10.6628L7.37704 9.2073ZM8.66403 9.13593C7.72173 8.42707 6.54079 8 5.14118 8V10C6.11173 10 6.86973 10.2889 7.4617 10.7342L8.66403 9.13593ZM5.14118 8C1.27836 8 -0.599526 11.1461 -0.981732 13.8641L0.998784 14.1426C1.30789 11.9444 2.68393 10 5.14118 10V8ZM-0.981732 13.8641C-1.15645 15.1067 -0.123179 16 0.937961 16V14C0.933151 14 0.94312 13.998 0.959929 14.0155C0.969288 14.0253 0.981848 14.0427 0.990659 14.0686C1.00003 14.0963 1.0015 14.1233 0.998784 14.1426L-0.981732 13.8641ZM0.937961 16H5.14118V14H0.937961V16ZM5.14118 16H6.23054V14H5.14118V16Z" fill="#A3A3A3" mask="url(#path-3-inside-1_2811_11107)"/>
<path d="M7.76562 14.45C7.63857 14.45 7.53119 14.3981 7.46362 14.3273C7.3997 14.2602 7.3715 14.1787 7.3855 14.0864C7.73179 11.8041 9.32739 9.55 12.383 9.55C15.4386 9.55 17.0342 11.8041 17.3805 14.0864C17.3945 14.1787 17.3663 14.2602 17.3024 14.3273C17.2348 14.3981 17.1275 14.45 17.0004 14.45H7.76562Z" fill="#A3A3A3" stroke="#A3A3A3" stroke-width="1.1" stroke-linejoin="round"/>
</svg>
